SplineFontDB: 3.2
FontName: Atari-820-Normal
FullName: Atari 820 Normal Regular
FamilyName: Atari 820 Normal
Weight: Book
Copyright: Copyright jeffpiep 2020
Version: 1.0
ItalicAngle: 0
UnderlinePosition: 74
UnderlineWidth: 49
Ascent: 800
Descent: 200
InvalidEm: 0
sfntRevision: 0x00010000
LayerCount: 2
Layer: 0 1 "Back" 1
Layer: 1 1 "Fore" 0
XUID: [1021 362 -792500644 1909]
StyleMap: 0x0040
FSType: 4
OS2Version: 2
OS2_WeightWidthSlopeOnly: 0
OS2_UseTypoMetrics: 0
CreationTime: 1585943251
ModificationTime: 1589025917
PfmFamily: 81
TTFWeight: 400
TTFWidth: 5
LineGap: 0
VLineGap: 0
Panose: 0 0 4 0 0 0 0 0 0 0
OS2TypoAscent: 1000
OS2TypoAOffset: 0
OS2TypoDescent: 0
OS2TypoDOffset: 0
OS2TypoLinegap: 0
OS2WinAscent: 1000
OS2WinAOffset: 0
OS2WinDescent: 0
OS2WinDOffset: 0
HheadAscent: 1000
HheadAOffset: 0
HheadDescent: 0
HheadDOffset: 0
OS2SubXSize: 500
OS2SubYSize: 500
OS2SubXOff: 0
OS2SubYOff: 0
OS2SupXSize: 500
OS2SupYSize: 500
OS2SupXOff: 0
OS2SupYOff: 500
OS2StrikeYSize: 50
OS2StrikeYPos: 200
OS2CapHeight: 1000
OS2XHeight: 714
OS2Vendor: 'FSTR'
OS2CodePages: 00000001.00000000
OS2UnicodeRanges: 00000001.00000000.00000000.00000000
MarkAttachClasses: 1
DEI: 91125
ShortTable: maxp 16
  1
  0
  98
  399
  19
  0
  0
  2
  0
  0
  0
  0
  0
  0
  0
  0
EndShort

StartChar: exclam
Encoding: 33 33 1
Width: 500
VWidth: 699
Flags: W
LayerCount: 2
Fore
SplineSet
216 0 m 1,0,1
 195 0 195 0 181 15 c 0,2,3
 166.9375 29.0625 166.9375 29.0625 166.9375 47.51953125 c 0,4,5
 166.9375 70.9375 166.9375 70.9375 181 85 c 0,6,7
 196 100 196 100 216 100 c 256,8,9
 237 100 237 100 252 85 c 256,10,11
 267 70 267 70 267 50 c 256,12,13
 267 29 267 29 252 15 c 0,14,15
 237 0 237 0 216 0 c 1,16,-1
 216 0 l 1,0,1
216 200 m 1,17,18
 195 200 195 200 181 214 c 128,-1,19
 166.9375 228.0625 166.9375 228.0625 166.9375 247.3984375 c 0,20,21
 166.9375 270.9375 166.9375 270.9375 181 285 c 0,22,23
 196 300 196 300 216 300 c 256,24,25
 237 300 237 300 252 285 c 256,26,27
 267 270 267 270 267 250 c 256,28,29
 267 229 267 229 252 214 c 0,30,31
 237.9375 199.9375 237.9375 199.9375 218.6015625 199.9375 c 0,32,33
 217.3125 199.9375 217.3125 199.9375 216 200 c 1,34,-1
 216 200 l 1,17,18
216 300 m 1,35,36
 195 300 195 300 181 314 c 128,-1,37
 166.9375 328.0625 166.9375 328.0625 166.9375 347.3984375 c 0,38,39
 166.9375 370.933035714 166.9375 370.933035714 181 386 c 0,40,41
 195.0625 400.0625 195.0625 400.0625 213.51953125 400.0625 c 0,42,43
 214.75 400.0625 214.75 400.0625 216 400 c 256,44,45
 237 400 237 400 252 386 c 0,46,47
 267 371 267 371 267 350 c 128,-1,48
 267 329 267 329 252 314 c 0,49,50
 237.9375 299.9375 237.9375 299.9375 218.6015625 299.9375 c 0,51,52
 217.3125 299.9375 217.3125 299.9375 216 300 c 1,53,-1
 216 300 l 1,35,36
216 400 m 1,54,55
 195 400 195 400 181 414 c 128,-1,56
 166.9375 428.0625 166.9375 428.0625 166.9375 447.3984375 c 0,57,58
 166.9375 470.9375 166.9375 470.9375 181 485 c 0,59,60
 196 500 196 500 216 500 c 256,61,62
 237 500 237 500 252 485 c 128,-1,63
 267 470 267 470 267 450 c 256,64,65
 267 429 267 429 252 414 c 256,66,67
 237.9375 399.9375 237.9375 399.9375 218.6015625 399.9375 c 0,68,69
 217.3125 399.9375 217.3125 399.9375 216 400 c 1,70,-1
 216 400 l 1,54,55
216 500 m 1,71,72
 195 500 195 500 181 514 c 128,-1,73
 166.9375 528.0625 166.9375 528.0625 166.9375 547.3984375 c 0,74,75
 166.9375 570.9375 166.9375 570.9375 181 585 c 0,76,77
 196 600 196 600 216 600 c 256,78,79
 237 600 237 600 252 585 c 128,-1,80
 267 570 267 570 267 550 c 256,81,82
 267 528 267 528 252 514 c 256,83,84
 237.9375 499.9375 237.9375 499.9375 218.6015625 499.9375 c 0,85,86
 217.3125 499.9375 217.3125 499.9375 216 500 c 1,87,-1
 216 500 l 1,71,72
216 600 m 1,88,89
 195 600 195 600 181 615 c 0,90,91
 166.9375 629.0625 166.9375 629.0625 166.9375 647.51953125 c 0,92,93
 166.9375 670.9375 166.9375 670.9375 181 685 c 0,94,95
 196 700 196 700 216 700 c 256,96,97
 237 700 237 700 252 685 c 256,98,99
 267 670 267 670 267 650 c 256,100,101
 267 629 267 629 252 615 c 256,102,103
 237 600 237 600 216 600 c 1,104,-1
 216 600 l 1,88,89
EndSplineSet
Validated: 5
EndChar

StartChar: quotedbl
Encoding: 34 34 2
Width: 500
VWidth: 699
Flags: W
LayerCount: 2
Fore
SplineSet
133 400 m 1,0,1
 112 400 112 400 98 414 c 256,2,3
 83 429 83 429 83 450 c 256,4,5
 83 471 83 471 98 485 c 0,6,7
 113 500 113 500 133 500 c 256,8,9
 154 500 154 500 169 485 c 0,10,11
 183.0625 470.9375 183.0625 470.9375 183.0625 452.48046875 c 0,12,13
 183.0625 429.066964286 183.0625 429.066964286 169 414 c 0,14,15
 154.9375 399.9375 154.9375 399.9375 135.6015625 399.9375 c 0,16,17
 134.3125 399.9375 134.3125 399.9375 133 400 c 1,18,-1
 133 400 l 1,0,1
300 400 m 1,19,20
 279 400 279 400 265 414 c 256,21,22
 250 429 250 429 250 450 c 256,23,24
 250 471 250 471 265 485 c 0,25,26
 280 500 280 500 300 500 c 256,27,28
 321 500 321 500 335 485 c 0,29,30
 350 470 350 470 350 450 c 256,31,32
 350 429 350 429 335 414 c 0,33,34
 320.9375 399.9375 320.9375 399.9375 302.48046875 399.9375 c 0,35,36
 301.25 399.9375 301.25 399.9375 300 400 c 1,37,-1
 300 400 l 1,19,20
133 500 m 1,38,39
 112 500 112 500 98 514 c 256,40,41
 83 529 83 529 83 550 c 256,42,43
 83 571 83 571 98 585 c 0,44,45
 113 600 113 600 133 600 c 256,46,47
 154 600 154 600 169 585 c 0,48,49
 183.0625 570.9375 183.0625 570.9375 183.0625 552.48046875 c 0,50,51
 183.0625 528.0625 183.0625 528.0625 169 514 c 128,-1,52
 154.9375 499.9375 154.9375 499.9375 135.6015625 499.9375 c 0,53,54
 134.3125 499.9375 134.3125 499.9375 133 500 c 1,55,-1
 133 500 l 1,38,39
300 500 m 1,56,57
 279 500 279 500 265 514 c 256,58,59
 250 529 250 529 250 550 c 256,60,61
 250 571 250 571 265 585 c 0,62,63
 280 600 280 600 300 600 c 256,64,65
 321 600 321 600 335 585 c 0,66,67
 350 570 350 570 350 550 c 256,68,69
 350 528 350 528 335 514 c 0,70,71
 320.9375 499.9375 320.9375 499.9375 302.48046875 499.9375 c 0,72,73
 301.25 499.9375 301.25 499.9375 300 500 c 1,74,-1
 300 500 l 1,56,57
133 600 m 1,75,76
 112 600 112 600 98 615 c 256,77,78
 83 630 83 630 83 650 c 256,79,80
 83 671 83 671 98 685 c 256,81,82
 113 700 113 700 133 700 c 256,83,84
 154 700 154 700 169 685 c 0,85,86
 183.0625 670.9375 183.0625 670.9375 183.0625 652.48046875 c 0,87,88
 183.0625 629.0625 183.0625 629.0625 169 615 c 0,89,90
 154 600 154 600 133 600 c 1,91,-1
 133 600 l 1,75,76
300 600 m 1,92,93
 279 600 279 600 265 615 c 256,94,95
 250 630 250 630 250 650 c 256,96,97
 250 671 250 671 265 685 c 256,98,99
 280 700 280 700 300 700 c 256,100,101
 321 700 321 700 335 685 c 0,102,103
 350 670 350 670 350 650 c 256,104,105
 350 629 350 629 335 615 c 0,106,107
 320 600 320 600 300 600 c 1,108,-1
 300 600 l 1,92,93
EndSplineSet
Validated: 5
EndChar

StartChar: numbersign
Encoding: 35 35 3
Width: 500
VWidth: 699
Flags: W
LayerCount: 2
Fore
SplineSet
133 0 m 1,0,1
 112 0 112 0 98 15 c 0,2,3
 83 30 83 30 83 50 c 256,4,5
 83 71 83 71 98 85 c 256,6,7
 113 100 113 100 133 100 c 256,8,9
 154 100 154 100 169 85 c 0,10,11
 183.0625 70.9375 183.0625 70.9375 183.0625 52.48046875 c 0,12,13
 183.0625 29.0625 183.0625 29.0625 169 15 c 0,14,15
 154 0 154 0 133 0 c 1,16,-1
 133 0 l 1,0,1
300 0 m 1,17,18
 279 0 279 0 265 15 c 0,19,20
 250 30 250 30 250 50 c 256,21,22
 250 71 250 71 265 85 c 256,23,24
 280 100 280 100 300 100 c 256,25,26
 321 100 321 100 335 85 c 0,27,28
 350 70 350 70 350 50 c 256,29,30
 350 29 350 29 335 15 c 0,31,32
 320 0 320 0 300 0 c 1,33,-1
 300 0 l 1,17,18
133 100 m 1,34,35
 112 100 112 100 98 115 c 0,36,37
 83 130 83 130 83 150 c 256,38,39
 83 172 83 172 98 186 c 256,40,41
 112.0625 200.0625 112.0625 200.0625 130.51953125 200.0625 c 0,42,43
 131.75 200.0625 131.75 200.0625 133 200 c 256,44,45
 154 200 154 200 169 186 c 0,46,47
 183.0625 171.9375 183.0625 171.9375 183.0625 152.6015625 c 0,48,49
 183.0625 129.0625 183.0625 129.0625 169 115 c 0,50,51
 154 100 154 100 133 100 c 1,52,-1
 133 100 l 1,34,35
300 100 m 1,53,54
 279 100 279 100 265 115 c 0,55,56
 250 130 250 130 250 150 c 256,57,58
 250 172 250 172 265 186 c 256,59,60
 279.0625 200.0625 279.0625 200.0625 297.51953125 200.0625 c 0,61,62
 298.75 200.0625 298.75 200.0625 300 200 c 256,63,64
 321 200 321 200 335 186 c 0,65,66
 350 171 350 171 350 150 c 256,67,68
 350 129 350 129 335 115 c 0,69,70
 320 100 320 100 300 100 c 1,71,-1
 300 100 l 1,53,54
92 222 m 1,72,-1
 92 222 l 1,73,-1
 92 222 l 1,74,-1
 92 222 l 1,75,-1
 92 222 l 1,72,-1
258 222 m 1,76,-1
 258 222 l 1,77,-1
 258 222 l 1,78,-1
 258 222 l 1,79,-1
 258 222 l 1,76,-1
50 200 m 1,80,81
 29 200 29 200 15 214 c 0,82,83
 0 229 0 229 0 250 c 256,84,85
 0 271 0 271 15 285 c 0,86,87
 30 300 30 300 50 300 c 256,88,89
 71 300 71 300 85 285 c 0,90,91
 89 281 89 281 92 278 c 1,92,-1
 92 278 l 1,93,94
 95 282 95 282 98 285 c 0,95,96
 113 300 113 300 133 300 c 256,97,98
 154 300 154 300 169 285 c 0,99,100
 173 281 173 281 175 278 c 1,101,-1
 175 278 l 1,102,103
 178 282 178 282 181 285 c 0,104,105
 196 300 196 300 216 300 c 256,106,107
 237 300 237 300 252 285 c 0,108,109
 256 281 256 281 258 278 c 1,110,-1
 258 278 l 1,111,112
 261 282 261 282 265 285 c 0,113,114
 280 300 280 300 300 300 c 256,115,116
 321 300 321 300 335 285 c 0,117,118
 339 281 339 281 342 278 c 1,119,-1
 342 278 l 1,120,121
 345 282 345 282 348 285 c 0,122,123
 363 300 363 300 384 300 c 128,-1,124
 405 300 405 300 419 285 c 0,125,126
 433.0625 270.9375 433.0625 270.9375 433.0625 252.48046875 c 0,127,128
 433.0625 229.066964286 433.0625 229.066964286 419 214 c 0,129,130
 404.9375 199.9375 404.9375 199.9375 386.48046875 199.9375 c 0,131,132
 385.25 199.9375 385.25 199.9375 384 200 c 0,133,134
 363 200 363 200 348 214 c 0,135,136
 344 218 344 218 342 222 c 1,137,138
 339 218 339 218 335 214 c 0,139,140
 320.9375 199.9375 320.9375 199.9375 302.48046875 199.9375 c 0,141,142
 301.25 199.9375 301.25 199.9375 300 200 c 256,143,144
 279 200 279 200 265 214 c 0,145,146
 261 218 261 218 258 222 c 1,147,148
 255 218 255 218 252 214 c 0,149,150
 237.9375 199.9375 237.9375 199.9375 218.6015625 199.9375 c 0,151,152
 217.3125 199.9375 217.3125 199.9375 216 200 c 256,153,154
 195 200 195 200 181 214 c 0,155,156
 177 218 177 218 175 222 c 1,157,158
 172 218 172 218 169 214 c 0,159,160
 154.9375 199.9375 154.9375 199.9375 135.6015625 199.9375 c 0,161,162
 134.3125 199.9375 134.3125 199.9375 133 200 c 256,163,164
 112 200 112 200 98 214 c 0,165,166
 94 218 94 218 92 222 c 1,167,168
 89 218 89 218 85 214 c 0,169,170
 70.9375 199.9375 70.9375 199.9375 52.48046875 199.9375 c 0,171,172
 51.25 199.9375 51.25 199.9375 50 200 c 1,173,-1
 50 200 l 1,80,81
133 300 m 1,174,175
 112 300 112 300 98 314 c 0,176,177
 83 329 83 329 83 350 c 128,-1,178
 83 371 83 371 98 386 c 0,179,180
 112.0625 400.0625 112.0625 400.0625 130.51953125 400.0625 c 0,181,182
 131.75 400.0625 131.75 400.0625 133 400 c 256,183,184
 154 400 154 400 169 386 c 0,185,186
 183.0625 371.9375 183.0625 371.9375 183.0625 352.6015625 c 0,187,188
 183.0625 329.066964286 183.0625 329.066964286 169 314 c 0,189,190
 154.9375 299.9375 154.9375 299.9375 135.6015625 299.9375 c 0,191,192
 134.3125 299.9375 134.3125 299.9375 133 300 c 1,193,-1
 133 300 l 1,174,175
300 300 m 1,194,195
 279 300 279 300 265 314 c 0,196,197
 250 329 250 329 250 350 c 128,-1,198
 250 371 250 371 265 386 c 0,199,200
 279.0625 400.0625 279.0625 400.0625 297.51953125 400.0625 c 0,201,202
 298.75 400.0625 298.75 400.0625 300 400 c 256,203,204
 321 400 321 400 335 386 c 0,205,206
 350 371 350 371 350 350 c 128,-1,207
 350 329 350 329 335 314 c 0,208,209
 320.9375 299.9375 320.9375 299.9375 302.48046875 299.9375 c 0,210,211
 301.25 299.9375 301.25 299.9375 300 300 c 1,212,-1
 300 300 l 1,194,195
175 422 m 1,213,-1
 175 422 l 1,214,-1
 175 422 l 1,215,-1
 175 422 l 1,216,-1
 175 422 l 1,213,-1
342 422 m 1,217,-1
 342 422 l 1,218,-1
 342 422 l 1,219,-1
 342 422 l 1,220,-1
 342 422 l 1,217,-1
50 400 m 1,221,222
 29 400 29 400 15 414 c 0,223,224
 0 429 0 429 0 450 c 256,225,226
 0 471 0 471 15 485 c 0,227,228
 30 500 30 500 50 500 c 256,229,230
 71 500 71 500 85 485 c 0,231,232
 89 481 89 481 92 478 c 1,233,-1
 92 478 l 1,234,235
 95 482 95 482 98 485 c 0,236,237
 113 500 113 500 133 500 c 256,238,239
 154 500 154 500 169 485 c 0,240,241
 173 481 173 481 175 478 c 1,242,-1
 175 478 l 1,243,244
 178 482 178 482 181 485 c 0,245,246
 196 500 196 500 216 500 c 256,247,248
 237 500 237 500 252 485 c 0,249,250
 256 481 256 481 258 478 c 1,251,-1
 258 478 l 1,252,253
 261 482 261 482 265 485 c 0,254,255
 280 500 280 500 300 500 c 256,256,257
 321 500 321 500 335 485 c 0,258,259
 339 481 339 481 342 478 c 1,260,-1
 342 478 l 1,261,262
 345 482 345 482 348 485 c 0,263,264
 363 500 363 500 384 500 c 128,-1,265
 405 500 405 500 419 485 c 0,266,267
 433.0625 470.9375 433.0625 470.9375 433.0625 452.48046875 c 0,268,269
 433.0625 429.066964286 433.0625 429.066964286 419 414 c 0,270,271
 404.9375 399.9375 404.9375 399.9375 386.48046875 399.9375 c 0,272,273
 385.25 399.9375 385.25 399.9375 384 400 c 0,274,275
 363 400 363 400 348 414 c 0,276,277
 344 418 344 418 342 422 c 1,278,279
 339 418 339 418 335 414 c 0,280,281
 320.9375 399.9375 320.9375 399.9375 302.48046875 399.9375 c 0,282,283
 301.25 399.9375 301.25 399.9375 300 400 c 256,284,285
 279 400 279 400 265 414 c 0,286,287
 261 418 261 418 258 422 c 1,288,-1
 258 422 l 1,289,290
 255 418 255 418 252 414 c 0,291,292
 237.9375 399.9375 237.9375 399.9375 218.6015625 399.9375 c 0,293,294
 217.3125 399.9375 217.3125 399.9375 216 400 c 256,295,296
 195 400 195 400 181 414 c 0,297,298
 177 418 177 418 175 422 c 1,299,-1
 175 422 l 1,300,301
 172 418 172 418 169 414 c 0,302,303
 154.9375 399.9375 154.9375 399.9375 135.6015625 399.9375 c 0,304,305
 134.3125 399.9375 134.3125 399.9375 133 400 c 256,306,307
 112 400 112 400 98 414 c 0,308,309
 94 418 94 418 92 422 c 1,310,-1
 92 422 l 1,311,312
 89 418 89 418 85 414 c 0,313,314
 70.9375 399.9375 70.9375 399.9375 52.48046875 399.9375 c 0,315,316
 51.25 399.9375 51.25 399.9375 50 400 c 1,317,-1
 50 400 l 1,221,222
133 500 m 1,318,319
 112 500 112 500 98 514 c 256,320,321
 83 529 83 529 83 550 c 256,322,323
 83 571 83 571 98 585 c 0,324,325
 113 600 113 600 133 600 c 256,326,327
 154 600 154 600 169 585 c 0,328,329
 183.0625 570.9375 183.0625 570.9375 183.0625 552.48046875 c 0,330,331
 183.0625 528.0625 183.0625 528.0625 169 514 c 128,-1,332
 154.9375 499.9375 154.9375 499.9375 135.6015625 499.9375 c 0,333,334
 134.3125 499.9375 134.3125 499.9375 133 500 c 1,335,-1
 133 500 l 1,318,319
300 500 m 1,336,337
 279 500 279 500 265 514 c 256,338,339
 250 529 250 529 250 550 c 256,340,341
 250 571 250 571 265 585 c 0,342,343
 280 600 280 600 300 600 c 256,344,345
 321 600 321 600 335 585 c 0,346,347
 350 570 350 570 350 550 c 256,348,349
 350 528 350 528 335 514 c 0,350,351
 320.9375 499.9375 320.9375 499.9375 302.48046875 499.9375 c 0,352,353
 301.25 499.9375 301.25 499.9375 300 500 c 1,354,-1
 300 500 l 1,336,337
133 600 m 1,355,356
 112 600 112 600 98 615 c 256,357,358
 83 630 83 630 83 650 c 256,359,360
 83 671 83 671 98 685 c 256,361,362
 113 700 113 700 133 700 c 256,363,364
 154 700 154 700 169 685 c 0,365,366
 183.0625 670.9375 183.0625 670.9375 183.0625 652.48046875 c 0,367,368
 183.0625 629.0625 183.0625 629.0625 169 615 c 0,369,370
 154 600 154 600 133 600 c 1,371,-1
 133 600 l 1,355,356
300 600 m 1,372,373
 279 600 279 600 265 615 c 256,374,375
 250 630 250 630 250 650 c 256,376,377
 250 671 250 671 265 685 c 256,378,379
 280 700 280 700 300 700 c 256,380,381
 321 700 321 700 335 685 c 0,382,383
 350 670 350 670 350 650 c 256,384,385
 350 629 350 629 335 615 c 0,386,387
 320 600 320 600 300 600 c 1,388,-1
 300 600 l 1,372,373
EndSplineSet
Validated: 5
EndChar

StartChar: dollar
Encoding: 36 36 4
Width: 500
VWidth: 699
Flags: W
LayerCount: 2
Fore
SplineSet
216 0 m 1,0,1
 195 0 195 0 181 15 c 0,2,3
 166.9375 29.0625 166.9375 29.0625 166.9375 47.51953125 c 0,4,5
 166.9375 70.9375 166.9375 70.9375 181 85 c 0,6,7
 196 100 196 100 216 100 c 256,8,9
 237 100 237 100 252 85 c 256,10,11
 267 70 267 70 267 50 c 256,12,13
 267 29 267 29 252 15 c 0,14,15
 237 0 237 0 216 0 c 1,16,-1
 216 0 l 1,0,1
92 122 m 1,17,18
 92 122 l 1,19,-1
 92 122 l 1,20,21
 92 122 l 1,22,-1
 92 122 l 1,17,18
175 122 m 1,23,24
 175 122 l 1,25,-1
 175 122 l 1,26,27
 175 122 l 1,28,-1
 175 122 l 1,23,24
50 100 m 1,29,30
 29 100 29 100 15 115 c 0,31,32
 0 130 0 130 0 150 c 256,33,34
 0 172 0 172 15 186 c 0,35,36
 29.0625 200.0625 29.0625 200.0625 47.51953125 200.0625 c 0,37,38
 48.75 200.0625 48.75 200.0625 50 200 c 256,39,40
 71 200 71 200 85 186 c 0,41,42
 89 182 89 182 92 178 c 1,43,-1
 92 178 l 1,44,45
 95 182 95 182 98 186 c 0,46,47
 112.0625 200.0625 112.0625 200.0625 130.51953125 200.0625 c 0,48,49
 131.75 200.0625 131.75 200.0625 133 200 c 256,50,51
 154 200 154 200 169 186 c 0,52,53
 173 182 173 182 175 178 c 1,54,-1
 175 178 l 1,55,56
 178 182 178 182 181 186 c 0,57,58
 195.0625 200.0625 195.0625 200.0625 213.51953125 200.0625 c 0,59,60
 214.75 200.0625 214.75 200.0625 216 200 c 256,61,62
 237 200 237 200 252 186 c 0,63,64
 256 182 256 182 258 178 c 1,65,-1
 258 178 l 1,66,67
 261 182 261 182 265 186 c 0,68,69
 279.0625 200.0625 279.0625 200.0625 297.51953125 200.0625 c 0,70,71
 298.75 200.0625 298.75 200.0625 300 200 c 256,72,73
 321 200 321 200 335 186 c 0,74,75
 350 171 350 171 350 150 c 256,76,77
 350 129 350 129 335 115 c 0,78,79
 320 100 320 100 300 100 c 256,80,81
 279 100 279 100 265 115 c 0,82,83
 261 119 261 119 258 122 c 1,84,85
 255 118 255 118 252 115 c 0,86,87
 237 100 237 100 216 100 c 256,88,89
 195 100 195 100 181 115 c 0,90,91
 177 119 177 119 175 122 c 1,92,-1
 175 122 l 1,93,94
 172 118 172 118 169 115 c 0,95,96
 154 100 154 100 133 100 c 256,97,98
 112 100 112 100 98 115 c 0,99,100
 94 119 94 119 92 122 c 1,101,102
 89 118 89 118 85 115 c 0,103,104
 70 100 70 100 50 100 c 1,105,-1
 50 100 l 1,29,30
216 200 m 1,106,107
 195 200 195 200 181 214 c 128,-1,108
 166.9375 228.0625 166.9375 228.0625 166.9375 247.3984375 c 0,109,110
 166.9375 270.9375 166.9375 270.9375 181 285 c 0,111,112
 196 300 196 300 216 300 c 256,113,114
 237 300 237 300 252 285 c 256,115,116
 267 270 267 270 267 250 c 256,117,118
 267 229 267 229 252 214 c 0,119,120
 237.9375 199.9375 237.9375 199.9375 218.6015625 199.9375 c 0,121,122
 217.3125 199.9375 217.3125 199.9375 216 200 c 1,123,-1
 216 200 l 1,106,107
384 200 m 1,124,125
 363 200 363 200 348 214 c 0,126,127
 333 229 333 229 333 250 c 256,128,129
 333 271 333 271 348 285 c 0,130,131
 363 300 363 300 384 300 c 128,-1,132
 405 300 405 300 419 285 c 0,133,134
 433.0625 270.9375 433.0625 270.9375 433.0625 252.48046875 c 0,135,136
 433.0625 229.066964286 433.0625 229.066964286 419 214 c 0,137,138
 404.9375 199.9375 404.9375 199.9375 386.48046875 199.9375 c 0,139,140
 385.25 199.9375 385.25 199.9375 384 200 c 1,141,-1
 384 200 l 1,124,125
258 322 m 1,142,-1
 258 322 l 1,143,-1
 258 322 l 1,144,-1
 258 322 l 1,145,-1
 258 322 l 1,142,-1
133 300 m 1,146,147
 112 300 112 300 98 314 c 0,148,149
 83 329 83 329 83 350 c 128,-1,150
 83 371 83 371 98 386 c 0,151,152
 112.0625 400.0625 112.0625 400.0625 130.51953125 400.0625 c 0,153,154
 131.75 400.0625 131.75 400.0625 133 400 c 256,155,156
 154 400 154 400 169 386 c 0,157,158
 173 382 173 382 175 378 c 1,159,-1
 175 378 l 1,160,161
 178 382 178 382 181 386 c 0,162,163
 195.0625 400.0625 195.0625 400.0625 213.51953125 400.0625 c 0,164,165
 214.75 400.0625 214.75 400.0625 216 400 c 256,166,167
 237 400 237 400 252 386 c 0,168,169
 256 382 256 382 258 378 c 1,170,-1
 258 378 l 1,171,172
 261 382 261 382 265 386 c 0,173,174
 279.0625 400.0625 279.0625 400.0625 297.51953125 400.0625 c 0,175,176
 298.75 400.0625 298.75 400.0625 300 400 c 256,177,178
 321 400 321 400 335 386 c 0,179,180
 350 371 350 371 350 350 c 128,-1,181
 350 329 350 329 335 314 c 0,182,183
 320.9375 299.9375 320.9375 299.9375 302.48046875 299.9375 c 0,184,185
 301.25 299.9375 301.25 299.9375 300 300 c 256,186,187
 279 300 279 300 265 314 c 0,188,189
 261 318 261 318 258 322 c 1,190,-1
 258 322 l 1,191,192
 255 318 255 318 252 314 c 0,193,194
 237.9375 299.9375 237.9375 299.9375 218.6015625 299.9375 c 0,195,196
 217.3125 299.9375 217.3125 299.9375 216 300 c 256,197,198
 195 300 195 300 181 314 c 0,199,200
 177 318 177 318 175 322 c 1,201,-1
 175 322 l 1,202,203
 172 318 172 318 169 314 c 0,204,205
 154.9375 299.9375 154.9375 299.9375 135.6015625 299.9375 c 0,206,207
 134.3125 299.9375 134.3125 299.9375 133 300 c 1,208,-1
 133 300 l 1,146,147
50 400 m 1,209,210
 29 400 29 400 15 414 c 0,211,212
 0 429 0 429 0 450 c 256,213,214
 0 471 0 471 15 485 c 0,215,216
 30 500 30 500 50 500 c 256,217,218
 71 500 71 500 85 485 c 0,219,220
 100 470 100 470 100 450 c 256,221,222
 100 429 100 429 85 414 c 256,223,224
 70.9375 399.9375 70.9375 399.9375 52.48046875 399.9375 c 0,225,226
 51.25 399.9375 51.25 399.9375 50 400 c 1,227,-1
 50 400 l 1,209,210
216 400 m 1,228,229
 195 400 195 400 181 414 c 128,-1,230
 166.9375 428.0625 166.9375 428.0625 166.9375 447.3984375 c 0,231,232
 166.9375 470.9375 166.9375 470.9375 181 485 c 0,233,234
 196 500 196 500 216 500 c 256,235,236
 237 500 237 500 252 485 c 128,-1,237
 267 470 267 470 267 450 c 256,238,239
 267 429 267 429 252 414 c 256,240,241
 237.9375 399.9375 237.9375 399.9375 218.6015625 399.9375 c 0,242,243
 217.3125 399.9375 217.3125 399.9375 216 400 c 1,244,-1
 216 400 l 1,228,229
175 522 m 1,245,-1
 175 522 l 1,246,-1
 175 522 l 1,247,-1
 175 522 l 1,248,-1
 175 522 l 1,245,-1
342 522 m 1,249,-1
 342 522 l 1,250,-1
 342 522 l 1,251,-1
 342 522 l 1,252,-1
 342 522 l 1,249,-1
133 500 m 1,253,254
 112 500 112 500 98 514 c 256,255,256
 83 529 83 529 83 550 c 256,257,258
 83 571 83 571 98 585 c 0,259,260
 113 600 113 600 133 600 c 256,261,262
 154 600 154 600 169 585 c 0,263,264
 173 582 173 582 175 578 c 1,265,-1
 175 578 l 1,266,267
 178 582 178 582 181 585 c 0,268,269
 196 600 196 600 216 600 c 256,270,271
 237 600 237 600 252 585 c 0,272,273
 256 582 256 582 258 578 c 1,274,-1
 258 578 l 1,275,276
 261 582 261 582 265 585 c 0,277,278
 280 600 280 600 300 600 c 256,279,280
 321 600 321 600 335 585 c 0,281,282
 339 582 339 582 342 578 c 1,283,-1
 342 578 l 1,284,285
 345 582 345 582 348 585 c 0,286,287
 363 600 363 600 384 600 c 128,-1,288
 405 600 405 600 419 585 c 0,289,290
 433.0625 570.9375 433.0625 570.9375 433.0625 552.48046875 c 0,291,292
 433.0625 528.0625 433.0625 528.0625 419 514 c 128,-1,293
 404.9375 499.9375 404.9375 499.9375 386.48046875 499.9375 c 0,294,295
 385.25 499.9375 385.25 499.9375 384 500 c 0,296,297
 363 500 363 500 348 514 c 0,298,299
 344 518 344 518 342 522 c 1,300,301
 339 518 339 518 335 514 c 0,302,303
 320.9375 499.9375 320.9375 499.9375 302.48046875 499.9375 c 0,304,305
 301.25 499.9375 301.25 499.9375 300 500 c 256,306,307
 279 500 279 500 265 514 c 0,308,309
 261 518 261 518 258 522 c 1,310,-1
 258 522 l 1,311,312
 255 518 255 518 252 514 c 0,313,314
 237.9375 499.9375 237.9375 499.9375 218.6015625 499.9375 c 0,315,316
 217.3125 499.9375 217.3125 499.9375 216 500 c 256,317,318
 195 500 195 500 181 514 c 0,319,320
 177 518 177 518 175 522 c 1,321,-1
 175 522 l 1,322,323
 172 518 172 518 169 514 c 0,324,325
 154.9375 499.9375 154.9375 499.9375 135.6015625 499.9375 c 0,326,327
 134.3125 499.9375 134.3125 499.9375 133 500 c 1,328,-1
 133 500 l 1,253,254
216 600 m 1,329,330
 195 600 195 600 181 615 c 0,331,332
 166.9375 629.0625 166.9375 629.0625 166.9375 647.51953125 c 0,333,334
 166.9375 670.9375 166.9375 670.9375 181 685 c 0,335,336
 196 700 196 700 216 700 c 256,337,338
 237 700 237 700 252 685 c 256,339,340
 267 670 267 670 267 650 c 256,341,342
 267 629 267 629 252 615 c 256,343,344
 237 600 237 600 216 600 c 1,345,-1
 216 600 l 1,329,330
EndSplineSet
Validated: 5
EndChar

StartChar: percent
Encoding: 37 37 5
Width: 500
VWidth: 699
Flags: W
LayerCount: 2
Fore
SplineSet
342 22 m 1,0,1
 342 22 l 1,2,-1
 342 22 l 1,3,4
 342 22 l 1,5,-1
 342 22 l 1,0,1
300 0 m 1,6,7
 279 0 279 0 265 15 c 0,8,9
 250 30 250 30 250 50 c 256,10,11
 250 71 250 71 265 85 c 256,12,13
 280 100 280 100 300 100 c 256,14,15
 321 100 321 100 335 85 c 0,16,17
 339 81 339 81 342 78 c 1,18,-1
 342 78 l 1,19,20
 345 82 345 82 348 85 c 0,21,22
 363 100 363 100 384 100 c 128,-1,23
 405 100 405 100 419 85 c 0,24,25
 433.0625 70.9375 433.0625 70.9375 433.0625 52.48046875 c 0,26,27
 433.0625 29.0625 433.0625 29.0625 419 15 c 0,28,29
 404 0 404 0 384 0 c 0,30,31
 363 0 363 0 348 15 c 0,32,33
 344 19 344 19 342 22 c 1,34,35
 339 18 339 18 335 15 c 0,36,37
 320 0 320 0 300 0 c 1,38,-1
 300 0 l 1,6,7
342 122 m 1,39,-1
 342 122 l 1,40,-1
 342 122 l 1,41,-1
 342 122 l 1,42,-1
 342 122 l 1,39,-1
50 100 m 1,43,44
 29 100 29 100 15 115 c 0,45,46
 0 130 0 130 0 150 c 256,47,48
 0 172 0 172 15 186 c 0,49,50
 29.0625 200.0625 29.0625 200.0625 47.51953125 200.0625 c 0,51,52
 48.75 200.0625 48.75 200.0625 50 200 c 256,53,54
 71 200 71 200 85 186 c 256,55,56
 100 171 100 171 100 150 c 256,57,58
 100 129 100 129 85 115 c 0,59,60
 70 100 70 100 50 100 c 1,61,-1
 50 100 l 1,43,44
300 100 m 1,62,63
 279 100 279 100 265 115 c 0,64,65
 250 130 250 130 250 150 c 256,66,67
 250 172 250 172 265 186 c 256,68,69
 279.0625 200.0625 279.0625 200.0625 297.51953125 200.0625 c 0,70,71
 298.75 200.0625 298.75 200.0625 300 200 c 256,72,73
 321 200 321 200 335 186 c 0,74,75
 339 182 339 182 342 178 c 1,76,-1
 342 178 l 1,77,78
 345 182 345 182 348 186 c 0,79,80
 362.0625 200.0625 362.0625 200.0625 381.3984375 200.0625 c 0,81,82
 382.6875 200.0625 382.6875 200.0625 384 200 c 0,83,84
 405 200 405 200 419 186 c 128,-1,85
 433.0625 171.9375 433.0625 171.9375 433.0625 152.6015625 c 0,86,87
 433.0625 129.0625 433.0625 129.0625 419 115 c 0,88,89
 404 100 404 100 384 100 c 0,90,91
 363 100 363 100 348 115 c 0,92,93
 344 119 344 119 342 122 c 1,94,-1
 342 122 l 1,95,96
 339 118 339 118 335 115 c 0,97,98
 320 100 320 100 300 100 c 1,99,-1
 300 100 l 1,62,63
133 200 m 1,100,101
 112 200 112 200 98 214 c 0,102,103
 83 229 83 229 83 250 c 256,104,105
 83 271 83 271 98 285 c 256,106,107
 113 300 113 300 133 300 c 256,108,109
 154 300 154 300 169 285 c 0,110,111
 183.0625 270.9375 183.0625 270.9375 183.0625 252.48046875 c 0,112,113
 183.0625 229.066964286 183.0625 229.066964286 169 214 c 0,114,115
 154.9375 199.9375 154.9375 199.9375 135.6015625 199.9375 c 0,116,117
 134.3125 199.9375 134.3125 199.9375 133 200 c 1,118,-1
 133 200 l 1,100,101
216 300 m 1,119,120
 195 300 195 300 181 314 c 128,-1,121
 166.9375 328.0625 166.9375 328.0625 166.9375 347.3984375 c 0,122,123
 166.9375 370.933035714 166.9375 370.933035714 181 386 c 0,124,125
 195.0625 400.0625 195.0625 400.0625 213.51953125 400.0625 c 0,126,127
 214.75 400.0625 214.75 400.0625 216 400 c 256,128,129
 237 400 237 400 252 386 c 0,130,131
 267 371 267 371 267 350 c 128,-1,132
 267 329 267 329 252 314 c 0,133,134
 237.9375 299.9375 237.9375 299.9375 218.6015625 299.9375 c 0,135,136
 217.3125 299.9375 217.3125 299.9375 216 300 c 1,137,-1
 216 300 l 1,119,120
300 400 m 1,138,139
 279 400 279 400 265 414 c 256,140,141
 250 429 250 429 250 450 c 256,142,143
 250 471 250 471 265 485 c 0,144,145
 280 500 280 500 300 500 c 256,146,147
 321 500 321 500 335 485 c 0,148,149
 350 470 350 470 350 450 c 256,150,151
 350 429 350 429 335 414 c 0,152,153
 320.9375 399.9375 320.9375 399.9375 302.48046875 399.9375 c 0,154,155
 301.25 399.9375 301.25 399.9375 300 400 c 1,156,-1
 300 400 l 1,138,139
92 522 m 1,157,-1
 92 522 l 1,158,-1
 92 522 l 1,159,-1
 92 522 l 1,160,-1
 92 522 l 1,157,-1
50 500 m 1,161,162
 29 500 29 500 15 514 c 0,163,164
 0 529 0 529 0 550 c 256,165,166
 0 571 0 571 15 585 c 0,167,168
 30 600 30 600 50 600 c 256,169,170
 71 600 71 600 85 585 c 0,171,172
 89 582 89 582 92 578 c 1,173,-1
 92 578 l 1,174,175
 95 582 95 582 98 585 c 0,176,177
 113 600 113 600 133 600 c 256,178,179
 154 600 154 600 169 585 c 0,180,181
 183.0625 570.9375 183.0625 570.9375 183.0625 552.48046875 c 0,182,183
 183.0625 528.0625 183.0625 528.0625 169 514 c 128,-1,184
 154.9375 499.9375 154.9375 499.9375 135.6015625 499.9375 c 0,185,186
 134.3125 499.9375 134.3125 499.9375 133 500 c 256,187,188
 112 500 112 500 98 514 c 0,189,190
 94 518 94 518 92 522 c 1,191,192
 89 518 89 518 85 514 c 0,193,194
 70.9375 499.9375 70.9375 499.9375 52.48046875 499.9375 c 0,195,196
 51.25 499.9375 51.25 499.9375 50 500 c 1,197,-1
 50 500 l 1,161,162
384 500 m 1,198,199
 363 500 363 500 348 514 c 0,200,201
 333 529 333 529 333 550 c 256,202,203
 333 571 333 571 348 585 c 0,204,205
 363 600 363 600 384 600 c 128,-1,206
 405 600 405 600 419 585 c 0,207,208
 433.0625 570.9375 433.0625 570.9375 433.0625 552.48046875 c 0,209,210
 433.0625 528.0625 433.0625 528.0625 419 514 c 128,-1,211
 404.9375 499.9375 404.9375 499.9375 386.48046875 499.9375 c 0,212,213
 385.25 499.9375 385.25 499.9375 384 500 c 1,214,-1
 384 500 l 1,198,199
92 622 m 1,215,-1
 92 622 l 1,216,-1
 92 622 l 1,217,-1
 92 622 l 1,218,-1
 92 622 l 1,215,-1
50 600 m 1,219,220
 29 600 29 600 15 615 c 0,221,222
 0 630 0 630 0 650 c 256,223,224
 0 671 0 671 15 685 c 0,225,226
 30 700 30 700 50 700 c 256,227,228
 71 700 71 700 85 685 c 0,229,230
 89 681 89 681 92 678 c 1,231,-1
 92 678 l 1,232,233
 95 682 95 682 98 685 c 0,234,235
 113 700 113 700 133 700 c 256,236,237
 154 700 154 700 169 685 c 0,238,239
 183.0625 670.9375 183.0625 670.9375 183.0625 652.48046875 c 0,240,241
 183.0625 629.0625 183.0625 629.0625 169 615 c 0,242,243
 154 600 154 600 133 600 c 256,244,245
 112 600 112 600 98 615 c 0,246,247
 94 619 94 619 92 622 c 1,248,-1
 92 622 l 1,249,250
 89 618 89 618 85 615 c 0,251,252
 70 600 70 600 50 600 c 1,253,-1
 50 600 l 1,219,220
EndSplineSet
Validated: 5
EndChar

StartChar: ampersand
Encoding: 38 38 6
Width: 500
VWidth: 699
Flags: W
LayerCount: 2
Fore
SplineSet
175 22 m 1,0,1
 175 22 l 1,2,-1
 175 22 l 1,3,4
 175 22 l 1,5,-1
 175 22 l 1,0,1
133 0 m 1,6,7
 112 0 112 0 98 15 c 0,8,9
 83 30 83 30 83 50 c 256,10,11
 83 71 83 71 98 85 c 256,12,13
 113 100 113 100 133 100 c 256,14,15
 154 100 154 100 169 85 c 0,16,17
 173 81 173 81 175 78 c 1,18,-1
 175 78 l 1,19,20
 178 82 178 82 181 85 c 0,21,22
 196 100 196 100 216 100 c 256,23,24
 237 100 237 100 252 85 c 256,25,26
 267 70 267 70 267 50 c 256,27,28
 267 29 267 29 252 15 c 0,29,30
 237 0 237 0 216 0 c 256,31,32
 195 0 195 0 181 15 c 0,33,34
 177 19 177 19 175 22 c 1,35,36
 172 18 172 18 169 15 c 0,37,38
 154 0 154 0 133 0 c 1,39,-1
 133 0 l 1,6,7
384 0 m 1,40,41
 363 0 363 0 348 15 c 128,-1,42
 333 30 333 30 333 50 c 256,43,44
 333 71 333 71 348 85 c 0,45,46
 363 100 363 100 384 100 c 128,-1,47
 405 100 405 100 419 85 c 0,48,49
 433.0625 70.9375 433.0625 70.9375 433.0625 52.48046875 c 0,50,51
 433.0625 29.0625 433.0625 29.0625 419 15 c 0,52,53
 404 0 404 0 384 0 c 1,54,-1
 384 0 l 1,40,41
50 100 m 1,55,56
 29 100 29 100 15 115 c 0,57,58
 0 130 0 130 0 150 c 256,59,60
 0 172 0 172 15 186 c 0,61,62
 29.0625 200.0625 29.0625 200.0625 47.51953125 200.0625 c 0,63,64
 48.75 200.0625 48.75 200.0625 50 200 c 256,65,66
 71 200 71 200 85 186 c 256,67,68
 100 171 100 171 100 150 c 256,69,70
 100 129 100 129 85 115 c 0,71,72
 70 100 70 100 50 100 c 1,73,-1
 50 100 l 1,55,56
300 100 m 1,74,75
 279 100 279 100 265 115 c 0,76,77
 250 130 250 130 250 150 c 256,78,79
 250 172 250 172 265 186 c 256,80,81
 279.0625 200.0625 279.0625 200.0625 297.51953125 200.0625 c 0,82,83
 298.75 200.0625 298.75 200.0625 300 200 c 256,84,85
 321 200 321 200 335 186 c 0,86,87
 350 171 350 171 350 150 c 256,88,89
 350 129 350 129 335 115 c 0,90,91
 320 100 320 100 300 100 c 1,92,-1
 300 100 l 1,74,75
50 200 m 1,93,94
 29 200 29 200 15 214 c 0,95,96
 0 229 0 229 0 250 c 256,97,98
 0 271 0 271 15 285 c 0,99,100
 30 300 30 300 50 300 c 256,101,102
 71 300 71 300 85 285 c 256,103,104
 100 270 100 270 100 250 c 256,105,106
 100 229 100 229 85 214 c 0,107,108
 70.9375 199.9375 70.9375 199.9375 52.48046875 199.9375 c 0,109,110
 51.25 199.9375 51.25 199.9375 50 200 c 1,111,-1
 50 200 l 1,93,94
216 200 m 1,112,113
 195 200 195 200 181 214 c 128,-1,114
 166.9375 228.0625 166.9375 228.0625 166.9375 247.3984375 c 0,115,116
 166.9375 270.9375 166.9375 270.9375 181 285 c 0,117,118
 196 300 196 300 216 300 c 256,119,120
 237 300 237 300 252 285 c 256,121,122
 267 270 267 270 267 250 c 256,123,124
 267 229 267 229 252 214 c 0,125,126
 237.9375 199.9375 237.9375 199.9375 218.6015625 199.9375 c 0,127,128
 217.3125 199.9375 217.3125 199.9375 216 200 c 1,129,-1
 216 200 l 1,112,113
384 200 m 1,130,131
 363 200 363 200 348 214 c 0,132,133
 333 229 333 229 333 250 c 256,134,135
 333 271 333 271 348 285 c 0,136,137
 363 300 363 300 384 300 c 128,-1,138
 405 300 405 300 419 285 c 0,139,140
 433.0625 270.9375 433.0625 270.9375 433.0625 252.48046875 c 0,141,142
 433.0625 229.066964286 433.0625 229.066964286 419 214 c 0,143,144
 404.9375 199.9375 404.9375 199.9375 386.48046875 199.9375 c 0,145,146
 385.25 199.9375 385.25 199.9375 384 200 c 1,147,-1
 384 200 l 1,130,131
133 300 m 1,148,149
 112 300 112 300 98 314 c 0,150,151
 83 329 83 329 83 350 c 128,-1,152
 83 371 83 371 98 386 c 0,153,154
 112.0625 400.0625 112.0625 400.0625 130.51953125 400.0625 c 0,155,156
 131.75 400.0625 131.75 400.0625 133 400 c 256,157,158
 154 400 154 400 169 386 c 0,159,160
 183.0625 371.9375 183.0625 371.9375 183.0625 352.6015625 c 0,161,162
 183.0625 329.066964286 183.0625 329.066964286 169 314 c 0,163,164
 154.9375 299.9375 154.9375 299.9375 135.6015625 299.9375 c 0,165,166
 134.3125 299.9375 134.3125 299.9375 133 300 c 1,167,-1
 133 300 l 1,148,149
50 400 m 1,168,169
 29 400 29 400 15 414 c 0,170,171
 0 429 0 429 0 450 c 256,172,173
 0 471 0 471 15 485 c 0,174,175
 30 500 30 500 50 500 c 256,176,177
 71 500 71 500 85 485 c 0,178,179
 100 470 100 470 100 450 c 256,180,181
 100 429 100 429 85 414 c 256,182,183
 70.9375 399.9375 70.9375 399.9375 52.48046875 399.9375 c 0,184,185
 51.25 399.9375 51.25 399.9375 50 400 c 1,186,-1
 50 400 l 1,168,169
216 400 m 1,187,188
 195 400 195 400 181 414 c 128,-1,189
 166.9375 428.0625 166.9375 428.0625 166.9375 447.3984375 c 0,190,191
 166.9375 470.9375 166.9375 470.9375 181 485 c 0,192,193
 196 500 196 500 216 500 c 256,194,195
 237 500 237 500 252 485 c 128,-1,196
 267 470 267 470 267 450 c 256,197,198
 267 429 267 429 252 414 c 256,199,200
 237.9375 399.9375 237.9375 399.9375 218.6015625 399.9375 c 0,201,202
 217.3125 399.9375 217.3125 399.9375 216 400 c 1,203,-1
 216 400 l 1,187,188
50 500 m 1,204,205
 29 500 29 500 15 514 c 0,206,207
 0 529 0 529 0 550 c 256,208,209
 0 571 0 571 15 585 c 0,210,211
 30 600 30 600 50 600 c 256,212,213
 71 600 71 600 85 585 c 0,214,215
 100 570 100 570 100 550 c 256,216,217
 100 528 100 528 85 514 c 256,218,219
 70.9375 499.9375 70.9375 499.9375 52.48046875 499.9375 c 0,220,221
 51.25 499.9375 51.25 499.9375 50 500 c 1,222,-1
 50 500 l 1,204,205
216 500 m 1,223,224
 195 500 195 500 181 514 c 128,-1,225
 166.9375 528.0625 166.9375 528.0625 166.9375 547.3984375 c 0,226,227
 166.9375 570.9375 166.9375 570.9375 181 585 c 0,228,229
 196 600 196 600 216 600 c 256,230,231
 237 600 237 600 252 585 c 128,-1,232
 267 570 267 570 267 550 c 256,233,234
 267 528 267 528 252 514 c 256,235,236
 237.9375 499.9375 237.9375 499.9375 218.6015625 499.9375 c 0,237,238
 217.3125 499.9375 217.3125 499.9375 216 500 c 1,239,-1
 216 500 l 1,223,224
133 600 m 1,240,241
 112 600 112 600 98 615 c 256,242,243
 83 630 83 630 83 650 c 256,244,245
 83 671 83 671 98 685 c 256,246,247
 113 700 113 700 133 700 c 256,248,249
 154 700 154 700 169 685 c 0,250,251
 183.0625 670.9375 183.0625 670.9375 183.0625 652.48046875 c 0,252,253
 183.0625 629.0625 183.0625 629.0625 169 615 c 0,254,255
 154 600 154 600 133 600 c 1,256,-1
 133 600 l 1,240,241
EndSplineSet
Validated: 5
EndChar

StartChar: quotesingle
Encoding: 39 39 7
Width: 500
VWidth: 699
Flags: W
LayerCount: 2
Fore
SplineSet
216 400 m 1,0,1
 195 400 195 400 181 414 c 128,-1,2
 166.9375 428.0625 166.9375 428.0625 166.9375 447.3984375 c 0,3,4
 166.9375 470.9375 166.9375 470.9375 181 485 c 0,5,6
 196 500 196 500 216 500 c 256,7,8
 237 500 237 500 252 485 c 128,-1,9
 267 470 267 470 267 450 c 256,10,11
 267 429 267 429 252 414 c 256,12,13
 237.9375 399.9375 237.9375 399.9375 218.6015625 399.9375 c 0,14,15
 217.3125 399.9375 217.3125 399.9375 216 400 c 1,16,-1
 216 400 l 1,0,1
216 500 m 1,17,18
 195 500 195 500 181 514 c 128,-1,19
 166.9375 528.0625 166.9375 528.0625 166.9375 547.3984375 c 0,20,21
 166.9375 570.9375 166.9375 570.9375 181 585 c 0,22,23
 196 600 196 600 216 600 c 256,24,25
 237 600 237 600 252 585 c 128,-1,26
 267 570 267 570 267 550 c 256,27,28
 267 528 267 528 252 514 c 256,29,30
 237.9375 499.9375 237.9375 499.9375 218.6015625 499.9375 c 0,31,32
 217.3125 499.9375 217.3125 499.9375 216 500 c 1,33,-1
 216 500 l 1,17,18
216 600 m 1,34,35
 195 600 195 600 181 615 c 0,36,37
 166.9375 629.0625 166.9375 629.0625 166.9375 647.51953125 c 0,38,39
 166.9375 670.9375 166.9375 670.9375 181 685 c 0,40,41
 196 700 196 700 216 700 c 256,42,43
 237 700 237 700 252 685 c 256,44,45
 267 670 267 670 267 650 c 256,46,47
 267 629 267 629 252 615 c 256,48,49
 237 600 237 600 216 600 c 1,50,-1
 216 600 l 1,34,35
EndSplineSet
Validated: 5
EndChar

StartChar: parenleft
Encoding: 40 40 8
Width: 500
VWidth: 699
Flags: W
LayerCount: 2
Fore
SplineSet
216 0 m 1,0,1
 195 0 195 0 181 15 c 0,2,3
 166.9375 29.0625 166.9375 29.0625 166.9375 47.51953125 c 0,4,5
 166.9375 70.9375 166.9375 70.9375 181 85 c 0,6,7
 196 100 196 100 216 100 c 256,8,9
 237 100 237 100 252 85 c 256,10,11
 267 70 267 70 267 50 c 256,12,13
 267 29 267 29 252 15 c 0,14,15
 237 0 237 0 216 0 c 1,16,-1
 216 0 l 1,0,1
133 100 m 1,17,18
 112 100 112 100 98 115 c 0,19,20
 83 130 83 130 83 150 c 256,21,22
 83 172 83 172 98 186 c 256,23,24
 112.0625 200.0625 112.0625 200.0625 130.51953125 200.0625 c 0,25,26
 131.75 200.0625 131.75 200.0625 133 200 c 256,27,28
 154 200 154 200 169 186 c 0,29,30
 183.0625 171.9375 183.0625 171.9375 183.0625 152.6015625 c 0,31,32
 183.0625 129.0625 183.0625 129.0625 169 115 c 0,33,34
 154 100 154 100 133 100 c 1,35,-1
 133 100 l 1,17,18
50 200 m 1,36,37
 29 200 29 200 15 214 c 0,38,39
 0 229 0 229 0 250 c 256,40,41
 0 271 0 271 15 285 c 0,42,43
 30 300 30 300 50 300 c 256,44,45
 71 300 71 300 85 285 c 256,46,47
 100 270 100 270 100 250 c 256,48,49
 100 229 100 229 85 214 c 0,50,51
 70.9375 199.9375 70.9375 199.9375 52.48046875 199.9375 c 0,52,53
 51.25 199.9375 51.25 199.9375 50 200 c 1,54,-1
 50 200 l 1,36,37
50 300 m 1,55,56
 29 300 29 300 15 314 c 0,57,58
 0 329 0 329 0 350 c 128,-1,59
 0 371 0 371 15 386 c 0,60,61
 29.0625 400.0625 29.0625 400.0625 47.51953125 400.0625 c 0,62,63
 48.75 400.0625 48.75 400.0625 50 400 c 256,64,65
 71 400 71 400 85 386 c 0,66,67
 100 371 100 371 100 350 c 128,-1,68
 100 329 100 329 85 314 c 0,69,70
 70.9375 299.9375 70.9375 299.9375 52.48046875 299.9375 c 0,71,72
 51.25 299.9375 51.25 299.9375 50 300 c 1,73,-1
 50 300 l 1,55,56
50 400 m 1,74,75
 29 400 29 400 15 414 c 0,76,77
 0 429 0 429 0 450 c 256,78,79
 0 471 0 471 15 485 c 0,80,81
 30 500 30 500 50 500 c 256,82,83
 71 500 71 500 85 485 c 0,84,85
 100 470 100 470 100 450 c 256,86,87
 100 429 100 429 85 414 c 256,88,89
 70.9375 399.9375 70.9375 399.9375 52.48046875 399.9375 c 0,90,91
 51.25 399.9375 51.25 399.9375 50 400 c 1,92,-1
 50 400 l 1,74,75
133 500 m 1,93,94
 112 500 112 500 98 514 c 256,95,96
 83 529 83 529 83 550 c 256,97,98
 83 571 83 571 98 585 c 0,99,100
 113 600 113 600 133 600 c 256,101,102
 154 600 154 600 169 585 c 0,103,104
 183.0625 570.9375 183.0625 570.9375 183.0625 552.48046875 c 0,105,106
 183.0625 528.0625 183.0625 528.0625 169 514 c 128,-1,107
 154.9375 499.9375 154.9375 499.9375 135.6015625 499.9375 c 0,108,109
 134.3125 499.9375 134.3125 499.9375 133 500 c 1,110,-1
 133 500 l 1,93,94
216 600 m 1,111,112
 195 600 195 600 181 615 c 0,113,114
 166.9375 629.0625 166.9375 629.0625 166.9375 647.51953125 c 0,115,116
 166.9375 670.9375 166.9375 670.9375 181 685 c 0,117,118
 196 700 196 700 216 700 c 256,119,120
 237 700 237 700 252 685 c 256,121,122
 267 670 267 670 267 650 c 256,123,124
 267 629 267 629 252 615 c 256,125,126
 237 600 237 600 216 600 c 1,127,-1
 216 600 l 1,111,112
EndSplineSet
Validated: 5
EndChar

StartChar: parenright
Encoding: 41 41 9
Width: 500
VWidth: 699
Flags: W
LayerCount: 2
Fore
SplineSet
216 0 m 1,0,1
 195 0 195 0 181 15 c 0,2,3
 166.9375 29.0625 166.9375 29.0625 166.9375 47.51953125 c 0,4,5
 166.9375 70.9375 166.9375 70.9375 181 85 c 0,6,7
 196 100 196 100 216 100 c 256,8,9
 237 100 237 100 252 85 c 256,10,11
 267 70 267 70 267 50 c 256,12,13
 267 29 267 29 252 15 c 0,14,15
 237 0 237 0 216 0 c 1,16,-1
 216 0 l 1,0,1
300 100 m 1,17,18
 279 100 279 100 265 115 c 0,19,20
 250 130 250 130 250 150 c 256,21,22
 250 172 250 172 265 186 c 256,23,24
 279.0625 200.0625 279.0625 200.0625 297.51953125 200.0625 c 0,25,26
 298.75 200.0625 298.75 200.0625 300 200 c 256,27,28
 321 200 321 200 335 186 c 0,29,30
 350 171 350 171 350 150 c 256,31,32
 350 129 350 129 335 115 c 0,33,34
 320 100 320 100 300 100 c 1,35,-1
 300 100 l 1,17,18
384 200 m 1,36,37
 363 200 363 200 348 214 c 0,38,39
 333 229 333 229 333 250 c 256,40,41
 333 271 333 271 348 285 c 0,42,43
 363 300 363 300 384 300 c 128,-1,44
 405 300 405 300 419 285 c 0,45,46
 433.0625 270.9375 433.0625 270.9375 433.0625 252.48046875 c 0,47,48
 433.0625 229.066964286 433.0625 229.066964286 419 214 c 0,49,50
 404.9375 199.9375 404.9375 199.9375 386.48046875 199.9375 c 0,51,52
 385.25 199.9375 385.25 199.9375 384 200 c 1,53,-1
 384 200 l 1,36,37
384 300 m 1,54,55
 363 300 363 300 348 314 c 0,56,57
 333 329 333 329 333 350 c 128,-1,58
 333 371 333 371 348 386 c 0,59,60
 362.0625 400.0625 362.0625 400.0625 381.3984375 400.0625 c 0,61,62
 382.6875 400.0625 382.6875 400.0625 384 400 c 0,63,64
 405 400 405 400 419 386 c 128,-1,65
 433.0625 371.9375 433.0625 371.9375 433.0625 352.6015625 c 0,66,67
 433.0625 329.066964286 433.0625 329.066964286 419 314 c 0,68,69
 404.9375 299.9375 404.9375 299.9375 386.48046875 299.9375 c 0,70,71
 385.25 299.9375 385.25 299.9375 384 300 c 1,72,-1
 384 300 l 1,54,55
384 400 m 1,73,74
 363 400 363 400 348 414 c 0,75,76
 333 429 333 429 333 450 c 256,77,78
 333 471 333 471 348 485 c 0,79,80
 363 500 363 500 384 500 c 128,-1,81
 405 500 405 500 419 485 c 0,82,83
 433.0625 470.9375 433.0625 470.9375 433.0625 452.48046875 c 0,84,85
 433.0625 429.066964286 433.0625 429.066964286 419 414 c 0,86,87
 404.9375 399.9375 404.9375 399.9375 386.48046875 399.9375 c 0,88,89
 385.25 399.9375 385.25 399.9375 384 400 c 1,90,-1
 384 400 l 1,73,74
300 500 m 1,91,92
 279 500 279 500 265 514 c 256,93,94
 250 529 250 529 250 550 c 256,95,96
 250 571 250 571 265 585 c 0,97,98
 280 600 280 600 300 600 c 256,99,100
 321 600 321 600 335 585 c 0,101,102
 350 570 350 570 350 550 c 256,103,104
 350 528 350 528 335 514 c 0,105,106
 320.9375 499.9375 320.9375 499.9375 302.48046875 499.9375 c 0,107,108
 301.25 499.9375 301.25 499.9375 300 500 c 1,109,-1
 300 500 l 1,91,92
216 600 m 1,110,111
 195 600 195 600 181 615 c 0,112,113
 166.9375 629.0625 166.9375 629.0625 166.9375 647.51953125 c 0,114,115
 166.9375 670.9375 166.9375 670.9375 181 685 c 0,116,117
 196 700 196 700 216 700 c 256,118,119
 237 700 237 700 252 685 c 256,120,121
 267 670 267 670 267 650 c 256,122,123
 267 629 267 629 252 615 c 256,124,125
 237 600 237 600 216 600 c 1,126,-1
 216 600 l 1,110,111
EndSplineSet
Validated: 5
EndChar

StartChar: asterisk
Encoding: 42 42 10
Width: 500
VWidth: 699
Flags: W
LayerCount: 2
Fore
SplineSet
216 0 m 1,0,1
 195 0 195 0 181 15 c 0,2,3
 166.9375 29.0625 166.9375 29.0625 166.9375 47.51953125 c 0,4,5
 166.9375 70.9375 166.9375 70.9375 181 85 c 0,6,7
 196 100 196 100 216 100 c 256,8,9
 237 100 237 100 252 85 c 256,10,11
 267 70 267 70 267 50 c 256,12,13
 267 29 267 29 252 15 c 0,14,15
 237 0 237 0 216 0 c 1,16,-1
 216 0 l 1,0,1
50 100 m 1,17,18
 29 100 29 100 15 115 c 0,19,20
 0 130 0 130 0 150 c 256,21,22
 0 172 0 172 15 186 c 0,23,24
 29.0625 200.0625 29.0625 200.0625 47.51953125 200.0625 c 0,25,26
 48.75 200.0625 48.75 200.0625 50 200 c 256,27,28
 71 200 71 200 85 186 c 256,29,30
 100 171 100 171 100 150 c 256,31,32
 100 129 100 129 85 115 c 0,33,34
 70 100 70 100 50 100 c 1,35,-1
 50 100 l 1,17,18
216 100 m 1,36,37
 195 100 195 100 181 115 c 0,38,39
 166.9375 129.0625 166.9375 129.0625 166.9375 147.51953125 c 0,40,41
 166.9375 171.9375 166.9375 171.9375 181 186 c 128,-1,42
 195.0625 200.0625 195.0625 200.0625 213.51953125 200.0625 c 0,43,44
 214.75 200.0625 214.75 200.0625 216 200 c 256,45,46
 237 200 237 200 252 186 c 256,47,48
 267 171 267 171 267 150 c 256,49,50
 267 129 267 129 252 115 c 0,51,52
 237 100 237 100 216 100 c 1,53,-1
 216 100 l 1,36,37
384 100 m 1,54,55
 363 100 363 100 348 115 c 128,-1,56
 333 130 333 130 333 150 c 256,57,58
 333 172 333 172 348 186 c 0,59,60
 362.0625 200.0625 362.0625 200.0625 381.3984375 200.0625 c 0,61,62
 382.6875 200.0625 382.6875 200.0625 384 200 c 0,63,64
 405 200 405 200 419 186 c 128,-1,65
 433.0625 171.9375 433.0625 171.9375 433.0625 152.6015625 c 0,66,67
 433.0625 129.0625 433.0625 129.0625 419 115 c 0,68,69
 404 100 404 100 384 100 c 1,70,-1
 384 100 l 1,54,55
133 200 m 1,71,72
 112 200 112 200 98 214 c 0,73,74
 83 229 83 229 83 250 c 256,75,76
 83 271 83 271 98 285 c 256,77,78
 113 300 113 300 133 300 c 256,79,80
 154 300 154 300 169 285 c 0,81,82
 183.0625 270.9375 183.0625 270.9375 183.0625 252.48046875 c 0,83,84
 183.0625 229.066964286 183.0625 229.066964286 169 214 c 0,85,86
 154.9375 199.9375 154.9375 199.9375 135.6015625 199.9375 c 0,87,88
 134.3125 199.9375 134.3125 199.9375 133 200 c 1,89,-1
 133 200 l 1,71,72
300 200 m 1,90,91
 279 200 279 200 265 214 c 0,92,93
 250 229 250 229 250 250 c 256,94,95
 250 271 250 271 265 285 c 256,96,97
 280 300 280 300 300 300 c 256,98,99
 321 300 321 300 335 285 c 0,100,101
 350 270 350 270 350 250 c 256,102,103
 350 229 350 229 335 214 c 0,104,105
 320.9375 199.9375 320.9375 199.9375 302.48046875 199.9375 c 0,106,107
 301.25 199.9375 301.25 199.9375 300 200 c 1,108,-1
 300 200 l 1,90,91
216 300 m 1,109,110
 195 300 195 300 181 314 c 128,-1,111
 166.9375 328.0625 166.9375 328.0625 166.9375 347.3984375 c 0,112,113
 166.9375 370.933035714 166.9375 370.933035714 181 386 c 0,114,115
 195.0625 400.0625 195.0625 400.0625 213.51953125 400.0625 c 0,116,117
 214.75 400.0625 214.75 400.0625 216 400 c 256,118,119
 237 400 237 400 252 386 c 0,120,121
 267 371 267 371 267 350 c 128,-1,122
 267 329 267 329 252 314 c 0,123,124
 237.9375 299.9375 237.9375 299.9375 218.6015625 299.9375 c 0,125,126
 217.3125 299.9375 217.3125 299.9375 216 300 c 1,127,-1
 216 300 l 1,109,110
133 400 m 1,128,129
 112 400 112 400 98 414 c 256,130,131
 83 429 83 429 83 450 c 256,132,133
 83 471 83 471 98 485 c 0,134,135
 113 500 113 500 133 500 c 256,136,137
 154 500 154 500 169 485 c 0,138,139
 183.0625 470.9375 183.0625 470.9375 183.0625 452.48046875 c 0,140,141
 183.0625 429.066964286 183.0625 429.066964286 169 414 c 0,142,143
 154.9375 399.9375 154.9375 399.9375 135.6015625 399.9375 c 0,144,145
 134.3125 399.9375 134.3125 399.9375 133 400 c 1,146,-1
 133 400 l 1,128,129
300 400 m 1,147,148
 279 400 279 400 265 414 c 256,149,150
 250 429 250 429 250 450 c 256,151,152
 250 471 250 471 265 485 c 0,153,154
 280 500 280 500 300 500 c 256,155,156
 321 500 321 500 335 485 c 0,157,158
 350 470 350 470 350 450 c 256,159,160
 350 429 350 429 335 414 c 0,161,162
 320.9375 399.9375 320.9375 399.9375 302.48046875 399.9375 c 0,163,164
 301.25 399.9375 301.25 399.9375 300 400 c 1,165,-1
 300 400 l 1,147,148
50 500 m 1,166,167
 29 500 29 500 15 514 c 0,168,169
 0 529 0 529 0 550 c 256,170,171
 0 571 0 571 15 585 c 0,172,173
 30 600 30 600 50 600 c 256,174,175
 71 600 71 600 85 585 c 0,176,177
 100 570 100 570 100 550 c 256,178,179
 100 528 100 528 85 514 c 256,180,181
 70.9375 499.9375 70.9375 499.9375 52.48046875 499.9375 c 0,182,183
 51.25 499.9375 51.25 499.9375 50 500 c 1,184,-1
 50 500 l 1,166,167
216 500 m 1,185,186
 195 500 195 500 181 514 c 128,-1,187
 166.9375 528.0625 166.9375 528.0625 166.9375 547.3984375 c 0,188,189
 166.9375 570.9375 166.9375 570.9375 181 585 c 0,190,191
 196 600 196 600 216 600 c 256,192,193
 237 600 237 600 252 585 c 128,-1,194
 267 570 267 570 267 550 c 256,195,196
 267 528 267 528 252 514 c 256,197,198
 237.9375 499.9375 237.9375 499.9375 218.6015625 499.9375 c 0,199,200
 217.3125 499.9375 217.3125 499.9375 216 500 c 1,201,-1
 216 500 l 1,185,186
384 500 m 1,202,203
 363 500 363 500 348 514 c 0,204,205
 333 529 333 529 333 550 c 256,206,207
 333 571 333 571 348 585 c 0,208,209
 363 600 363 600 384 600 c 128,-1,210
 405 600 405 600 419 585 c 0,211,212
 433.0625 570.9375 433.0625 570.9375 433.0625 552.48046875 c 0,213,214
 433.0625 528.0625 433.0625 528.0625 419 514 c 128,-1,215
 404.9375 499.9375 404.9375 499.9375 386.48046875 499.9375 c 0,216,217
 385.25 499.9375 385.25 499.9375 384 500 c 1,218,-1
 384 500 l 1,202,203
216 600 m 1,219,220
 195 600 195 600 181 615 c 0,221,222
 166.9375 629.0625 166.9375 629.0625 166.9375 647.51953125 c 0,223,224
 166.9375 670.9375 166.9375 670.9375 181 685 c 0,225,226
 196 700 196 700 216 700 c 256,227,228
 237 700 237 700 252 685 c 256,229,230
 267 670 267 670 267 650 c 256,231,232
 267 629 267 629 252 615 c 256,233,234
 237 600 237 600 216 600 c 1,235,-1
 216 600 l 1,219,220
EndSplineSet
Validated: 5
EndChar

StartChar: plus
Encoding: 43 43 11
Width: 500
VWidth: 699
Flags: W
LayerCount: 2
Fore
SplineSet
216 100 m 1,0,1
 195 100 195 100 181 115 c 0,2,3
 166.9375 129.0625 166.9375 129.0625 166.9375 147.51953125 c 0,4,5
 166.9375 171.9375 166.9375 171.9375 181 186 c 128,-1,6
 195.0625 200.0625 195.0625 200.0625 213.51953125 200.0625 c 0,7,8
 214.75 200.0625 214.75 200.0625 216 200 c 256,9,10
 237 200 237 200 252 186 c 256,11,12
 267 171 267 171 267 150 c 256,13,14
 267 129 267 129 252 115 c 0,15,16
 237 100 237 100 216 100 c 1,17,-1
 216 100 l 1,0,1
216 200 m 1,18,19
 195 200 195 200 181 214 c 128,-1,20
 166.9375 228.0625 166.9375 228.0625 166.9375 247.3984375 c 0,21,22
 166.9375 270.9375 166.9375 270.9375 181 285 c 0,23,24
 196 300 196 300 216 300 c 256,25,26
 237 300 237 300 252 285 c 256,27,28
 267 270 267 270 267 250 c 256,29,30
 267 229 267 229 252 214 c 0,31,32
 237.9375 199.9375 237.9375 199.9375 218.6015625 199.9375 c 0,33,34
 217.3125 199.9375 217.3125 199.9375 216 200 c 1,35,-1
 216 200 l 1,18,19
92 322 m 1,36,-1
 92 322 l 1,37,-1
 92 322 l 1,38,-1
 92 322 l 1,39,-1
 92 322 l 1,36,-1
258 322 m 1,40,41
 258 322 l 1,42,-1
 258 322 l 1,43,44
 258 322 l 1,45,-1
 258 322 l 1,40,41
50 300 m 1,46,47
 29 300 29 300 15 314 c 0,48,49
 0 329 0 329 0 350 c 128,-1,50
 0 371 0 371 15 386 c 0,51,52
 29.0625 400.0625 29.0625 400.0625 47.51953125 400.0625 c 0,53,54
 48.75 400.0625 48.75 400.0625 50 400 c 256,55,56
 71 400 71 400 85 386 c 0,57,58
 89 382 89 382 92 378 c 1,59,-1
 92 378 l 1,60,61
 95 382 95 382 98 386 c 0,62,63
 112.0625 400.0625 112.0625 400.0625 130.51953125 400.0625 c 0,64,65
 131.75 400.0625 131.75 400.0625 133 400 c 256,66,67
 154 400 154 400 169 386 c 0,68,69
 173 382 173 382 175 378 c 1,70,-1
 175 378 l 1,71,72
 178 382 178 382 181 386 c 0,73,74
 195.0625 400.0625 195.0625 400.0625 213.51953125 400.0625 c 0,75,76
 214.75 400.0625 214.75 400.0625 216 400 c 256,77,78
 237 400 237 400 252 386 c 0,79,80
 256 382 256 382 258 378 c 1,81,-1
 258 378 l 1,82,83
 261 382 261 382 265 386 c 0,84,85
 279.0625 400.0625 279.0625 400.0625 297.51953125 400.0625 c 0,86,87
 298.75 400.0625 298.75 400.0625 300 400 c 256,88,89
 321 400 321 400 335 386 c 0,90,91
 339 382 339 382 342 378 c 1,92,-1
 342 378 l 1,93,94
 345 382 345 382 348 386 c 0,95,96
 362.0625 400.0625 362.0625 400.0625 381.3984375 400.0625 c 0,97,98
 382.6875 400.0625 382.6875 400.0625 384 400 c 0,99,100
 405 400 405 400 419 386 c 128,-1,101
 433.0625 371.9375 433.0625 371.9375 433.0625 352.6015625 c 0,102,103
 433.0625 329.066964286 433.0625 329.066964286 419 314 c 0,104,105
 404.9375 299.9375 404.9375 299.9375 386.48046875 299.9375 c 0,106,107
 385.25 299.9375 385.25 299.9375 384 300 c 0,108,109
 363 300 363 300 348 314 c 0,110,111
 344 318 344 318 342 322 c 1,112,113
 339 318 339 318 335 314 c 0,114,115
 320.9375 299.9375 320.9375 299.9375 302.48046875 299.9375 c 0,116,117
 301.25 299.9375 301.25 299.9375 300 300 c 256,118,119
 279 300 279 300 265 314 c 0,120,121
 261 318 261 318 258 322 c 1,122,-1
 258 322 l 1,123,124
 255 318 255 318 252 314 c 0,125,126
 237.9375 299.9375 237.9375 299.9375 218.6015625 299.9375 c 0,127,128
 217.3125 299.9375 217.3125 299.9375 216 300 c 256,129,130
 195 300 195 300 181 314 c 0,131,132
 177 318 177 318 175 322 c 1,133,134
 172 318 172 318 169 314 c 0,135,136
 154.9375 299.9375 154.9375 299.9375 135.6015625 299.9375 c 0,137,138
 134.3125 299.9375 134.3125 299.9375 133 300 c 256,139,140
 112 300 112 300 98 314 c 0,141,142
 94 318 94 318 92 322 c 1,143,144
 89 318 89 318 85 314 c 0,145,146
 70.9375 299.9375 70.9375 299.9375 52.48046875 299.9375 c 0,147,148
 51.25 299.9375 51.25 299.9375 50 300 c 1,149,-1
 50 300 l 1,46,47
216 400 m 1,150,151
 195 400 195 400 181 414 c 128,-1,152
 166.9375 428.0625 166.9375 428.0625 166.9375 447.3984375 c 0,153,154
 166.9375 470.9375 166.9375 470.9375 181 485 c 0,155,156
 196 500 196 500 216 500 c 256,157,158
 237 500 237 500 252 485 c 128,-1,159
 267 470 267 470 267 450 c 256,160,161
 267 429 267 429 252 414 c 256,162,163
 237.9375 399.9375 237.9375 399.9375 218.6015625 399.9375 c 0,164,165
 217.3125 399.9375 217.3125 399.9375 216 400 c 1,166,-1
 216 400 l 1,150,151
216 500 m 1,167,168
 195 500 195 500 181 514 c 128,-1,169
 166.9375 528.0625 166.9375 528.0625 166.9375 547.3984375 c 0,170,171
 166.9375 570.9375 166.9375 570.9375 181 585 c 0,172,173
 196 600 196 600 216 600 c 256,174,175
 237 600 237 600 252 585 c 128,-1,176
 267 570 267 570 267 550 c 256,177,178
 267 528 267 528 252 514 c 256,179,180
 237.9375 499.9375 237.9375 499.9375 218.6015625 499.9375 c 0,181,182
 217.3125 499.9375 217.3125 499.9375 216 500 c 1,183,-1
 216 500 l 1,167,168
EndSplineSet
Validated: 5
EndChar

StartChar: comma
Encoding: 44 44 12
Width: 500
VWidth: 699
Flags: W
LayerCount: 2
Fore
SplineSet
133 0 m 1,0,1
 112 0 112 0 98 15 c 0,2,3
 83 30 83 30 83 50 c 256,4,5
 83 71 83 71 98 85 c 256,6,7
 113 100 113 100 133 100 c 256,8,9
 154 100 154 100 169 85 c 0,10,11
 183.0625 70.9375 183.0625 70.9375 183.0625 52.48046875 c 0,12,13
 183.0625 29.0625 183.0625 29.0625 169 15 c 0,14,15
 154 0 154 0 133 0 c 1,16,-1
 133 0 l 1,0,1
216 100 m 1,17,18
 195 100 195 100 181 115 c 0,19,20
 166.9375 129.0625 166.9375 129.0625 166.9375 147.51953125 c 0,21,22
 166.9375 171.9375 166.9375 171.9375 181 186 c 128,-1,23
 195.0625 200.0625 195.0625 200.0625 213.51953125 200.0625 c 0,24,25
 214.75 200.0625 214.75 200.0625 216 200 c 256,26,27
 237 200 237 200 252 186 c 256,28,29
 267 171 267 171 267 150 c 256,30,31
 267 129 267 129 252 115 c 0,32,33
 237 100 237 100 216 100 c 1,34,-1
 216 100 l 1,17,18
216 200 m 1,35,36
 195 200 195 200 181 214 c 128,-1,37
 166.9375 228.0625 166.9375 228.0625 166.9375 247.3984375 c 0,38,39
 166.9375 270.9375 166.9375 270.9375 181 285 c 0,40,41
 196 300 196 300 216 300 c 256,42,43
 237 300 237 300 252 285 c 256,44,45
 267 270 267 270 267 250 c 256,46,47
 267 229 267 229 252 214 c 0,48,49
 237.9375 199.9375 237.9375 199.9375 218.6015625 199.9375 c 0,50,51
 217.3125 199.9375 217.3125 199.9375 216 200 c 1,52,-1
 216 200 l 1,35,36
EndSplineSet
Validated: 5
EndChar

StartChar: hyphen
Encoding: 45 45 13
Width: 500
VWidth: 699
Flags: W
LayerCount: 2
Fore
SplineSet
92 322 m 1,0,1
 92 322 l 1,2,-1
 92 322 l 1,3,4
 92 322 l 1,5,-1
 92 322 l 1,0,1
258 322 m 1,6,7
 258 322 l 1,8,-1
 258 322 l 1,9,10
 258 322 l 1,11,-1
 258 322 l 1,6,7
50 300 m 1,12,13
 29 300 29 300 15 314 c 0,14,15
 0 329 0 329 0 350 c 128,-1,16
 0 371 0 371 15 386 c 0,17,18
 29.0625 400.0625 29.0625 400.0625 47.51953125 400.0625 c 0,19,20
 48.75 400.0625 48.75 400.0625 50 400 c 256,21,22
 71 400 71 400 85 386 c 0,23,24
 89 382 89 382 92 378 c 1,25,-1
 92 378 l 1,26,27
 95 382 95 382 98 386 c 0,28,29
 112.0625 400.0625 112.0625 400.0625 130.51953125 400.0625 c 0,30,31
 131.75 400.0625 131.75 400.0625 133 400 c 256,32,33
 154 400 154 400 169 386 c 0,34,35
 173 382 173 382 175 378 c 1,36,-1
 175 378 l 1,37,38
 178 382 178 382 181 386 c 0,39,40
 195.0625 400.0625 195.0625 400.0625 213.51953125 400.0625 c 0,41,42
 214.75 400.0625 214.75 400.0625 216 400 c 256,43,44
 237 400 237 400 252 386 c 0,45,46
 256 382 256 382 258 378 c 1,47,-1
 258 378 l 1,48,49
 261 382 261 382 265 386 c 0,50,51
 279.0625 400.0625 279.0625 400.0625 297.51953125 400.0625 c 0,52,53
 298.75 400.0625 298.75 400.0625 300 400 c 256,54,55
 321 400 321 400 335 386 c 0,56,57
 339 382 339 382 342 378 c 1,58,-1
 342 378 l 1,59,60
 345 382 345 382 348 386 c 0,61,62
 362.0625 400.0625 362.0625 400.0625 381.3984375 400.0625 c 0,63,64
 382.6875 400.0625 382.6875 400.0625 384 400 c 0,65,66
 405 400 405 400 419 386 c 128,-1,67
 433.0625 371.9375 433.0625 371.9375 433.0625 352.6015625 c 0,68,69
 433.0625 329.066964286 433.0625 329.066964286 419 314 c 0,70,71
 404.9375 299.9375 404.9375 299.9375 386.48046875 299.9375 c 0,72,73
 385.25 299.9375 385.25 299.9375 384 300 c 0,74,75
 363 300 363 300 348 314 c 0,76,77
 344 318 344 318 342 322 c 1,78,79
 339 318 339 318 335 314 c 0,80,81
 320.9375 299.9375 320.9375 299.9375 302.48046875 299.9375 c 0,82,83
 301.25 299.9375 301.25 299.9375 300 300 c 256,84,85
 279 300 279 300 265 314 c 0,86,87
 261 318 261 318 258 322 c 1,88,89
 255 318 255 318 252 314 c 0,90,91
 237.9375 299.9375 237.9375 299.9375 218.6015625 299.9375 c 0,92,93
 217.3125 299.9375 217.3125 299.9375 216 300 c 256,94,95
 195 300 195 300 181 314 c 0,96,97
 177 318 177 318 175 322 c 1,98,99
 172 318 172 318 169 314 c 0,100,101
 154.9375 299.9375 154.9375 299.9375 135.6015625 299.9375 c 0,102,103
 134.3125 299.9375 134.3125 299.9375 133 300 c 256,104,105
 112 300 112 300 98 314 c 0,106,107
 94 318 94 318 92 322 c 1,108,109
 89 318 89 318 85 314 c 0,110,111
 70.9375 299.9375 70.9375 299.9375 52.48046875 299.9375 c 0,112,113
 51.25 299.9375 51.25 299.9375 50 300 c 1,114,-1
 50 300 l 1,12,13
EndSplineSet
Validated: 5
EndChar

StartChar: period
Encoding: 46 46 14
Width: 500
VWidth: 699
Flags: W
LayerCount: 2
Fore
SplineSet
216 0 m 1,0,1
 195 0 195 0 181 15 c 0,2,3
 166.9375 29.0625 166.9375 29.0625 166.9375 47.51953125 c 0,4,5
 166.9375 70.9375 166.9375 70.9375 181 85 c 0,6,7
 196 100 196 100 216 100 c 256,8,9
 237 100 237 100 252 85 c 256,10,11
 267 70 267 70 267 50 c 256,12,13
 267 29 267 29 252 15 c 0,14,15
 237 0 237 0 216 0 c 1,16,-1
 216 0 l 1,0,1
EndSplineSet
Validated: 5
EndChar

StartChar: slash
Encoding: 47 47 15
Width: 500
VWidth: 699
Flags: W
LayerCount: 2
Fore
SplineSet
50 100 m 1,0,1
 29 100 29 100 15 115 c 0,2,3
 0 130 0 130 0 150 c 256,4,5
 0 172 0 172 15 186 c 0,6,7
 29.0625 200.0625 29.0625 200.0625 47.51953125 200.0625 c 0,8,9
 48.75 200.0625 48.75 200.0625 50 200 c 256,10,11
 71 200 71 200 85 186 c 256,12,13
 100 171 100 171 100 150 c 256,14,15
 100 129 100 129 85 115 c 0,16,17
 70 100 70 100 50 100 c 1,18,-1
 50 100 l 1,0,1
133 200 m 1,19,20
 112 200 112 200 98 214 c 0,21,22
 83 229 83 229 83 250 c 256,23,24
 83 271 83 271 98 285 c 256,25,26
 113 300 113 300 133 300 c 256,27,28
 154 300 154 300 169 285 c 0,29,30
 183.0625 270.9375 183.0625 270.9375 183.0625 252.48046875 c 0,31,32
 183.0625 229.066964286 183.0625 229.066964286 169 214 c 0,33,34
 154.9375 199.9375 154.9375 199.9375 135.6015625 199.9375 c 0,35,36
 134.3125 199.9375 134.3125 199.9375 133 200 c 1,37,-1
 133 200 l 1,19,20
216 300 m 1,38,39
 195 300 195 300 181 314 c 128,-1,40
 166.9375 328.0625 166.9375 328.0625 166.9375 347.3984375 c 0,41,42
 166.9375 370.933035714 166.9375 370.933035714 181 386 c 0,43,44
 195.0625 400.0625 195.0625 400.0625 213.51953125 400.0625 c 0,45,46
 214.75 400.0625 214.75 400.0625 216 400 c 256,47,48
 237 400 237 400 252 386 c 0,49,50
 267 371 267 371 267 350 c 128,-1,51
 267 329 267 329 252 314 c 0,52,53
 237.9375 299.9375 237.9375 299.9375 218.6015625 299.9375 c 0,54,55
 217.3125 299.9375 217.3125 299.9375 216 300 c 1,56,-1
 216 300 l 1,38,39
300 400 m 1,57,58
 279 400 279 400 265 414 c 256,59,60
 250 429 250 429 250 450 c 256,61,62
 250 471 250 471 265 485 c 0,63,64
 280 500 280 500 300 500 c 256,65,66
 321 500 321 500 335 485 c 0,67,68
 350 470 350 470 350 450 c 256,69,70
 350 429 350 429 335 414 c 0,71,72
 320.9375 399.9375 320.9375 399.9375 302.48046875 399.9375 c 0,73,74
 301.25 399.9375 301.25 399.9375 300 400 c 1,75,-1
 300 400 l 1,57,58
384 500 m 1,76,77
 363 500 363 500 348 514 c 0,78,79
 333 529 333 529 333 550 c 256,80,81
 333 571 333 571 348 585 c 0,82,83
 363 600 363 600 384 600 c 128,-1,84
 405 600 405 600 419 585 c 0,85,86
 433.0625 570.9375 433.0625 570.9375 433.0625 552.48046875 c 0,87,88
 433.0625 528.0625 433.0625 528.0625 419 514 c 128,-1,89
 404.9375 499.9375 404.9375 499.9375 386.48046875 499.9375 c 0,90,91
 385.25 499.9375 385.25 499.9375 384 500 c 1,92,-1
 384 500 l 1,76,77
EndSplineSet
Validated: 5
EndChar

StartChar: zero
Encoding: 48 48 16
Width: 500
VWidth: 699
Flags: W
LayerCount: 2
Fore
SplineSet
175 22 m 1,0,1
 175 22 l 1,2,-1
 175 22 l 1,3,4
 175 22 l 1,5,-1
 175 22 l 1,0,1
133 0 m 1,6,7
 112 0 112 0 98 15 c 0,8,9
 83 30 83 30 83 50 c 256,10,11
 83 71 83 71 98 85 c 256,12,13
 113 100 113 100 133 100 c 256,14,15
 154 100 154 100 169 85 c 0,16,17
 173 81 173 81 175 78 c 1,18,-1
 175 78 l 1,19,20
 178 82 178 82 181 85 c 0,21,22
 196 100 196 100 216 100 c 256,23,24
 237 100 237 100 252 85 c 0,25,26
 256 81 256 81 258 78 c 1,27,-1
 258 78 l 1,28,29
 261 82 261 82 265 85 c 0,30,31
 280 100 280 100 300 100 c 256,32,33
 321 100 321 100 335 85 c 0,34,35
 350 70 350 70 350 50 c 256,36,37
 350 29 350 29 335 15 c 0,38,39
 320 0 320 0 300 0 c 256,40,41
 279 0 279 0 265 15 c 0,42,43
 261 19 261 19 258 22 c 1,44,45
 255 18 255 18 252 15 c 0,46,47
 237 0 237 0 216 0 c 256,48,49
 195 0 195 0 181 15 c 0,50,51
 177 19 177 19 175 22 c 1,52,53
 172 18 172 18 169 15 c 0,54,55
 154 0 154 0 133 0 c 1,56,-1
 133 0 l 1,6,7
50 100 m 1,57,58
 29 100 29 100 15 115 c 0,59,60
 0 130 0 130 0 150 c 256,61,62
 0 172 0 172 15 186 c 0,63,64
 29.0625 200.0625 29.0625 200.0625 47.51953125 200.0625 c 0,65,66
 48.75 200.0625 48.75 200.0625 50 200 c 256,67,68
 71 200 71 200 85 186 c 256,69,70
 100 171 100 171 100 150 c 256,71,72
 100 129 100 129 85 115 c 0,73,74
 70 100 70 100 50 100 c 1,75,-1
 50 100 l 1,57,58
384 100 m 1,76,77
 363 100 363 100 348 115 c 128,-1,78
 333 130 333 130 333 150 c 256,79,80
 333 172 333 172 348 186 c 0,81,82
 362.0625 200.0625 362.0625 200.0625 381.3984375 200.0625 c 0,83,84
 382.6875 200.0625 382.6875 200.0625 384 200 c 0,85,86
 405 200 405 200 419 186 c 128,-1,87
 433.0625 171.9375 433.0625 171.9375 433.0625 152.6015625 c 0,88,89
 433.0625 129.0625 433.0625 129.0625 419 115 c 0,90,91
 404 100 404 100 384 100 c 1,92,-1
 384 100 l 1,76,77
92 222 m 1,93,-1
 92 222 l 1,94,-1
 92 222 l 1,95,-1
 92 222 l 1,96,-1
 92 222 l 1,93,-1
50 200 m 1,97,98
 29 200 29 200 15 214 c 0,99,100
 0 229 0 229 0 250 c 256,101,102
 0 271 0 271 15 285 c 0,103,104
 30 300 30 300 50 300 c 256,105,106
 71 300 71 300 85 285 c 0,107,108
 89 281 89 281 92 278 c 1,109,-1
 92 278 l 1,110,111
 95 282 95 282 98 285 c 0,112,113
 113 300 113 300 133 300 c 256,114,115
 154 300 154 300 169 285 c 0,116,117
 183.0625 270.9375 183.0625 270.9375 183.0625 252.48046875 c 0,118,119
 183.0625 229.066964286 183.0625 229.066964286 169 214 c 0,120,121
 154.9375 199.9375 154.9375 199.9375 135.6015625 199.9375 c 0,122,123
 134.3125 199.9375 134.3125 199.9375 133 200 c 256,124,125
 112 200 112 200 98 214 c 0,126,127
 94 218 94 218 92 222 c 1,128,129
 89 218 89 218 85 214 c 0,130,131
 70.9375 199.9375 70.9375 199.9375 52.48046875 199.9375 c 0,132,133
 51.25 199.9375 51.25 199.9375 50 200 c 1,134,-1
 50 200 l 1,97,98
384 200 m 1,135,136
 363 200 363 200 348 214 c 0,137,138
 333 229 333 229 333 250 c 256,139,140
 333 271 333 271 348 285 c 0,141,142
 363 300 363 300 384 300 c 128,-1,143
 405 300 405 300 419 285 c 0,144,145
 433.0625 270.9375 433.0625 270.9375 433.0625 252.48046875 c 0,146,147
 433.0625 229.066964286 433.0625 229.066964286 419 214 c 0,148,149
 404.9375 199.9375 404.9375 199.9375 386.48046875 199.9375 c 0,150,151
 385.25 199.9375 385.25 199.9375 384 200 c 1,152,-1
 384 200 l 1,135,136
50 300 m 1,153,154
 29 300 29 300 15 314 c 0,155,156
 0 329 0 329 0 350 c 128,-1,157
 0 371 0 371 15 386 c 0,158,159
 29.0625 400.0625 29.0625 400.0625 47.51953125 400.0625 c 0,160,161
 48.75 400.0625 48.75 400.0625 50 400 c 256,162,163
 71 400 71 400 85 386 c 0,164,165
 100 371 100 371 100 350 c 128,-1,166
 100 329 100 329 85 314 c 0,167,168
 70.9375 299.9375 70.9375 299.9375 52.48046875 299.9375 c 0,169,170
 51.25 299.9375 51.25 299.9375 50 300 c 1,171,-1
 50 300 l 1,153,154
216 300 m 1,172,173
 195 300 195 300 181 314 c 128,-1,174
 166.9375 328.0625 166.9375 328.0625 166.9375 347.3984375 c 0,175,176
 166.9375 370.933035714 166.9375 370.933035714 181 386 c 0,177,178
 195.0625 400.0625 195.0625 400.0625 213.51953125 400.0625 c 0,179,180
 214.75 400.0625 214.75 400.0625 216 400 c 256,181,182
 237 400 237 400 252 386 c 0,183,184
 267 371 267 371 267 350 c 128,-1,185
 267 329 267 329 252 314 c 0,186,187
 237.9375 299.9375 237.9375 299.9375 218.6015625 299.9375 c 0,188,189
 217.3125 299.9375 217.3125 299.9375 216 300 c 1,190,-1
 216 300 l 1,172,173
384 300 m 1,191,192
 363 300 363 300 348 314 c 0,193,194
 333 329 333 329 333 350 c 128,-1,195
 333 371 333 371 348 386 c 0,196,197
 362.0625 400.0625 362.0625 400.0625 381.3984375 400.0625 c 0,198,199
 382.6875 400.0625 382.6875 400.0625 384 400 c 0,200,201
 405 400 405 400 419 386 c 128,-1,202
 433.0625 371.9375 433.0625 371.9375 433.0625 352.6015625 c 0,203,204
 433.0625 329.066964286 433.0625 329.066964286 419 314 c 0,205,206
 404.9375 299.9375 404.9375 299.9375 386.48046875 299.9375 c 0,207,208
 385.25 299.9375 385.25 299.9375 384 300 c 1,209,-1
 384 300 l 1,191,192
342 422 m 1,210,-1
 342 422 l 1,211,-1
 342 422 l 1,212,-1
 342 422 l 1,213,-1
 342 422 l 1,210,-1
50 400 m 1,214,215
 29 400 29 400 15 414 c 0,216,217
 0 429 0 429 0 450 c 256,218,219
 0 471 0 471 15 485 c 0,220,221
 30 500 30 500 50 500 c 256,222,223
 71 500 71 500 85 485 c 0,224,225
 100 470 100 470 100 450 c 256,226,227
 100 429 100 429 85 414 c 256,228,229
 70.9375 399.9375 70.9375 399.9375 52.48046875 399.9375 c 0,230,231
 51.25 399.9375 51.25 399.9375 50 400 c 1,232,-1
 50 400 l 1,214,215
300 400 m 1,233,234
 279 400 279 400 265 414 c 256,235,236
 250 429 250 429 250 450 c 256,237,238
 250 471 250 471 265 485 c 0,239,240
 280 500 280 500 300 500 c 256,241,242
 321 500 321 500 335 485 c 0,243,244
 339 481 339 481 342 478 c 1,245,-1
 342 478 l 1,246,247
 345 482 345 482 348 485 c 0,248,249
 363 500 363 500 384 500 c 128,-1,250
 405 500 405 500 419 485 c 0,251,252
 433.0625 470.9375 433.0625 470.9375 433.0625 452.48046875 c 0,253,254
 433.0625 429.066964286 433.0625 429.066964286 419 414 c 0,255,256
 404.9375 399.9375 404.9375 399.9375 386.48046875 399.9375 c 0,257,258
 385.25 399.9375 385.25 399.9375 384 400 c 0,259,260
 363 400 363 400 348 414 c 0,261,262
 344 418 344 418 342 422 c 1,263,264
 339 418 339 418 335 414 c 0,265,266
 320.9375 399.9375 320.9375 399.9375 302.48046875 399.9375 c 0,267,268
 301.25 399.9375 301.25 399.9375 300 400 c 1,269,-1
 300 400 l 1,233,234
50 500 m 1,270,271
 29 500 29 500 15 514 c 0,272,273
 0 529 0 529 0 550 c 256,274,275
 0 571 0 571 15 585 c 0,276,277
 30 600 30 600 50 600 c 256,278,279
 71 600 71 600 85 585 c 0,280,281
 100 570 100 570 100 550 c 256,282,283
 100 528 100 528 85 514 c 256,284,285
 70.9375 499.9375 70.9375 499.9375 52.48046875 499.9375 c 0,286,287
 51.25 499.9375 51.25 499.9375 50 500 c 1,288,-1
 50 500 l 1,270,271
384 500 m 1,289,290
 363 500 363 500 348 514 c 0,291,292
 333 529 333 529 333 550 c 256,293,294
 333 571 333 571 348 585 c 0,295,296
 363 600 363 600 384 600 c 128,-1,297
 405 600 405 600 419 585 c 0,298,299
 433.0625 570.9375 433.0625 570.9375 433.0625 552.48046875 c 0,300,301
 433.0625 528.0625 433.0625 528.0625 419 514 c 128,-1,302
 404.9375 499.9375 404.9375 499.9375 386.48046875 499.9375 c 0,303,304
 385.25 499.9375 385.25 499.9375 384 500 c 1,305,-1
 384 500 l 1,289,290
175 622 m 1,306,-1
 175 622 l 1,307,-1
 175 622 l 1,308,-1
 175 622 l 1,309,-1
 175 622 l 1,306,-1
133 600 m 1,310,311
 112 600 112 600 98 615 c 256,312,313
 83 630 83 630 83 650 c 256,314,315
 83 671 83 671 98 685 c 256,316,317
 113 700 113 700 133 700 c 256,318,319
 154 700 154 700 169 685 c 0,320,321
 173 681 173 681 175 678 c 1,322,-1
 175 678 l 1,323,324
 178 682 178 682 181 685 c 0,325,326
 196 700 196 700 216 700 c 256,327,328
 237 700 237 700 252 685 c 0,329,330
 256 681 256 681 258 678 c 1,331,-1
 258 678 l 1,332,333
 261 682 261 682 265 685 c 0,334,335
 280 700 280 700 300 700 c 256,336,337
 321 700 321 700 335 685 c 0,338,339
 350 670 350 670 350 650 c 256,340,341
 350 629 350 629 335 615 c 0,342,343
 320 600 320 600 300 600 c 256,344,345
 279 600 279 600 265 615 c 0,346,347
 261 619 261 619 258 622 c 1,348,-1
 258 622 l 1,349,350
 255 618 255 618 252 615 c 0,351,352
 237 600 237 600 216 600 c 256,353,354
 195 600 195 600 181 615 c 0,355,356
 177 619 177 619 175 622 c 1,357,358
 172 618 172 618 169 615 c 0,359,360
 154 600 154 600 133 600 c 1,361,-1
 133 600 l 1,310,311
EndSplineSet
Validated: 5
EndChar

StartChar: one
Encoding: 49 49 17
Width: 500
VWidth: 699
Flags: W
LayerCount: 2
Fore
SplineSet
175 22 m 1,0,1
 175 22 l 1,2,-1
 175 22 l 1,3,4
 175 22 l 1,5,-1
 175 22 l 1,0,1
133 0 m 1,6,7
 112 0 112 0 98 15 c 0,8,9
 83 30 83 30 83 50 c 256,10,11
 83 71 83 71 98 85 c 256,12,13
 113 100 113 100 133 100 c 256,14,15
 154 100 154 100 169 85 c 0,16,17
 173 81 173 81 175 78 c 1,18,-1
 175 78 l 1,19,20
 178 82 178 82 181 85 c 0,21,22
 196 100 196 100 216 100 c 256,23,24
 237 100 237 100 252 85 c 0,25,26
 256 81 256 81 258 78 c 1,27,-1
 258 78 l 1,28,29
 261 82 261 82 265 85 c 0,30,31
 280 100 280 100 300 100 c 256,32,33
 321 100 321 100 335 85 c 0,34,35
 350 70 350 70 350 50 c 256,36,37
 350 29 350 29 335 15 c 0,38,39
 320 0 320 0 300 0 c 256,40,41
 279 0 279 0 265 15 c 0,42,43
 261 19 261 19 258 22 c 1,44,45
 255 18 255 18 252 15 c 0,46,47
 237 0 237 0 216 0 c 256,48,49
 195 0 195 0 181 15 c 0,50,51
 177 19 177 19 175 22 c 1,52,53
 172 18 172 18 169 15 c 0,54,55
 154 0 154 0 133 0 c 1,56,-1
 133 0 l 1,6,7
216 100 m 1,57,58
 195 100 195 100 181 115 c 0,59,60
 166.9375 129.0625 166.9375 129.0625 166.9375 147.51953125 c 0,61,62
 166.9375 171.9375 166.9375 171.9375 181 186 c 128,-1,63
 195.0625 200.0625 195.0625 200.0625 213.51953125 200.0625 c 0,64,65
 214.75 200.0625 214.75 200.0625 216 200 c 256,66,67
 237 200 237 200 252 186 c 256,68,69
 267 171 267 171 267 150 c 256,70,71
 267 129 267 129 252 115 c 0,72,73
 237 100 237 100 216 100 c 1,74,-1
 216 100 l 1,57,58
216 200 m 1,75,76
 195 200 195 200 181 214 c 128,-1,77
 166.9375 228.0625 166.9375 228.0625 166.9375 247.3984375 c 0,78,79
 166.9375 270.9375 166.9375 270.9375 181 285 c 0,80,81
 196 300 196 300 216 300 c 256,82,83
 237 300 237 300 252 285 c 256,84,85
 267 270 267 270 267 250 c 256,86,87
 267 229 267 229 252 214 c 0,88,89
 237.9375 199.9375 237.9375 199.9375 218.6015625 199.9375 c 0,90,91
 217.3125 199.9375 217.3125 199.9375 216 200 c 1,92,-1
 216 200 l 1,75,76
216 300 m 1,93,94
 195 300 195 300 181 314 c 128,-1,95
 166.9375 328.0625 166.9375 328.0625 166.9375 347.3984375 c 0,96,97
 166.9375 370.933035714 166.9375 370.933035714 181 386 c 0,98,99
 195.0625 400.0625 195.0625 400.0625 213.51953125 400.0625 c 0,100,101
 214.75 400.0625 214.75 400.0625 216 400 c 256,102,103
 237 400 237 400 252 386 c 0,104,105
 267 371 267 371 267 350 c 128,-1,106
 267 329 267 329 252 314 c 0,107,108
 237.9375 299.9375 237.9375 299.9375 218.6015625 299.9375 c 0,109,110
 217.3125 299.9375 217.3125 299.9375 216 300 c 1,111,-1
 216 300 l 1,93,94
216 400 m 1,112,113
 195 400 195 400 181 414 c 128,-1,114
 166.9375 428.0625 166.9375 428.0625 166.9375 447.3984375 c 0,115,116
 166.9375 470.9375 166.9375 470.9375 181 485 c 0,117,118
 196 500 196 500 216 500 c 256,119,120
 237 500 237 500 252 485 c 128,-1,121
 267 470 267 470 267 450 c 256,122,123
 267 429 267 429 252 414 c 256,124,125
 237.9375 399.9375 237.9375 399.9375 218.6015625 399.9375 c 0,126,127
 217.3125 399.9375 217.3125 399.9375 216 400 c 1,128,-1
 216 400 l 1,112,113
133 500 m 1,129,130
 112 500 112 500 98 514 c 256,131,132
 83 529 83 529 83 550 c 256,133,134
 83 571 83 571 98 585 c 0,135,136
 113 600 113 600 133 600 c 256,137,138
 154 600 154 600 169 585 c 0,139,140
 173 582 173 582 175 578 c 1,141,-1
 175 578 l 1,142,143
 178 582 178 582 181 585 c 0,144,145
 196 600 196 600 216 600 c 256,146,147
 237 600 237 600 252 585 c 128,-1,148
 267 570 267 570 267 550 c 256,149,150
 267 528 267 528 252 514 c 256,151,152
 237.9375 499.9375 237.9375 499.9375 218.6015625 499.9375 c 0,153,154
 217.3125 499.9375 217.3125 499.9375 216 500 c 256,155,156
 195 500 195 500 181 514 c 0,157,158
 177 518 177 518 175 522 c 1,159,-1
 175 522 l 1,160,161
 172 518 172 518 169 514 c 0,162,163
 154.9375 499.9375 154.9375 499.9375 135.6015625 499.9375 c 0,164,165
 134.3125 499.9375 134.3125 499.9375 133 500 c 1,166,-1
 133 500 l 1,129,130
216 600 m 1,167,168
 195 600 195 600 181 615 c 0,169,170
 166.9375 629.0625 166.9375 629.0625 166.9375 647.51953125 c 0,171,172
 166.9375 670.9375 166.9375 670.9375 181 685 c 0,173,174
 196 700 196 700 216 700 c 256,175,176
 237 700 237 700 252 685 c 256,177,178
 267 670 267 670 267 650 c 256,179,180
 267 629 267 629 252 615 c 256,181,182
 237 600 237 600 216 600 c 1,183,-1
 216 600 l 1,167,168
EndSplineSet
Validated: 5
EndChar

StartChar: two
Encoding: 50 50 18
Width: 500
VWidth: 699
Flags: W
LayerCount: 2
Fore
SplineSet
92 22 m 1,0,1
 92 22 l 1,2,-1
 92 22 l 1,3,4
 92 22 l 1,5,-1
 92 22 l 1,0,1
258 22 m 1,6,7
 258 22 l 1,8,-1
 258 22 l 1,9,10
 258 22 l 1,11,-1
 258 22 l 1,6,7
50 0 m 1,12,13
 29 0 29 0 15 15 c 0,14,15
 0 30 0 30 0 50 c 256,16,17
 0 71 0 71 15 85 c 0,18,19
 30 100 30 100 50 100 c 256,20,21
 71 100 71 100 85 85 c 0,22,23
 89 81 89 81 92 78 c 1,24,-1
 92 78 l 1,25,26
 95 82 95 82 98 85 c 0,27,28
 113 100 113 100 133 100 c 256,29,30
 154 100 154 100 169 85 c 0,31,32
 173 81 173 81 175 78 c 1,33,-1
 175 78 l 1,34,35
 178 82 178 82 181 85 c 0,36,37
 196 100 196 100 216 100 c 256,38,39
 237 100 237 100 252 85 c 0,40,41
 256 81 256 81 258 78 c 1,42,-1
 258 78 l 1,43,44
 261 82 261 82 265 85 c 0,45,46
 280 100 280 100 300 100 c 256,47,48
 321 100 321 100 335 85 c 0,49,50
 339 81 339 81 342 78 c 1,51,-1
 342 78 l 1,52,53
 345 82 345 82 348 85 c 0,54,55
 363 100 363 100 384 100 c 128,-1,56
 405 100 405 100 419 85 c 0,57,58
 433.0625 70.9375 433.0625 70.9375 433.0625 52.48046875 c 0,59,60
 433.0625 29.0625 433.0625 29.0625 419 15 c 0,61,62
 404 0 404 0 384 0 c 0,63,64
 363 0 363 0 348 15 c 0,65,66
 344 19 344 19 342 22 c 1,67,-1
 342 22 l 1,68,69
 339 18 339 18 335 15 c 0,70,71
 320 0 320 0 300 0 c 256,72,73
 279 0 279 0 265 15 c 0,74,75
 261 19 261 19 258 22 c 1,76,77
 255 18 255 18 252 15 c 0,78,79
 237 0 237 0 216 0 c 256,80,81
 195 0 195 0 181 15 c 0,82,83
 177 19 177 19 175 22 c 1,84,-1
 175 22 l 1,85,86
 172 18 172 18 169 15 c 0,87,88
 154 0 154 0 133 0 c 256,89,90
 112 0 112 0 98 15 c 0,91,92
 94 19 94 19 92 22 c 1,93,94
 89 18 89 18 85 15 c 0,95,96
 70 0 70 0 50 0 c 1,97,-1
 50 0 l 1,12,13
50 100 m 1,98,99
 29 100 29 100 15 115 c 0,100,101
 0 130 0 130 0 150 c 256,102,103
 0 172 0 172 15 186 c 0,104,105
 29.0625 200.0625 29.0625 200.0625 47.51953125 200.0625 c 0,106,107
 48.75 200.0625 48.75 200.0625 50 200 c 256,108,109
 71 200 71 200 85 186 c 256,110,111
 100 171 100 171 100 150 c 256,112,113
 100 129 100 129 85 115 c 0,114,115
 70 100 70 100 50 100 c 1,116,-1
 50 100 l 1,98,99
133 200 m 1,117,118
 112 200 112 200 98 214 c 0,119,120
 83 229 83 229 83 250 c 256,121,122
 83 271 83 271 98 285 c 256,123,124
 113 300 113 300 133 300 c 256,125,126
 154 300 154 300 169 285 c 0,127,128
 183.0625 270.9375 183.0625 270.9375 183.0625 252.48046875 c 0,129,130
 183.0625 229.066964286 183.0625 229.066964286 169 214 c 0,131,132
 154.9375 199.9375 154.9375 199.9375 135.6015625 199.9375 c 0,133,134
 134.3125 199.9375 134.3125 199.9375 133 200 c 1,135,-1
 133 200 l 1,117,118
216 300 m 1,136,137
 195 300 195 300 181 314 c 128,-1,138
 166.9375 328.0625 166.9375 328.0625 166.9375 347.3984375 c 0,139,140
 166.9375 370.933035714 166.9375 370.933035714 181 386 c 0,141,142
 195.0625 400.0625 195.0625 400.0625 213.51953125 400.0625 c 0,143,144
 214.75 400.0625 214.75 400.0625 216 400 c 256,145,146
 237 400 237 400 252 386 c 0,147,148
 256 382 256 382 258 378 c 1,149,-1
 258 378 l 1,150,151
 261 382 261 382 265 386 c 0,152,153
 279.0625 400.0625 279.0625 400.0625 297.51953125 400.0625 c 0,154,155
 298.75 400.0625 298.75 400.0625 300 400 c 256,156,157
 321 400 321 400 335 386 c 0,158,159
 350 371 350 371 350 350 c 128,-1,160
 350 329 350 329 335 314 c 0,161,162
 320.9375 299.9375 320.9375 299.9375 302.48046875 299.9375 c 0,163,164
 301.25 299.9375 301.25 299.9375 300 300 c 256,165,166
 279 300 279 300 265 314 c 0,167,168
 261 318 261 318 258 322 c 1,169,-1
 258 322 l 1,170,171
 255 318 255 318 252 314 c 0,172,173
 237.9375 299.9375 237.9375 299.9375 218.6015625 299.9375 c 0,174,175
 217.3125 299.9375 217.3125 299.9375 216 300 c 1,176,-1
 216 300 l 1,136,137
384 400 m 1,177,178
 363 400 363 400 348 414 c 0,179,180
 333 429 333 429 333 450 c 256,181,182
 333 471 333 471 348 485 c 0,183,184
 363 500 363 500 384 500 c 128,-1,185
 405 500 405 500 419 485 c 0,186,187
 433.0625 470.9375 433.0625 470.9375 433.0625 452.48046875 c 0,188,189
 433.0625 429.066964286 433.0625 429.066964286 419 414 c 0,190,191
 404.9375 399.9375 404.9375 399.9375 386.48046875 399.9375 c 0,192,193
 385.25 399.9375 385.25 399.9375 384 400 c 1,194,-1
 384 400 l 1,177,178
50 500 m 1,195,196
 29 500 29 500 15 514 c 0,197,198
 0 529 0 529 0 550 c 256,199,200
 0 571 0 571 15 585 c 0,201,202
 30 600 30 600 50 600 c 256,203,204
 71 600 71 600 85 585 c 0,205,206
 100 570 100 570 100 550 c 256,207,208
 100 528 100 528 85 514 c 256,209,210
 70.9375 499.9375 70.9375 499.9375 52.48046875 499.9375 c 0,211,212
 51.25 499.9375 51.25 499.9375 50 500 c 1,213,-1
 50 500 l 1,195,196
384 500 m 1,214,215
 363 500 363 500 348 514 c 0,216,217
 333 529 333 529 333 550 c 256,218,219
 333 571 333 571 348 585 c 0,220,221
 363 600 363 600 384 600 c 128,-1,222
 405 600 405 600 419 585 c 0,223,224
 433.0625 570.9375 433.0625 570.9375 433.0625 552.48046875 c 0,225,226
 433.0625 528.0625 433.0625 528.0625 419 514 c 128,-1,227
 404.9375 499.9375 404.9375 499.9375 386.48046875 499.9375 c 0,228,229
 385.25 499.9375 385.25 499.9375 384 500 c 1,230,-1
 384 500 l 1,214,215
175 622 m 1,231,-1
 175 622 l 1,232,-1
 175 622 l 1,233,-1
 175 622 l 1,234,-1
 175 622 l 1,231,-1
133 600 m 1,235,236
 112 600 112 600 98 615 c 256,237,238
 83 630 83 630 83 650 c 256,239,240
 83 671 83 671 98 685 c 256,241,242
 113 700 113 700 133 700 c 256,243,244
 154 700 154 700 169 685 c 0,245,246
 173 681 173 681 175 678 c 1,247,-1
 175 678 l 1,248,249
 178 682 178 682 181 685 c 0,250,251
 196 700 196 700 216 700 c 256,252,253
 237 700 237 700 252 685 c 0,254,255
 256 681 256 681 258 678 c 1,256,-1
 258 678 l 1,257,258
 261 682 261 682 265 685 c 0,259,260
 280 700 280 700 300 700 c 256,261,262
 321 700 321 700 335 685 c 0,263,264
 350 670 350 670 350 650 c 256,265,266
 350 629 350 629 335 615 c 0,267,268
 320 600 320 600 300 600 c 256,269,270
 279 600 279 600 265 615 c 0,271,272
 261 619 261 619 258 622 c 1,273,-1
 258 622 l 1,274,275
 255 618 255 618 252 615 c 0,276,277
 237 600 237 600 216 600 c 256,278,279
 195 600 195 600 181 615 c 0,280,281
 177 619 177 619 175 622 c 1,282,-1
 175 622 l 1,283,284
 172 618 172 618 169 615 c 0,285,286
 154 600 154 600 133 600 c 1,287,-1
 133 600 l 1,235,236
EndSplineSet
Validated: 5
EndChar

StartChar: three
Encoding: 51 51 19
Width: 500
VWidth: 699
Flags: W
LayerCount: 2
Fore
SplineSet
175 22 m 1,0,1
 175 22 l 1,2,-1
 175 22 l 1,3,4
 175 22 l 1,5,-1
 175 22 l 1,0,1
133 0 m 1,6,7
 112 0 112 0 98 15 c 0,8,9
 83 30 83 30 83 50 c 256,10,11
 83 71 83 71 98 85 c 256,12,13
 113 100 113 100 133 100 c 256,14,15
 154 100 154 100 169 85 c 0,16,17
 173 81 173 81 175 78 c 1,18,-1
 175 78 l 1,19,20
 178 82 178 82 181 85 c 0,21,22
 196 100 196 100 216 100 c 256,23,24
 237 100 237 100 252 85 c 0,25,26
 256 81 256 81 258 78 c 1,27,-1
 258 78 l 1,28,29
 261 82 261 82 265 85 c 0,30,31
 280 100 280 100 300 100 c 256,32,33
 321 100 321 100 335 85 c 0,34,35
 350 70 350 70 350 50 c 256,36,37
 350 29 350 29 335 15 c 0,38,39
 320 0 320 0 300 0 c 256,40,41
 279 0 279 0 265 15 c 0,42,43
 261 19 261 19 258 22 c 1,44,45
 255 18 255 18 252 15 c 0,46,47
 237 0 237 0 216 0 c 256,48,49
 195 0 195 0 181 15 c 0,50,51
 177 19 177 19 175 22 c 1,52,53
 172 18 172 18 169 15 c 0,54,55
 154 0 154 0 133 0 c 1,56,-1
 133 0 l 1,6,7
50 100 m 1,57,58
 29 100 29 100 15 115 c 0,59,60
 0 130 0 130 0 150 c 256,61,62
 0 172 0 172 15 186 c 0,63,64
 29.0625 200.0625 29.0625 200.0625 47.51953125 200.0625 c 0,65,66
 48.75 200.0625 48.75 200.0625 50 200 c 256,67,68
 71 200 71 200 85 186 c 256,69,70
 100 171 100 171 100 150 c 256,71,72
 100 129 100 129 85 115 c 0,73,74
 70 100 70 100 50 100 c 1,75,-1
 50 100 l 1,57,58
384 100 m 1,76,77
 363 100 363 100 348 115 c 128,-1,78
 333 130 333 130 333 150 c 256,79,80
 333 172 333 172 348 186 c 0,81,82
 362.0625 200.0625 362.0625 200.0625 381.3984375 200.0625 c 0,83,84
 382.6875 200.0625 382.6875 200.0625 384 200 c 0,85,86
 405 200 405 200 419 186 c 128,-1,87
 433.0625 171.9375 433.0625 171.9375 433.0625 152.6015625 c 0,88,89
 433.0625 129.0625 433.0625 129.0625 419 115 c 0,90,91
 404 100 404 100 384 100 c 1,92,-1
 384 100 l 1,76,77
384 200 m 1,93,94
 363 200 363 200 348 214 c 0,95,96
 333 229 333 229 333 250 c 256,97,98
 333 271 333 271 348 285 c 0,99,100
 363 300 363 300 384 300 c 128,-1,101
 405 300 405 300 419 285 c 0,102,103
 433.0625 270.9375 433.0625 270.9375 433.0625 252.48046875 c 0,104,105
 433.0625 229.066964286 433.0625 229.066964286 419 214 c 0,106,107
 404.9375 199.9375 404.9375 199.9375 386.48046875 199.9375 c 0,108,109
 385.25 199.9375 385.25 199.9375 384 200 c 1,110,-1
 384 200 l 1,93,94
258 322 m 1,111,-1
 258 322 l 1,112,-1
 258 322 l 1,113,-1
 258 322 l 1,114,-1
 258 322 l 1,111,-1
216 300 m 1,115,116
 195 300 195 300 181 314 c 128,-1,117
 166.9375 328.0625 166.9375 328.0625 166.9375 347.3984375 c 0,118,119
 166.9375 370.933035714 166.9375 370.933035714 181 386 c 0,120,121
 195.0625 400.0625 195.0625 400.0625 213.51953125 400.0625 c 0,122,123
 214.75 400.0625 214.75 400.0625 216 400 c 256,124,125
 237 400 237 400 252 386 c 0,126,127
 256 382 256 382 258 378 c 1,128,-1
 258 378 l 1,129,130
 261 382 261 382 265 386 c 0,131,132
 279.0625 400.0625 279.0625 400.0625 297.51953125 400.0625 c 0,133,134
 298.75 400.0625 298.75 400.0625 300 400 c 256,135,136
 321 400 321 400 335 386 c 0,137,138
 350 371 350 371 350 350 c 128,-1,139
 350 329 350 329 335 314 c 0,140,141
 320.9375 299.9375 320.9375 299.9375 302.48046875 299.9375 c 0,142,143
 301.25 299.9375 301.25 299.9375 300 300 c 256,144,145
 279 300 279 300 265 314 c 0,146,147
 261 318 261 318 258 322 c 1,148,-1
 258 322 l 1,149,150
 255 318 255 318 252 314 c 0,151,152
 237.9375 299.9375 237.9375 299.9375 218.6015625 299.9375 c 0,153,154
 217.3125 299.9375 217.3125 299.9375 216 300 c 1,155,-1
 216 300 l 1,115,116
300 400 m 1,156,157
 279 400 279 400 265 414 c 256,158,159
 250 429 250 429 250 450 c 256,160,161
 250 471 250 471 265 485 c 0,162,163
 280 500 280 500 300 500 c 256,164,165
 321 500 321 500 335 485 c 0,166,167
 350 470 350 470 350 450 c 256,168,169
 350 429 350 429 335 414 c 0,170,171
 320.9375 399.9375 320.9375 399.9375 302.48046875 399.9375 c 0,172,173
 301.25 399.9375 301.25 399.9375 300 400 c 1,174,-1
 300 400 l 1,156,157
384 500 m 1,175,176
 363 500 363 500 348 514 c 0,177,178
 333 529 333 529 333 550 c 256,179,180
 333 571 333 571 348 585 c 0,181,182
 363 600 363 600 384 600 c 128,-1,183
 405 600 405 600 419 585 c 0,184,185
 433.0625 570.9375 433.0625 570.9375 433.0625 552.48046875 c 0,186,187
 433.0625 528.0625 433.0625 528.0625 419 514 c 128,-1,188
 404.9375 499.9375 404.9375 499.9375 386.48046875 499.9375 c 0,189,190
 385.25 499.9375 385.25 499.9375 384 500 c 1,191,-1
 384 500 l 1,175,176
92 622 m 1,192,-1
 92 622 l 1,193,-1
 92 622 l 1,194,-1
 92 622 l 1,195,-1
 92 622 l 1,192,-1
258 622 m 1,196,-1
 258 622 l 1,197,-1
 258 622 l 1,198,-1
 258 622 l 1,199,-1
 258 622 l 1,196,-1
50 600 m 1,200,201
 29 600 29 600 15 615 c 0,202,203
 0 630 0 630 0 650 c 256,204,205
 0 671 0 671 15 685 c 0,206,207
 30 700 30 700 50 700 c 256,208,209
 71 700 71 700 85 685 c 0,210,211
 89 681 89 681 92 678 c 1,212,-1
 92 678 l 1,213,214
 95 682 95 682 98 685 c 0,215,216
 113 700 113 700 133 700 c 256,217,218
 154 700 154 700 169 685 c 0,219,220
 173 681 173 681 175 678 c 1,221,-1
 175 678 l 1,222,223
 178 682 178 682 181 685 c 0,224,225
 196 700 196 700 216 700 c 256,226,227
 237 700 237 700 252 685 c 0,228,229
 256 681 256 681 258 678 c 1,230,-1
 258 678 l 1,231,232
 261 682 261 682 265 685 c 0,233,234
 280 700 280 700 300 700 c 256,235,236
 321 700 321 700 335 685 c 0,237,238
 339 681 339 681 342 678 c 1,239,-1
 342 678 l 1,240,241
 345 682 345 682 348 685 c 0,242,243
 363 700 363 700 384 700 c 128,-1,244
 405 700 405 700 419 685 c 0,245,246
 433.0625 670.9375 433.0625 670.9375 433.0625 652.48046875 c 0,247,248
 433.0625 629.0625 433.0625 629.0625 419 615 c 0,249,250
 404 600 404 600 384 600 c 0,251,252
 363 600 363 600 348 615 c 0,253,254
 344 619 344 619 342 622 c 1,255,256
 339 618 339 618 335 615 c 0,257,258
 320 600 320 600 300 600 c 256,259,260
 279 600 279 600 265 615 c 0,261,262
 261 619 261 619 258 622 c 1,263,-1
 258 622 l 1,264,265
 255 618 255 618 252 615 c 0,266,267
 237 600 237 600 216 600 c 256,268,269
 195 600 195 600 181 615 c 0,270,271
 177 619 177 619 175 622 c 1,272,273
 172 618 172 618 169 615 c 0,274,275
 154 600 154 600 133 600 c 256,276,277
 112 600 112 600 98 615 c 0,278,279
 94 619 94 619 92 622 c 1,280,281
 89 618 89 618 85 615 c 0,282,283
 70 600 70 600 50 600 c 1,284,-1
 50 600 l 1,200,201
EndSplineSet
Validated: 5
EndChar

StartChar: four
Encoding: 52 52 20
Width: 500
VWidth: 699
Flags: W
LayerCount: 2
Fore
SplineSet
300 0 m 1,0,1
 279 0 279 0 265 15 c 0,2,3
 250 30 250 30 250 50 c 256,4,5
 250 71 250 71 265 85 c 256,6,7
 280 100 280 100 300 100 c 256,8,9
 321 100 321 100 335 85 c 0,10,11
 350 70 350 70 350 50 c 256,12,13
 350 29 350 29 335 15 c 0,14,15
 320 0 320 0 300 0 c 1,16,-1
 300 0 l 1,0,1
300 100 m 1,17,18
 279 100 279 100 265 115 c 0,19,20
 250 130 250 130 250 150 c 256,21,22
 250 172 250 172 265 186 c 256,23,24
 279.0625 200.0625 279.0625 200.0625 297.51953125 200.0625 c 0,25,26
 298.75 200.0625 298.75 200.0625 300 200 c 256,27,28
 321 200 321 200 335 186 c 0,29,30
 350 171 350 171 350 150 c 256,31,32
 350 129 350 129 335 115 c 0,33,34
 320 100 320 100 300 100 c 1,35,-1
 300 100 l 1,17,18
92 222 m 1,36,-1
 92 222 l 1,37,-1
 92 222 l 1,38,-1
 92 222 l 1,39,-1
 92 222 l 1,36,-1
258 222 m 1,40,41
 258 222 l 1,42,-1
 258 222 l 1,43,44
 258 222 l 1,45,-1
 258 222 l 1,40,41
50 200 m 1,46,47
 29 200 29 200 15 214 c 0,48,49
 0 229 0 229 0 250 c 256,50,51
 0 271 0 271 15 285 c 0,52,53
 30 300 30 300 50 300 c 256,54,55
 71 300 71 300 85 285 c 0,56,57
 89 281 89 281 92 278 c 1,58,-1
 92 278 l 1,59,60
 95 282 95 282 98 285 c 0,61,62
 113 300 113 300 133 300 c 256,63,64
 154 300 154 300 169 285 c 0,65,66
 173 281 173 281 175 278 c 1,67,-1
 175 278 l 1,68,69
 178 282 178 282 181 285 c 0,70,71
 196 300 196 300 216 300 c 256,72,73
 237 300 237 300 252 285 c 0,74,75
 256 281 256 281 258 278 c 1,76,-1
 258 278 l 1,77,78
 261 282 261 282 265 285 c 0,79,80
 280 300 280 300 300 300 c 256,81,82
 321 300 321 300 335 285 c 0,83,84
 339 281 339 281 342 278 c 1,85,-1
 342 278 l 1,86,87
 345 282 345 282 348 285 c 0,88,89
 363 300 363 300 384 300 c 128,-1,90
 405 300 405 300 419 285 c 0,91,92
 433.0625 270.9375 433.0625 270.9375 433.0625 252.48046875 c 0,93,94
 433.0625 229.066964286 433.0625 229.066964286 419 214 c 0,95,96
 404.9375 199.9375 404.9375 199.9375 386.48046875 199.9375 c 0,97,98
 385.25 199.9375 385.25 199.9375 384 200 c 0,99,100
 363 200 363 200 348 214 c 0,101,102
 344 218 344 218 342 222 c 1,103,104
 339 218 339 218 335 214 c 0,105,106
 320.9375 199.9375 320.9375 199.9375 302.48046875 199.9375 c 0,107,108
 301.25 199.9375 301.25 199.9375 300 200 c 256,109,110
 279 200 279 200 265 214 c 0,111,112
 261 218 261 218 258 222 c 1,113,-1
 258 222 l 1,114,115
 255 218 255 218 252 214 c 0,116,117
 237.9375 199.9375 237.9375 199.9375 218.6015625 199.9375 c 0,118,119
 217.3125 199.9375 217.3125 199.9375 216 200 c 256,120,121
 195 200 195 200 181 214 c 0,122,123
 177 218 177 218 175 222 c 1,124,125
 172 218 172 218 169 214 c 0,126,127
 154.9375 199.9375 154.9375 199.9375 135.6015625 199.9375 c 0,128,129
 134.3125 199.9375 134.3125 199.9375 133 200 c 256,130,131
 112 200 112 200 98 214 c 0,132,133
 94 218 94 218 92 222 c 1,134,135
 89 218 89 218 85 214 c 0,136,137
 70.9375 199.9375 70.9375 199.9375 52.48046875 199.9375 c 0,138,139
 51.25 199.9375 51.25 199.9375 50 200 c 1,140,-1
 50 200 l 1,46,47
50 300 m 1,141,142
 29 300 29 300 15 314 c 0,143,144
 0 329 0 329 0 350 c 128,-1,145
 0 371 0 371 15 386 c 0,146,147
 29.0625 400.0625 29.0625 400.0625 47.51953125 400.0625 c 0,148,149
 48.75 400.0625 48.75 400.0625 50 400 c 256,150,151
 71 400 71 400 85 386 c 0,152,153
 100 371 100 371 100 350 c 128,-1,154
 100 329 100 329 85 314 c 0,155,156
 70.9375 299.9375 70.9375 299.9375 52.48046875 299.9375 c 0,157,158
 51.25 299.9375 51.25 299.9375 50 300 c 1,159,-1
 50 300 l 1,141,142
300 300 m 1,160,161
 279 300 279 300 265 314 c 0,162,163
 250 329 250 329 250 350 c 128,-1,164
 250 371 250 371 265 386 c 0,165,166
 279.0625 400.0625 279.0625 400.0625 297.51953125 400.0625 c 0,167,168
 298.75 400.0625 298.75 400.0625 300 400 c 256,169,170
 321 400 321 400 335 386 c 0,171,172
 350 371 350 371 350 350 c 128,-1,173
 350 329 350 329 335 314 c 0,174,175
 320.9375 299.9375 320.9375 299.9375 302.48046875 299.9375 c 0,176,177
 301.25 299.9375 301.25 299.9375 300 300 c 1,178,-1
 300 300 l 1,160,161
133 400 m 1,179,180
 112 400 112 400 98 414 c 256,181,182
 83 429 83 429 83 450 c 256,183,184
 83 471 83 471 98 485 c 0,185,186
 113 500 113 500 133 500 c 256,187,188
 154 500 154 500 169 485 c 0,189,190
 183.0625 470.9375 183.0625 470.9375 183.0625 452.48046875 c 0,191,192
 183.0625 429.066964286 183.0625 429.066964286 169 414 c 0,193,194
 154.9375 399.9375 154.9375 399.9375 135.6015625 399.9375 c 0,195,196
 134.3125 399.9375 134.3125 399.9375 133 400 c 1,197,-1
 133 400 l 1,179,180
300 400 m 1,198,199
 279 400 279 400 265 414 c 256,200,201
 250 429 250 429 250 450 c 256,202,203
 250 471 250 471 265 485 c 0,204,205
 280 500 280 500 300 500 c 256,206,207
 321 500 321 500 335 485 c 0,208,209
 350 470 350 470 350 450 c 256,210,211
 350 429 350 429 335 414 c 0,212,213
 320.9375 399.9375 320.9375 399.9375 302.48046875 399.9375 c 0,214,215
 301.25 399.9375 301.25 399.9375 300 400 c 1,216,-1
 300 400 l 1,198,199
258 522 m 1,217,-1
 258 522 l 1,218,-1
 258 522 l 1,219,-1
 258 522 l 1,220,-1
 258 522 l 1,217,-1
216 500 m 1,221,222
 195 500 195 500 181 514 c 128,-1,223
 166.9375 528.0625 166.9375 528.0625 166.9375 547.3984375 c 0,224,225
 166.9375 570.9375 166.9375 570.9375 181 585 c 0,226,227
 196 600 196 600 216 600 c 256,228,229
 237 600 237 600 252 585 c 0,230,231
 256 582 256 582 258 578 c 1,232,-1
 258 578 l 1,233,234
 261 582 261 582 265 585 c 0,235,236
 280 600 280 600 300 600 c 256,237,238
 321 600 321 600 335 585 c 0,239,240
 350 570 350 570 350 550 c 256,241,242
 350 528 350 528 335 514 c 0,243,244
 320.9375 499.9375 320.9375 499.9375 302.48046875 499.9375 c 0,245,246
 301.25 499.9375 301.25 499.9375 300 500 c 256,247,248
 279 500 279 500 265 514 c 0,249,250
 261 518 261 518 258 522 c 1,251,-1
 258 522 l 1,252,253
 255 518 255 518 252 514 c 0,254,255
 237.9375 499.9375 237.9375 499.9375 218.6015625 499.9375 c 0,256,257
 217.3125 499.9375 217.3125 499.9375 216 500 c 1,258,-1
 216 500 l 1,221,222
300 600 m 1,259,260
 279 600 279 600 265 615 c 256,261,262
 250 630 250 630 250 650 c 256,263,264
 250 671 250 671 265 685 c 256,265,266
 280 700 280 700 300 700 c 256,267,268
 321 700 321 700 335 685 c 0,269,270
 350 670 350 670 350 650 c 256,271,272
 350 629 350 629 335 615 c 0,273,274
 320 600 320 600 300 600 c 1,275,-1
 300 600 l 1,259,260
EndSplineSet
Validated: 5
EndChar

StartChar: five
Encoding: 53 53 21
Width: 500
VWidth: 699
Flags: W
LayerCount: 2
Fore
SplineSet
175 22 m 1,0,1
 175 22 l 1,2,-1
 175 22 l 1,3,4
 175 22 l 1,5,-1
 175 22 l 1,0,1
133 0 m 1,6,7
 112 0 112 0 98 15 c 0,8,9
 83 30 83 30 83 50 c 256,10,11
 83 71 83 71 98 85 c 256,12,13
 113 100 113 100 133 100 c 256,14,15
 154 100 154 100 169 85 c 0,16,17
 173 81 173 81 175 78 c 1,18,-1
 175 78 l 1,19,20
 178 82 178 82 181 85 c 0,21,22
 196 100 196 100 216 100 c 256,23,24
 237 100 237 100 252 85 c 0,25,26
 256 81 256 81 258 78 c 1,27,-1
 258 78 l 1,28,29
 261 82 261 82 265 85 c 0,30,31
 280 100 280 100 300 100 c 256,32,33
 321 100 321 100 335 85 c 0,34,35
 350 70 350 70 350 50 c 256,36,37
 350 29 350 29 335 15 c 0,38,39
 320 0 320 0 300 0 c 256,40,41
 279 0 279 0 265 15 c 0,42,43
 261 19 261 19 258 22 c 1,44,45
 255 18 255 18 252 15 c 0,46,47
 237 0 237 0 216 0 c 256,48,49
 195 0 195 0 181 15 c 0,50,51
 177 19 177 19 175 22 c 1,52,53
 172 18 172 18 169 15 c 0,54,55
 154 0 154 0 133 0 c 1,56,-1
 133 0 l 1,6,7
50 100 m 1,57,58
 29 100 29 100 15 115 c 0,59,60
 0 130 0 130 0 150 c 256,61,62
 0 172 0 172 15 186 c 0,63,64
 29.0625 200.0625 29.0625 200.0625 47.51953125 200.0625 c 0,65,66
 48.75 200.0625 48.75 200.0625 50 200 c 256,67,68
 71 200 71 200 85 186 c 256,69,70
 100 171 100 171 100 150 c 256,71,72
 100 129 100 129 85 115 c 0,73,74
 70 100 70 100 50 100 c 1,75,-1
 50 100 l 1,57,58
384 100 m 1,76,77
 363 100 363 100 348 115 c 128,-1,78
 333 130 333 130 333 150 c 256,79,80
 333 172 333 172 348 186 c 0,81,82
 362.0625 200.0625 362.0625 200.0625 381.3984375 200.0625 c 0,83,84
 382.6875 200.0625 382.6875 200.0625 384 200 c 0,85,86
 405 200 405 200 419 186 c 128,-1,87
 433.0625 171.9375 433.0625 171.9375 433.0625 152.6015625 c 0,88,89
 433.0625 129.0625 433.0625 129.0625 419 115 c 0,90,91
 404 100 404 100 384 100 c 1,92,-1
 384 100 l 1,76,77
384 200 m 1,93,94
 363 200 363 200 348 214 c 0,95,96
 333 229 333 229 333 250 c 256,97,98
 333 271 333 271 348 285 c 0,99,100
 363 300 363 300 384 300 c 128,-1,101
 405 300 405 300 419 285 c 0,102,103
 433.0625 270.9375 433.0625 270.9375 433.0625 252.48046875 c 0,104,105
 433.0625 229.066964286 433.0625 229.066964286 419 214 c 0,106,107
 404.9375 199.9375 404.9375 199.9375 386.48046875 199.9375 c 0,108,109
 385.25 199.9375 385.25 199.9375 384 200 c 1,110,-1
 384 200 l 1,93,94
384 300 m 1,111,112
 363 300 363 300 348 314 c 0,113,114
 333 329 333 329 333 350 c 128,-1,115
 333 371 333 371 348 386 c 0,116,117
 362.0625 400.0625 362.0625 400.0625 381.3984375 400.0625 c 0,118,119
 382.6875 400.0625 382.6875 400.0625 384 400 c 0,120,121
 405 400 405 400 419 386 c 128,-1,122
 433.0625 371.9375 433.0625 371.9375 433.0625 352.6015625 c 0,123,124
 433.0625 329.066964286 433.0625 329.066964286 419 314 c 0,125,126
 404.9375 299.9375 404.9375 299.9375 386.48046875 299.9375 c 0,127,128
 385.25 299.9375 385.25 299.9375 384 300 c 1,129,-1
 384 300 l 1,111,112
175 422 m 1,130,-1
 175 422 l 1,131,-1
 175 422 l 1,132,-1
 175 422 l 1,133,-1
 175 422 l 1,130,-1
50 400 m 1,134,135
 29 400 29 400 15 414 c 0,136,137
 0 429 0 429 0 450 c 256,138,139
 0 471 0 471 15 485 c 0,140,141
 30 500 30 500 50 500 c 256,142,143
 71 500 71 500 85 485 c 0,144,145
 89 481 89 481 92 478 c 1,146,-1
 92 478 l 1,147,148
 95 482 95 482 98 485 c 0,149,150
 113 500 113 500 133 500 c 256,151,152
 154 500 154 500 169 485 c 0,153,154
 173 481 173 481 175 478 c 1,155,-1
 175 478 l 1,156,157
 178 482 178 482 181 485 c 0,158,159
 196 500 196 500 216 500 c 256,160,161
 237 500 237 500 252 485 c 0,162,163
 256 481 256 481 258 478 c 1,164,-1
 258 478 l 1,165,166
 261 482 261 482 265 485 c 0,167,168
 280 500 280 500 300 500 c 256,169,170
 321 500 321 500 335 485 c 0,171,172
 350 470 350 470 350 450 c 256,173,174
 350 429 350 429 335 414 c 0,175,176
 320.9375 399.9375 320.9375 399.9375 302.48046875 399.9375 c 0,177,178
 301.25 399.9375 301.25 399.9375 300 400 c 256,179,180
 279 400 279 400 265 414 c 0,181,182
 261 418 261 418 258 422 c 1,183,-1
 258 422 l 1,184,185
 255 418 255 418 252 414 c 0,186,187
 237.9375 399.9375 237.9375 399.9375 218.6015625 399.9375 c 0,188,189
 217.3125 399.9375 217.3125 399.9375 216 400 c 256,190,191
 195 400 195 400 181 414 c 0,192,193
 177 418 177 418 175 422 c 1,194,-1
 175 422 l 1,195,196
 172 418 172 418 169 414 c 0,197,198
 154.9375 399.9375 154.9375 399.9375 135.6015625 399.9375 c 0,199,200
 134.3125 399.9375 134.3125 399.9375 133 400 c 256,201,202
 112 400 112 400 98 414 c 0,203,204
 94 418 94 418 92 422 c 1,205,-1
 92 422 l 1,206,207
 89 418 89 418 85 414 c 0,208,209
 70.9375 399.9375 70.9375 399.9375 52.48046875 399.9375 c 0,210,211
 51.25 399.9375 51.25 399.9375 50 400 c 1,212,-1
 50 400 l 1,134,135
50 500 m 1,213,214
 29 500 29 500 15 514 c 0,215,216
 0 529 0 529 0 550 c 256,217,218
 0 571 0 571 15 585 c 0,219,220
 30 600 30 600 50 600 c 256,221,222
 71 600 71 600 85 585 c 0,223,224
 100 570 100 570 100 550 c 256,225,226
 100 528 100 528 85 514 c 256,227,228
 70.9375 499.9375 70.9375 499.9375 52.48046875 499.9375 c 0,229,230
 51.25 499.9375 51.25 499.9375 50 500 c 1,231,-1
 50 500 l 1,213,214
92 622 m 1,232,-1
 92 622 l 1,233,-1
 92 622 l 1,234,-1
 92 622 l 1,235,-1
 92 622 l 1,232,-1
258 622 m 1,236,-1
 258 622 l 1,237,-1
 258 622 l 1,238,-1
 258 622 l 1,239,-1
 258 622 l 1,236,-1
50 600 m 1,240,241
 29 600 29 600 15 615 c 0,242,243
 0 630 0 630 0 650 c 256,244,245
 0 671 0 671 15 685 c 0,246,247
 30 700 30 700 50 700 c 256,248,249
 71 700 71 700 85 685 c 0,250,251
 89 681 89 681 92 678 c 1,252,-1
 92 678 l 1,253,254
 95 682 95 682 98 685 c 0,255,256
 113 700 113 700 133 700 c 256,257,258
 154 700 154 700 169 685 c 0,259,260
 173 681 173 681 175 678 c 1,261,-1
 175 678 l 1,262,263
 178 682 178 682 181 685 c 0,264,265
 196 700 196 700 216 700 c 256,266,267
 237 700 237 700 252 685 c 0,268,269
 256 681 256 681 258 678 c 1,270,-1
 258 678 l 1,271,272
 261 682 261 682 265 685 c 0,273,274
 280 700 280 700 300 700 c 256,275,276
 321 700 321 700 335 685 c 0,277,278
 339 681 339 681 342 678 c 1,279,-1
 342 678 l 1,280,281
 345 682 345 682 348 685 c 0,282,283
 363 700 363 700 384 700 c 128,-1,284
 405 700 405 700 419 685 c 0,285,286
 433.0625 670.9375 433.0625 670.9375 433.0625 652.48046875 c 0,287,288
 433.0625 629.0625 433.0625 629.0625 419 615 c 0,289,290
 404 600 404 600 384 600 c 0,291,292
 363 600 363 600 348 615 c 0,293,294
 344 619 344 619 342 622 c 1,295,-1
 342 622 l 1,296,297
 339 618 339 618 335 615 c 0,298,299
 320 600 320 600 300 600 c 256,300,301
 279 600 279 600 265 615 c 0,302,303
 261 619 261 619 258 622 c 1,304,-1
 258 622 l 1,305,306
 255 618 255 618 252 615 c 0,307,308
 237 600 237 600 216 600 c 256,309,310
 195 600 195 600 181 615 c 0,311,312
 177 619 177 619 175 622 c 1,313,-1
 175 622 l 1,314,315
 172 618 172 618 169 615 c 0,316,317
 154 600 154 600 133 600 c 256,318,319
 112 600 112 600 98 615 c 0,320,321
 94 619 94 619 92 622 c 1,322,323
 89 618 89 618 85 615 c 0,324,325
 70 600 70 600 50 600 c 1,326,-1
 50 600 l 1,240,241
EndSplineSet
Validated: 5
EndChar

StartChar: six
Encoding: 54 54 22
Width: 500
VWidth: 699
Flags: W
LayerCount: 2
Fore
SplineSet
175 22 m 1,0,1
 175 22 l 1,2,-1
 175 22 l 1,3,4
 175 22 l 1,5,-1
 175 22 l 1,0,1
133 0 m 1,6,7
 112 0 112 0 98 15 c 0,8,9
 83 30 83 30 83 50 c 256,10,11
 83 71 83 71 98 85 c 256,12,13
 113 100 113 100 133 100 c 256,14,15
 154 100 154 100 169 85 c 0,16,17
 173 81 173 81 175 78 c 1,18,-1
 175 78 l 1,19,20
 178 82 178 82 181 85 c 0,21,22
 196 100 196 100 216 100 c 256,23,24
 237 100 237 100 252 85 c 0,25,26
 256 81 256 81 258 78 c 1,27,-1
 258 78 l 1,28,29
 261 82 261 82 265 85 c 0,30,31
 280 100 280 100 300 100 c 256,32,33
 321 100 321 100 335 85 c 0,34,35
 350 70 350 70 350 50 c 256,36,37
 350 29 350 29 335 15 c 0,38,39
 320 0 320 0 300 0 c 256,40,41
 279 0 279 0 265 15 c 0,42,43
 261 19 261 19 258 22 c 1,44,45
 255 18 255 18 252 15 c 0,46,47
 237 0 237 0 216 0 c 256,48,49
 195 0 195 0 181 15 c 0,50,51
 177 19 177 19 175 22 c 1,52,53
 172 18 172 18 169 15 c 0,54,55
 154 0 154 0 133 0 c 1,56,-1
 133 0 l 1,6,7
50 100 m 1,57,58
 29 100 29 100 15 115 c 0,59,60
 0 130 0 130 0 150 c 256,61,62
 0 172 0 172 15 186 c 0,63,64
 29.0625 200.0625 29.0625 200.0625 47.51953125 200.0625 c 0,65,66
 48.75 200.0625 48.75 200.0625 50 200 c 256,67,68
 71 200 71 200 85 186 c 256,69,70
 100 171 100 171 100 150 c 256,71,72
 100 129 100 129 85 115 c 0,73,74
 70 100 70 100 50 100 c 1,75,-1
 50 100 l 1,57,58
384 100 m 1,76,77
 363 100 363 100 348 115 c 128,-1,78
 333 130 333 130 333 150 c 256,79,80
 333 172 333 172 348 186 c 0,81,82
 362.0625 200.0625 362.0625 200.0625 381.3984375 200.0625 c 0,83,84
 382.6875 200.0625 382.6875 200.0625 384 200 c 0,85,86
 405 200 405 200 419 186 c 128,-1,87
 433.0625 171.9375 433.0625 171.9375 433.0625 152.6015625 c 0,88,89
 433.0625 129.0625 433.0625 129.0625 419 115 c 0,90,91
 404 100 404 100 384 100 c 1,92,-1
 384 100 l 1,76,77
50 200 m 1,93,94
 29 200 29 200 15 214 c 0,95,96
 0 229 0 229 0 250 c 256,97,98
 0 271 0 271 15 285 c 0,99,100
 30 300 30 300 50 300 c 256,101,102
 71 300 71 300 85 285 c 256,103,104
 100 270 100 270 100 250 c 256,105,106
 100 229 100 229 85 214 c 0,107,108
 70.9375 199.9375 70.9375 199.9375 52.48046875 199.9375 c 0,109,110
 51.25 199.9375 51.25 199.9375 50 200 c 1,111,-1
 50 200 l 1,93,94
384 200 m 1,112,113
 363 200 363 200 348 214 c 0,114,115
 333 229 333 229 333 250 c 256,116,117
 333 271 333 271 348 285 c 0,118,119
 363 300 363 300 384 300 c 128,-1,120
 405 300 405 300 419 285 c 0,121,122
 433.0625 270.9375 433.0625 270.9375 433.0625 252.48046875 c 0,123,124
 433.0625 229.066964286 433.0625 229.066964286 419 214 c 0,125,126
 404.9375 199.9375 404.9375 199.9375 386.48046875 199.9375 c 0,127,128
 385.25 199.9375 385.25 199.9375 384 200 c 1,129,-1
 384 200 l 1,112,113
175 322 m 1,130,-1
 175 322 l 1,131,-1
 175 322 l 1,132,-1
 175 322 l 1,133,-1
 175 322 l 1,130,-1
50 300 m 1,134,135
 29 300 29 300 15 314 c 0,136,137
 0 329 0 329 0 350 c 128,-1,138
 0 371 0 371 15 386 c 0,139,140
 29.0625 400.0625 29.0625 400.0625 47.51953125 400.0625 c 0,141,142
 48.75 400.0625 48.75 400.0625 50 400 c 256,143,144
 71 400 71 400 85 386 c 0,145,146
 89 382 89 382 92 378 c 1,147,-1
 92 378 l 1,148,149
 95 382 95 382 98 386 c 0,150,151
 112.0625 400.0625 112.0625 400.0625 130.51953125 400.0625 c 0,152,153
 131.75 400.0625 131.75 400.0625 133 400 c 256,154,155
 154 400 154 400 169 386 c 0,156,157
 173 382 173 382 175 378 c 1,158,-1
 175 378 l 1,159,160
 178 382 178 382 181 386 c 0,161,162
 195.0625 400.0625 195.0625 400.0625 213.51953125 400.0625 c 0,163,164
 214.75 400.0625 214.75 400.0625 216 400 c 256,165,166
 237 400 237 400 252 386 c 0,167,168
 256 382 256 382 258 378 c 1,169,-1
 258 378 l 1,170,171
 261 382 261 382 265 386 c 0,172,173
 279.0625 400.0625 279.0625 400.0625 297.51953125 400.0625 c 0,174,175
 298.75 400.0625 298.75 400.0625 300 400 c 256,176,177
 321 400 321 400 335 386 c 0,178,179
 350 371 350 371 350 350 c 128,-1,180
 350 329 350 329 335 314 c 0,181,182
 320.9375 299.9375 320.9375 299.9375 302.48046875 299.9375 c 0,183,184
 301.25 299.9375 301.25 299.9375 300 300 c 256,185,186
 279 300 279 300 265 314 c 0,187,188
 261 318 261 318 258 322 c 1,189,-1
 258 322 l 1,190,191
 255 318 255 318 252 314 c 0,192,193
 237.9375 299.9375 237.9375 299.9375 218.6015625 299.9375 c 0,194,195
 217.3125 299.9375 217.3125 299.9375 216 300 c 256,196,197
 195 300 195 300 181 314 c 0,198,199
 177 318 177 318 175 322 c 1,200,-1
 175 322 l 1,201,202
 172 318 172 318 169 314 c 0,203,204
 154.9375 299.9375 154.9375 299.9375 135.6015625 299.9375 c 0,205,206
 134.3125 299.9375 134.3125 299.9375 133 300 c 256,207,208
 112 300 112 300 98 314 c 0,209,210
 94 318 94 318 92 322 c 1,211,212
 89 318 89 318 85 314 c 0,213,214
 70.9375 299.9375 70.9375 299.9375 52.48046875 299.9375 c 0,215,216
 51.25 299.9375 51.25 299.9375 50 300 c 1,217,-1
 50 300 l 1,134,135
50 400 m 1,218,219
 29 400 29 400 15 414 c 0,220,221
 0 429 0 429 0 450 c 256,222,223
 0 471 0 471 15 485 c 0,224,225
 30 500 30 500 50 500 c 256,226,227
 71 500 71 500 85 485 c 0,228,229
 100 470 100 470 100 450 c 256,230,231
 100 429 100 429 85 414 c 256,232,233
 70.9375 399.9375 70.9375 399.9375 52.48046875 399.9375 c 0,234,235
 51.25 399.9375 51.25 399.9375 50 400 c 1,236,-1
 50 400 l 1,218,219
133 500 m 1,237,238
 112 500 112 500 98 514 c 256,239,240
 83 529 83 529 83 550 c 256,241,242
 83 571 83 571 98 585 c 0,243,244
 113 600 113 600 133 600 c 256,245,246
 154 600 154 600 169 585 c 0,247,248
 183.0625 570.9375 183.0625 570.9375 183.0625 552.48046875 c 0,249,250
 183.0625 528.0625 183.0625 528.0625 169 514 c 128,-1,251
 154.9375 499.9375 154.9375 499.9375 135.6015625 499.9375 c 0,252,253
 134.3125 499.9375 134.3125 499.9375 133 500 c 1,254,-1
 133 500 l 1,237,238
258 622 m 1,255,-1
 258 622 l 1,256,-1
 258 622 l 1,257,-1
 258 622 l 1,258,-1
 258 622 l 1,255,-1
342 622 m 1,259,-1
 342 622 l 1,260,-1
 342 622 l 1,261,-1
 342 622 l 1,262,-1
 342 622 l 1,259,-1
216 600 m 1,263,264
 195 600 195 600 181 615 c 0,265,266
 166.9375 629.0625 166.9375 629.0625 166.9375 647.51953125 c 0,267,268
 166.9375 670.9375 166.9375 670.9375 181 685 c 0,269,270
 196 700 196 700 216 700 c 256,271,272
 237 700 237 700 252 685 c 0,273,274
 256 681 256 681 258 678 c 1,275,-1
 258 678 l 1,276,277
 261 682 261 682 265 685 c 0,278,279
 280 700 280 700 300 700 c 256,280,281
 321 700 321 700 335 685 c 0,282,283
 339 681 339 681 342 678 c 1,284,-1
 342 678 l 1,285,286
 345 682 345 682 348 685 c 0,287,288
 363 700 363 700 384 700 c 128,-1,289
 405 700 405 700 419 685 c 0,290,291
 433.0625 670.9375 433.0625 670.9375 433.0625 652.48046875 c 0,292,293
 433.0625 629.0625 433.0625 629.0625 419 615 c 0,294,295
 404 600 404 600 384 600 c 0,296,297
 363 600 363 600 348 615 c 0,298,299
 344 619 344 619 342 622 c 1,300,301
 339 618 339 618 335 615 c 0,302,303
 320 600 320 600 300 600 c 256,304,305
 279 600 279 600 265 615 c 0,306,307
 261 619 261 619 258 622 c 1,308,-1
 258 622 l 1,309,310
 255 618 255 618 252 615 c 0,311,312
 237 600 237 600 216 600 c 1,313,-1
 216 600 l 1,263,264
EndSplineSet
Validated: 5
EndChar

StartChar: seven
Encoding: 55 55 23
Width: 500
VWidth: 699
Flags: W
LayerCount: 2
Fore
SplineSet
133 0 m 1,0,1
 112 0 112 0 98 15 c 0,2,3
 83 30 83 30 83 50 c 256,4,5
 83 71 83 71 98 85 c 256,6,7
 113 100 113 100 133 100 c 256,8,9
 154 100 154 100 169 85 c 0,10,11
 183.0625 70.9375 183.0625 70.9375 183.0625 52.48046875 c 0,12,13
 183.0625 29.0625 183.0625 29.0625 169 15 c 0,14,15
 154 0 154 0 133 0 c 1,16,-1
 133 0 l 1,0,1
133 100 m 1,17,18
 112 100 112 100 98 115 c 0,19,20
 83 130 83 130 83 150 c 256,21,22
 83 172 83 172 98 186 c 256,23,24
 112.0625 200.0625 112.0625 200.0625 130.51953125 200.0625 c 0,25,26
 131.75 200.0625 131.75 200.0625 133 200 c 256,27,28
 154 200 154 200 169 186 c 0,29,30
 183.0625 171.9375 183.0625 171.9375 183.0625 152.6015625 c 0,31,32
 183.0625 129.0625 183.0625 129.0625 169 115 c 0,33,34
 154 100 154 100 133 100 c 1,35,-1
 133 100 l 1,17,18
133 200 m 1,36,37
 112 200 112 200 98 214 c 0,38,39
 83 229 83 229 83 250 c 256,40,41
 83 271 83 271 98 285 c 256,42,43
 113 300 113 300 133 300 c 256,44,45
 154 300 154 300 169 285 c 0,46,47
 183.0625 270.9375 183.0625 270.9375 183.0625 252.48046875 c 0,48,49
 183.0625 229.066964286 183.0625 229.066964286 169 214 c 0,50,51
 154.9375 199.9375 154.9375 199.9375 135.6015625 199.9375 c 0,52,53
 134.3125 199.9375 134.3125 199.9375 133 200 c 1,54,-1
 133 200 l 1,36,37
216 300 m 1,55,56
 195 300 195 300 181 314 c 128,-1,57
 166.9375 328.0625 166.9375 328.0625 166.9375 347.3984375 c 0,58,59
 166.9375 370.933035714 166.9375 370.933035714 181 386 c 0,60,61
 195.0625 400.0625 195.0625 400.0625 213.51953125 400.0625 c 0,62,63
 214.75 400.0625 214.75 400.0625 216 400 c 256,64,65
 237 400 237 400 252 386 c 0,66,67
 267 371 267 371 267 350 c 128,-1,68
 267 329 267 329 252 314 c 0,69,70
 237.9375 299.9375 237.9375 299.9375 218.6015625 299.9375 c 0,71,72
 217.3125 299.9375 217.3125 299.9375 216 300 c 1,73,-1
 216 300 l 1,55,56
300 400 m 1,74,75
 279 400 279 400 265 414 c 256,76,77
 250 429 250 429 250 450 c 256,78,79
 250 471 250 471 265 485 c 0,80,81
 280 500 280 500 300 500 c 256,82,83
 321 500 321 500 335 485 c 0,84,85
 350 470 350 470 350 450 c 256,86,87
 350 429 350 429 335 414 c 0,88,89
 320.9375 399.9375 320.9375 399.9375 302.48046875 399.9375 c 0,90,91
 301.25 399.9375 301.25 399.9375 300 400 c 1,92,-1
 300 400 l 1,74,75
384 500 m 1,93,94
 363 500 363 500 348 514 c 0,95,96
 333 529 333 529 333 550 c 256,97,98
 333 571 333 571 348 585 c 0,99,100
 363 600 363 600 384 600 c 128,-1,101
 405 600 405 600 419 585 c 0,102,103
 433.0625 570.9375 433.0625 570.9375 433.0625 552.48046875 c 0,104,105
 433.0625 528.0625 433.0625 528.0625 419 514 c 128,-1,106
 404.9375 499.9375 404.9375 499.9375 386.48046875 499.9375 c 0,107,108
 385.25 499.9375 385.25 499.9375 384 500 c 1,109,-1
 384 500 l 1,93,94
92 622 m 1,110,-1
 92 622 l 1,111,-1
 92 622 l 1,112,-1
 92 622 l 1,113,-1
 92 622 l 1,110,-1
258 622 m 1,114,-1
 258 622 l 1,115,-1
 258 622 l 1,116,-1
 258 622 l 1,117,-1
 258 622 l 1,114,-1
50 600 m 1,118,119
 29 600 29 600 15 615 c 0,120,121
 0 630 0 630 0 650 c 256,122,123
 0 671 0 671 15 685 c 0,124,125
 30 700 30 700 50 700 c 256,126,127
 71 700 71 700 85 685 c 0,128,129
 89 681 89 681 92 678 c 1,130,-1
 92 678 l 1,131,132
 95 682 95 682 98 685 c 0,133,134
 113 700 113 700 133 700 c 256,135,136
 154 700 154 700 169 685 c 0,137,138
 173 681 173 681 175 678 c 1,139,-1
 175 678 l 1,140,141
 178 682 178 682 181 685 c 0,142,143
 196 700 196 700 216 700 c 256,144,145
 237 700 237 700 252 685 c 0,146,147
 256 681 256 681 258 678 c 1,148,-1
 258 678 l 1,149,150
 261 682 261 682 265 685 c 0,151,152
 280 700 280 700 300 700 c 256,153,154
 321 700 321 700 335 685 c 0,155,156
 339 681 339 681 342 678 c 1,157,-1
 342 678 l 1,158,159
 345 682 345 682 348 685 c 0,160,161
 363 700 363 700 384 700 c 128,-1,162
 405 700 405 700 419 685 c 0,163,164
 433.0625 670.9375 433.0625 670.9375 433.0625 652.48046875 c 0,165,166
 433.0625 629.0625 433.0625 629.0625 419 615 c 0,167,168
 404 600 404 600 384 600 c 0,169,170
 363 600 363 600 348 615 c 0,171,172
 344 619 344 619 342 622 c 1,173,174
 339 618 339 618 335 615 c 0,175,176
 320 600 320 600 300 600 c 256,177,178
 279 600 279 600 265 615 c 0,179,180
 261 619 261 619 258 622 c 1,181,-1
 258 622 l 1,182,183
 255 618 255 618 252 615 c 0,184,185
 237 600 237 600 216 600 c 256,186,187
 195 600 195 600 181 615 c 0,188,189
 177 619 177 619 175 622 c 1,190,-1
 175 622 l 1,191,192
 172 618 172 618 169 615 c 0,193,194
 154 600 154 600 133 600 c 256,195,196
 112 600 112 600 98 615 c 0,197,198
 94 619 94 619 92 622 c 1,199,200
 89 618 89 618 85 615 c 0,201,202
 70 600 70 600 50 600 c 1,203,-1
 50 600 l 1,118,119
EndSplineSet
Validated: 5
EndChar

StartChar: eight
Encoding: 56 56 24
Width: 500
VWidth: 699
Flags: W
LayerCount: 2
Fore
SplineSet
175 22 m 1,0,1
 175 22 l 1,2,-1
 175 22 l 1,3,4
 175 22 l 1,5,-1
 175 22 l 1,0,1
133 0 m 1,6,7
 112 0 112 0 98 15 c 0,8,9
 83 30 83 30 83 50 c 256,10,11
 83 71 83 71 98 85 c 256,12,13
 113 100 113 100 133 100 c 256,14,15
 154 100 154 100 169 85 c 0,16,17
 173 81 173 81 175 78 c 1,18,-1
 175 78 l 1,19,20
 178 82 178 82 181 85 c 0,21,22
 196 100 196 100 216 100 c 256,23,24
 237 100 237 100 252 85 c 0,25,26
 256 81 256 81 258 78 c 1,27,-1
 258 78 l 1,28,29
 261 82 261 82 265 85 c 0,30,31
 280 100 280 100 300 100 c 256,32,33
 321 100 321 100 335 85 c 0,34,35
 350 70 350 70 350 50 c 256,36,37
 350 29 350 29 335 15 c 0,38,39
 320 0 320 0 300 0 c 256,40,41
 279 0 279 0 265 15 c 0,42,43
 261 19 261 19 258 22 c 1,44,45
 255 18 255 18 252 15 c 0,46,47
 237 0 237 0 216 0 c 256,48,49
 195 0 195 0 181 15 c 0,50,51
 177 19 177 19 175 22 c 1,52,53
 172 18 172 18 169 15 c 0,54,55
 154 0 154 0 133 0 c 1,56,-1
 133 0 l 1,6,7
50 100 m 1,57,58
 29 100 29 100 15 115 c 0,59,60
 0 130 0 130 0 150 c 256,61,62
 0 172 0 172 15 186 c 0,63,64
 29.0625 200.0625 29.0625 200.0625 47.51953125 200.0625 c 0,65,66
 48.75 200.0625 48.75 200.0625 50 200 c 256,67,68
 71 200 71 200 85 186 c 256,69,70
 100 171 100 171 100 150 c 256,71,72
 100 129 100 129 85 115 c 0,73,74
 70 100 70 100 50 100 c 1,75,-1
 50 100 l 1,57,58
384 100 m 1,76,77
 363 100 363 100 348 115 c 128,-1,78
 333 130 333 130 333 150 c 256,79,80
 333 172 333 172 348 186 c 0,81,82
 362.0625 200.0625 362.0625 200.0625 381.3984375 200.0625 c 0,83,84
 382.6875 200.0625 382.6875 200.0625 384 200 c 0,85,86
 405 200 405 200 419 186 c 128,-1,87
 433.0625 171.9375 433.0625 171.9375 433.0625 152.6015625 c 0,88,89
 433.0625 129.0625 433.0625 129.0625 419 115 c 0,90,91
 404 100 404 100 384 100 c 1,92,-1
 384 100 l 1,76,77
50 200 m 1,93,94
 29 200 29 200 15 214 c 0,95,96
 0 229 0 229 0 250 c 256,97,98
 0 271 0 271 15 285 c 0,99,100
 30 300 30 300 50 300 c 256,101,102
 71 300 71 300 85 285 c 256,103,104
 100 270 100 270 100 250 c 256,105,106
 100 229 100 229 85 214 c 0,107,108
 70.9375 199.9375 70.9375 199.9375 52.48046875 199.9375 c 0,109,110
 51.25 199.9375 51.25 199.9375 50 200 c 1,111,-1
 50 200 l 1,93,94
384 200 m 1,112,113
 363 200 363 200 348 214 c 0,114,115
 333 229 333 229 333 250 c 256,116,117
 333 271 333 271 348 285 c 0,118,119
 363 300 363 300 384 300 c 128,-1,120
 405 300 405 300 419 285 c 0,121,122
 433.0625 270.9375 433.0625 270.9375 433.0625 252.48046875 c 0,123,124
 433.0625 229.066964286 433.0625 229.066964286 419 214 c 0,125,126
 404.9375 199.9375 404.9375 199.9375 386.48046875 199.9375 c 0,127,128
 385.25 199.9375 385.25 199.9375 384 200 c 1,129,-1
 384 200 l 1,112,113
258 322 m 1,130,-1
 258 322 l 1,131,-1
 258 322 l 1,132,-1
 258 322 l 1,133,-1
 258 322 l 1,130,-1
133 300 m 1,134,135
 112 300 112 300 98 314 c 0,136,137
 83 329 83 329 83 350 c 128,-1,138
 83 371 83 371 98 386 c 0,139,140
 112.0625 400.0625 112.0625 400.0625 130.51953125 400.0625 c 0,141,142
 131.75 400.0625 131.75 400.0625 133 400 c 256,143,144
 154 400 154 400 169 386 c 0,145,146
 173 382 173 382 175 378 c 1,147,-1
 175 378 l 1,148,149
 178 382 178 382 181 386 c 0,150,151
 195.0625 400.0625 195.0625 400.0625 213.51953125 400.0625 c 0,152,153
 214.75 400.0625 214.75 400.0625 216 400 c 256,154,155
 237 400 237 400 252 386 c 0,156,157
 256 382 256 382 258 378 c 1,158,-1
 258 378 l 1,159,160
 261 382 261 382 265 386 c 0,161,162
 279.0625 400.0625 279.0625 400.0625 297.51953125 400.0625 c 0,163,164
 298.75 400.0625 298.75 400.0625 300 400 c 256,165,166
 321 400 321 400 335 386 c 0,167,168
 350 371 350 371 350 350 c 128,-1,169
 350 329 350 329 335 314 c 0,170,171
 320.9375 299.9375 320.9375 299.9375 302.48046875 299.9375 c 0,172,173
 301.25 299.9375 301.25 299.9375 300 300 c 256,174,175
 279 300 279 300 265 314 c 0,176,177
 261 318 261 318 258 322 c 1,178,-1
 258 322 l 1,179,180
 255 318 255 318 252 314 c 0,181,182
 237.9375 299.9375 237.9375 299.9375 218.6015625 299.9375 c 0,183,184
 217.3125 299.9375 217.3125 299.9375 216 300 c 256,185,186
 195 300 195 300 181 314 c 0,187,188
 177 318 177 318 175 322 c 1,189,-1
 175 322 l 1,190,191
 172 318 172 318 169 314 c 0,192,193
 154.9375 299.9375 154.9375 299.9375 135.6015625 299.9375 c 0,194,195
 134.3125 299.9375 134.3125 299.9375 133 300 c 1,196,-1
 133 300 l 1,134,135
50 400 m 1,197,198
 29 400 29 400 15 414 c 0,199,200
 0 429 0 429 0 450 c 256,201,202
 0 471 0 471 15 485 c 0,203,204
 30 500 30 500 50 500 c 256,205,206
 71 500 71 500 85 485 c 0,207,208
 100 470 100 470 100 450 c 256,209,210
 100 429 100 429 85 414 c 256,211,212
 70.9375 399.9375 70.9375 399.9375 52.48046875 399.9375 c 0,213,214
 51.25 399.9375 51.25 399.9375 50 400 c 1,215,-1
 50 400 l 1,197,198
384 400 m 1,216,217
 363 400 363 400 348 414 c 0,218,219
 333 429 333 429 333 450 c 256,220,221
 333 471 333 471 348 485 c 0,222,223
 363 500 363 500 384 500 c 128,-1,224
 405 500 405 500 419 485 c 0,225,226
 433.0625 470.9375 433.0625 470.9375 433.0625 452.48046875 c 0,227,228
 433.0625 429.066964286 433.0625 429.066964286 419 414 c 0,229,230
 404.9375 399.9375 404.9375 399.9375 386.48046875 399.9375 c 0,231,232
 385.25 399.9375 385.25 399.9375 384 400 c 1,233,-1
 384 400 l 1,216,217
50 500 m 1,234,235
 29 500 29 500 15 514 c 0,236,237
 0 529 0 529 0 550 c 256,238,239
 0 571 0 571 15 585 c 0,240,241
 30 600 30 600 50 600 c 256,242,243
 71 600 71 600 85 585 c 0,244,245
 100 570 100 570 100 550 c 256,246,247
 100 528 100 528 85 514 c 256,248,249
 70.9375 499.9375 70.9375 499.9375 52.48046875 499.9375 c 0,250,251
 51.25 499.9375 51.25 499.9375 50 500 c 1,252,-1
 50 500 l 1,234,235
384 500 m 1,253,254
 363 500 363 500 348 514 c 0,255,256
 333 529 333 529 333 550 c 256,257,258
 333 571 333 571 348 585 c 0,259,260
 363 600 363 600 384 600 c 128,-1,261
 405 600 405 600 419 585 c 0,262,263
 433.0625 570.9375 433.0625 570.9375 433.0625 552.48046875 c 0,264,265
 433.0625 528.0625 433.0625 528.0625 419 514 c 128,-1,266
 404.9375 499.9375 404.9375 499.9375 386.48046875 499.9375 c 0,267,268
 385.25 499.9375 385.25 499.9375 384 500 c 1,269,-1
 384 500 l 1,253,254
175 622 m 1,270,-1
 175 622 l 1,271,-1
 175 622 l 1,272,-1
 175 622 l 1,273,-1
 175 622 l 1,270,-1
133 600 m 1,274,275
 112 600 112 600 98 615 c 256,276,277
 83 630 83 630 83 650 c 256,278,279
 83 671 83 671 98 685 c 256,280,281
 113 700 113 700 133 700 c 256,282,283
 154 700 154 700 169 685 c 0,284,285
 173 681 173 681 175 678 c 1,286,-1
 175 678 l 1,287,288
 178 682 178 682 181 685 c 0,289,290
 196 700 196 700 216 700 c 256,291,292
 237 700 237 700 252 685 c 0,293,294
 256 681 256 681 258 678 c 1,295,-1
 258 678 l 1,296,297
 261 682 261 682 265 685 c 0,298,299
 280 700 280 700 300 700 c 256,300,301
 321 700 321 700 335 685 c 0,302,303
 350 670 350 670 350 650 c 256,304,305
 350 629 350 629 335 615 c 0,306,307
 320 600 320 600 300 600 c 256,308,309
 279 600 279 600 265 615 c 0,310,311
 261 619 261 619 258 622 c 1,312,-1
 258 622 l 1,313,314
 255 618 255 618 252 615 c 0,315,316
 237 600 237 600 216 600 c 256,317,318
 195 600 195 600 181 615 c 0,319,320
 177 619 177 619 175 622 c 1,321,-1
 175 622 l 1,322,323
 172 618 172 618 169 615 c 0,324,325
 154 600 154 600 133 600 c 1,326,-1
 133 600 l 1,274,275
EndSplineSet
Validated: 5
EndChar

StartChar: nine
Encoding: 57 57 25
Width: 500
VWidth: 699
Flags: W
LayerCount: 2
Fore
SplineSet
92 22 m 1,0,1
 92 22 l 1,2,-1
 92 22 l 1,3,4
 92 22 l 1,5,-1
 92 22 l 1,0,1
50 0 m 1,6,7
 29 0 29 0 15 15 c 0,8,9
 0 30 0 30 0 50 c 256,10,11
 0 71 0 71 15 85 c 0,12,13
 30 100 30 100 50 100 c 256,14,15
 71 100 71 100 85 85 c 0,16,17
 89 81 89 81 92 78 c 1,18,-1
 92 78 l 1,19,20
 95 82 95 82 98 85 c 0,21,22
 113 100 113 100 133 100 c 256,23,24
 154 100 154 100 169 85 c 0,25,26
 173 81 173 81 175 78 c 1,27,-1
 175 78 l 1,28,29
 178 82 178 82 181 85 c 0,30,31
 196 100 196 100 216 100 c 256,32,33
 237 100 237 100 252 85 c 256,34,35
 267 70 267 70 267 50 c 256,36,37
 267 29 267 29 252 15 c 0,38,39
 237 0 237 0 216 0 c 256,40,41
 195 0 195 0 181 15 c 0,42,43
 177 19 177 19 175 22 c 1,44,-1
 175 22 l 1,45,46
 172 18 172 18 169 15 c 0,47,48
 154 0 154 0 133 0 c 256,49,50
 112 0 112 0 98 15 c 0,51,52
 94 19 94 19 92 22 c 1,53,54
 89 18 89 18 85 15 c 0,55,56
 70 0 70 0 50 0 c 1,57,-1
 50 0 l 1,6,7
300 100 m 1,58,59
 279 100 279 100 265 115 c 0,60,61
 250 130 250 130 250 150 c 256,62,63
 250 172 250 172 265 186 c 256,64,65
 279.0625 200.0625 279.0625 200.0625 297.51953125 200.0625 c 0,66,67
 298.75 200.0625 298.75 200.0625 300 200 c 256,68,69
 321 200 321 200 335 186 c 0,70,71
 350 171 350 171 350 150 c 256,72,73
 350 129 350 129 335 115 c 0,74,75
 320 100 320 100 300 100 c 1,76,-1
 300 100 l 1,58,59
384 200 m 1,77,78
 363 200 363 200 348 214 c 0,79,80
 333 229 333 229 333 250 c 256,81,82
 333 271 333 271 348 285 c 0,83,84
 363 300 363 300 384 300 c 128,-1,85
 405 300 405 300 419 285 c 0,86,87
 433.0625 270.9375 433.0625 270.9375 433.0625 252.48046875 c 0,88,89
 433.0625 229.066964286 433.0625 229.066964286 419 214 c 0,90,91
 404.9375 199.9375 404.9375 199.9375 386.48046875 199.9375 c 0,92,93
 385.25 199.9375 385.25 199.9375 384 200 c 1,94,-1
 384 200 l 1,77,78
175 322 m 1,95,-1
 175 322 l 1,96,-1
 175 322 l 1,97,-1
 175 322 l 1,98,-1
 175 322 l 1,95,-1
258 322 m 1,99,-1
 258 322 l 1,100,-1
 258 322 l 1,101,102
 258 322 l 1,103,-1
 258 322 l 1,99,-1
133 300 m 1,104,105
 112 300 112 300 98 314 c 0,106,107
 83 329 83 329 83 350 c 128,-1,108
 83 371 83 371 98 386 c 0,109,110
 112.0625 400.0625 112.0625 400.0625 130.51953125 400.0625 c 0,111,112
 131.75 400.0625 131.75 400.0625 133 400 c 256,113,114
 154 400 154 400 169 386 c 0,115,116
 173 382 173 382 175 378 c 1,117,-1
 175 378 l 1,118,119
 178 382 178 382 181 386 c 0,120,121
 195.0625 400.0625 195.0625 400.0625 213.51953125 400.0625 c 0,122,123
 214.75 400.0625 214.75 400.0625 216 400 c 256,124,125
 237 400 237 400 252 386 c 0,126,127
 256 382 256 382 258 378 c 1,128,-1
 258 378 l 1,129,130
 261 382 261 382 265 386 c 0,131,132
 279.0625 400.0625 279.0625 400.0625 297.51953125 400.0625 c 0,133,134
 298.75 400.0625 298.75 400.0625 300 400 c 256,135,136
 321 400 321 400 335 386 c 0,137,138
 339 382 339 382 342 378 c 1,139,-1
 342 378 l 1,140,141
 345 382 345 382 348 386 c 0,142,143
 362.0625 400.0625 362.0625 400.0625 381.3984375 400.0625 c 0,144,145
 382.6875 400.0625 382.6875 400.0625 384 400 c 0,146,147
 405 400 405 400 419 386 c 128,-1,148
 433.0625 371.9375 433.0625 371.9375 433.0625 352.6015625 c 0,149,150
 433.0625 329.066964286 433.0625 329.066964286 419 314 c 0,151,152
 404.9375 299.9375 404.9375 299.9375 386.48046875 299.9375 c 0,153,154
 385.25 299.9375 385.25 299.9375 384 300 c 0,155,156
 363 300 363 300 348 314 c 0,157,158
 344 318 344 318 342 322 c 1,159,160
 339 318 339 318 335 314 c 0,161,162
 320.9375 299.9375 320.9375 299.9375 302.48046875 299.9375 c 0,163,164
 301.25 299.9375 301.25 299.9375 300 300 c 256,165,166
 279 300 279 300 265 314 c 0,167,168
 261 318 261 318 258 322 c 1,169,-1
 258 322 l 1,170,171
 255 318 255 318 252 314 c 0,172,173
 237.9375 299.9375 237.9375 299.9375 218.6015625 299.9375 c 0,174,175
 217.3125 299.9375 217.3125 299.9375 216 300 c 256,176,177
 195 300 195 300 181 314 c 0,178,179
 177 318 177 318 175 322 c 1,180,-1
 175 322 l 1,181,182
 172 318 172 318 169 314 c 0,183,184
 154.9375 299.9375 154.9375 299.9375 135.6015625 299.9375 c 0,185,186
 134.3125 299.9375 134.3125 299.9375 133 300 c 1,187,-1
 133 300 l 1,104,105
50 400 m 1,188,189
 29 400 29 400 15 414 c 0,190,191
 0 429 0 429 0 450 c 256,192,193
 0 471 0 471 15 485 c 0,194,195
 30 500 30 500 50 500 c 256,196,197
 71 500 71 500 85 485 c 0,198,199
 100 470 100 470 100 450 c 256,200,201
 100 429 100 429 85 414 c 256,202,203
 70.9375 399.9375 70.9375 399.9375 52.48046875 399.9375 c 0,204,205
 51.25 399.9375 51.25 399.9375 50 400 c 1,206,-1
 50 400 l 1,188,189
384 400 m 1,207,208
 363 400 363 400 348 414 c 0,209,210
 333 429 333 429 333 450 c 256,211,212
 333 471 333 471 348 485 c 0,213,214
 363 500 363 500 384 500 c 128,-1,215
 405 500 405 500 419 485 c 0,216,217
 433.0625 470.9375 433.0625 470.9375 433.0625 452.48046875 c 0,218,219
 433.0625 429.066964286 433.0625 429.066964286 419 414 c 0,220,221
 404.9375 399.9375 404.9375 399.9375 386.48046875 399.9375 c 0,222,223
 385.25 399.9375 385.25 399.9375 384 400 c 1,224,-1
 384 400 l 1,207,208
50 500 m 1,225,226
 29 500 29 500 15 514 c 0,227,228
 0 529 0 529 0 550 c 256,229,230
 0 571 0 571 15 585 c 0,231,232
 30 600 30 600 50 600 c 256,233,234
 71 600 71 600 85 585 c 0,235,236
 100 570 100 570 100 550 c 256,237,238
 100 528 100 528 85 514 c 256,239,240
 70.9375 499.9375 70.9375 499.9375 52.48046875 499.9375 c 0,241,242
 51.25 499.9375 51.25 499.9375 50 500 c 1,243,-1
 50 500 l 1,225,226
384 500 m 1,244,245
 363 500 363 500 348 514 c 0,246,247
 333 529 333 529 333 550 c 256,248,249
 333 571 333 571 348 585 c 0,250,251
 363 600 363 600 384 600 c 128,-1,252
 405 600 405 600 419 585 c 0,253,254
 433.0625 570.9375 433.0625 570.9375 433.0625 552.48046875 c 0,255,256
 433.0625 528.0625 433.0625 528.0625 419 514 c 128,-1,257
 404.9375 499.9375 404.9375 499.9375 386.48046875 499.9375 c 0,258,259
 385.25 499.9375 385.25 499.9375 384 500 c 1,260,-1
 384 500 l 1,244,245
175 622 m 1,261,-1
 175 622 l 1,262,-1
 175 622 l 1,263,-1
 175 622 l 1,264,-1
 175 622 l 1,261,-1
258 622 m 1,265,-1
 258 622 l 1,266,-1
 258 622 l 1,267,-1
 258 622 l 1,268,-1
 258 622 l 1,265,-1
133 600 m 1,269,270
 112 600 112 600 98 615 c 256,271,272
 83 630 83 630 83 650 c 256,273,274
 83 671 83 671 98 685 c 256,275,276
 113 700 113 700 133 700 c 256,277,278
 154 700 154 700 169 685 c 0,279,280
 173 681 173 681 175 678 c 1,281,-1
 175 678 l 1,282,283
 178 682 178 682 181 685 c 0,284,285
 196 700 196 700 216 700 c 256,286,287
 237 700 237 700 252 685 c 0,288,289
 256 681 256 681 258 678 c 1,290,-1
 258 678 l 1,291,292
 261 682 261 682 265 685 c 0,293,294
 280 700 280 700 300 700 c 256,295,296
 321 700 321 700 335 685 c 0,297,298
 350 670 350 670 350 650 c 256,299,300
 350 629 350 629 335 615 c 0,301,302
 320 600 320 600 300 600 c 256,303,304
 279 600 279 600 265 615 c 0,305,306
 261 619 261 619 258 622 c 1,307,-1
 258 622 l 1,308,309
 255 618 255 618 252 615 c 0,310,311
 237 600 237 600 216 600 c 256,312,313
 195 600 195 600 181 615 c 0,314,315
 177 619 177 619 175 622 c 1,316,317
 172 618 172 618 169 615 c 0,318,319
 154 600 154 600 133 600 c 1,320,-1
 133 600 l 1,269,270
EndSplineSet
Validated: 5
EndChar

StartChar: colon
Encoding: 58 58 26
Width: 500
VWidth: 699
Flags: W
LayerCount: 2
Fore
SplineSet
216 200 m 1,0,1
 195 200 195 200 181 214 c 128,-1,2
 166.9375 228.0625 166.9375 228.0625 166.9375 247.3984375 c 0,3,4
 166.9375 270.9375 166.9375 270.9375 181 285 c 0,5,6
 196 300 196 300 216 300 c 256,7,8
 237 300 237 300 252 285 c 256,9,10
 267 270 267 270 267 250 c 256,11,12
 267 229 267 229 252 214 c 0,13,14
 237.9375 199.9375 237.9375 199.9375 218.6015625 199.9375 c 0,15,16
 217.3125 199.9375 217.3125 199.9375 216 200 c 1,17,-1
 216 200 l 1,0,1
216 400 m 1,18,19
 195 400 195 400 181 414 c 128,-1,20
 166.9375 428.0625 166.9375 428.0625 166.9375 447.3984375 c 0,21,22
 166.9375 470.9375 166.9375 470.9375 181 485 c 0,23,24
 196 500 196 500 216 500 c 256,25,26
 237 500 237 500 252 485 c 128,-1,27
 267 470 267 470 267 450 c 256,28,29
 267 429 267 429 252 414 c 256,30,31
 237.9375 399.9375 237.9375 399.9375 218.6015625 399.9375 c 0,32,33
 217.3125 399.9375 217.3125 399.9375 216 400 c 1,34,-1
 216 400 l 1,18,19
EndSplineSet
Validated: 1
EndChar

StartChar: semicolon
Encoding: 59 59 27
Width: 500
VWidth: 699
Flags: W
LayerCount: 2
Fore
SplineSet
133 0 m 1,0,1
 112 0 112 0 98 15 c 0,2,3
 83 30 83 30 83 50 c 256,4,5
 83 71 83 71 98 85 c 256,6,7
 113 100 113 100 133 100 c 256,8,9
 154 100 154 100 169 85 c 0,10,11
 183.0625 70.9375 183.0625 70.9375 183.0625 52.48046875 c 0,12,13
 183.0625 29.0625 183.0625 29.0625 169 15 c 0,14,15
 154 0 154 0 133 0 c 1,16,-1
 133 0 l 1,0,1
216 100 m 1,17,18
 195 100 195 100 181 115 c 0,19,20
 166.9375 129.0625 166.9375 129.0625 166.9375 147.51953125 c 0,21,22
 166.9375 171.9375 166.9375 171.9375 181 186 c 128,-1,23
 195.0625 200.0625 195.0625 200.0625 213.51953125 200.0625 c 0,24,25
 214.75 200.0625 214.75 200.0625 216 200 c 256,26,27
 237 200 237 200 252 186 c 256,28,29
 267 171 267 171 267 150 c 256,30,31
 267 129 267 129 252 115 c 0,32,33
 237 100 237 100 216 100 c 1,34,-1
 216 100 l 1,17,18
216 200 m 1,35,36
 195 200 195 200 181 214 c 128,-1,37
 166.9375 228.0625 166.9375 228.0625 166.9375 247.3984375 c 0,38,39
 166.9375 270.9375 166.9375 270.9375 181 285 c 0,40,41
 196 300 196 300 216 300 c 256,42,43
 237 300 237 300 252 285 c 256,44,45
 267 270 267 270 267 250 c 256,46,47
 267 229 267 229 252 214 c 0,48,49
 237.9375 199.9375 237.9375 199.9375 218.6015625 199.9375 c 0,50,51
 217.3125 199.9375 217.3125 199.9375 216 200 c 1,52,-1
 216 200 l 1,35,36
216 400 m 1,53,54
 195 400 195 400 181 414 c 128,-1,55
 166.9375 428.0625 166.9375 428.0625 166.9375 447.3984375 c 0,56,57
 166.9375 470.9375 166.9375 470.9375 181 485 c 0,58,59
 196 500 196 500 216 500 c 256,60,61
 237 500 237 500 252 485 c 128,-1,62
 267 470 267 470 267 450 c 256,63,64
 267 429 267 429 252 414 c 256,65,66
 237.9375 399.9375 237.9375 399.9375 218.6015625 399.9375 c 0,67,68
 217.3125 399.9375 217.3125 399.9375 216 400 c 1,69,-1
 216 400 l 1,53,54
EndSplineSet
Validated: 5
EndChar

StartChar: less
Encoding: 60 60 28
Width: 500
VWidth: 699
Flags: W
LayerCount: 2
Fore
SplineSet
300 0 m 1,0,1
 279 0 279 0 265 15 c 0,2,3
 250 30 250 30 250 50 c 256,4,5
 250 71 250 71 265 85 c 256,6,7
 280 100 280 100 300 100 c 256,8,9
 321 100 321 100 335 85 c 0,10,11
 350 70 350 70 350 50 c 256,12,13
 350 29 350 29 335 15 c 0,14,15
 320 0 320 0 300 0 c 1,16,-1
 300 0 l 1,0,1
216 100 m 1,17,18
 195 100 195 100 181 115 c 0,19,20
 166.9375 129.0625 166.9375 129.0625 166.9375 147.51953125 c 0,21,22
 166.9375 171.9375 166.9375 171.9375 181 186 c 128,-1,23
 195.0625 200.0625 195.0625 200.0625 213.51953125 200.0625 c 0,24,25
 214.75 200.0625 214.75 200.0625 216 200 c 256,26,27
 237 200 237 200 252 186 c 256,28,29
 267 171 267 171 267 150 c 256,30,31
 267 129 267 129 252 115 c 0,32,33
 237 100 237 100 216 100 c 1,34,-1
 216 100 l 1,17,18
133 200 m 1,35,36
 112 200 112 200 98 214 c 0,37,38
 83 229 83 229 83 250 c 256,39,40
 83 271 83 271 98 285 c 256,41,42
 113 300 113 300 133 300 c 256,43,44
 154 300 154 300 169 285 c 0,45,46
 183.0625 270.9375 183.0625 270.9375 183.0625 252.48046875 c 0,47,48
 183.0625 229.066964286 183.0625 229.066964286 169 214 c 0,49,50
 154.9375 199.9375 154.9375 199.9375 135.6015625 199.9375 c 0,51,52
 134.3125 199.9375 134.3125 199.9375 133 200 c 1,53,-1
 133 200 l 1,35,36
50 300 m 1,54,55
 29 300 29 300 15 314 c 0,56,57
 0 329 0 329 0 350 c 128,-1,58
 0 371 0 371 15 386 c 0,59,60
 29.0625 400.0625 29.0625 400.0625 47.51953125 400.0625 c 0,61,62
 48.75 400.0625 48.75 400.0625 50 400 c 256,63,64
 71 400 71 400 85 386 c 0,65,66
 100 371 100 371 100 350 c 128,-1,67
 100 329 100 329 85 314 c 0,68,69
 70.9375 299.9375 70.9375 299.9375 52.48046875 299.9375 c 0,70,71
 51.25 299.9375 51.25 299.9375 50 300 c 1,72,-1
 50 300 l 1,54,55
133 400 m 1,73,74
 112 400 112 400 98 414 c 256,75,76
 83 429 83 429 83 450 c 256,77,78
 83 471 83 471 98 485 c 0,79,80
 113 500 113 500 133 500 c 256,81,82
 154 500 154 500 169 485 c 0,83,84
 183.0625 470.9375 183.0625 470.9375 183.0625 452.48046875 c 0,85,86
 183.0625 429.066964286 183.0625 429.066964286 169 414 c 0,87,88
 154.9375 399.9375 154.9375 399.9375 135.6015625 399.9375 c 0,89,90
 134.3125 399.9375 134.3125 399.9375 133 400 c 1,91,-1
 133 400 l 1,73,74
216 500 m 1,92,93
 195 500 195 500 181 514 c 128,-1,94
 166.9375 528.0625 166.9375 528.0625 166.9375 547.3984375 c 0,95,96
 166.9375 570.9375 166.9375 570.9375 181 585 c 0,97,98
 196 600 196 600 216 600 c 256,99,100
 237 600 237 600 252 585 c 128,-1,101
 267 570 267 570 267 550 c 256,102,103
 267 528 267 528 252 514 c 256,104,105
 237.9375 499.9375 237.9375 499.9375 218.6015625 499.9375 c 0,106,107
 217.3125 499.9375 217.3125 499.9375 216 500 c 1,108,-1
 216 500 l 1,92,93
300 600 m 1,109,110
 279 600 279 600 265 615 c 256,111,112
 250 630 250 630 250 650 c 256,113,114
 250 671 250 671 265 685 c 256,115,116
 280 700 280 700 300 700 c 256,117,118
 321 700 321 700 335 685 c 0,119,120
 350 670 350 670 350 650 c 256,121,122
 350 629 350 629 335 615 c 0,123,124
 320 600 320 600 300 600 c 1,125,-1
 300 600 l 1,109,110
EndSplineSet
Validated: 5
EndChar

StartChar: equal
Encoding: 61 61 29
Width: 500
VWidth: 699
Flags: W
LayerCount: 2
Fore
SplineSet
92 222 m 1,0,1
 92 222 l 1,2,-1
 92 222 l 1,3,4
 92 222 l 1,5,-1
 92 222 l 1,0,1
258 222 m 1,6,7
 258 222 l 1,8,-1
 258 222 l 1,9,10
 258 222 l 1,11,-1
 258 222 l 1,6,7
50 200 m 1,12,13
 29 200 29 200 15 214 c 0,14,15
 0 229 0 229 0 250 c 256,16,17
 0 271 0 271 15 285 c 0,18,19
 30 300 30 300 50 300 c 256,20,21
 71 300 71 300 85 285 c 0,22,23
 89 281 89 281 92 278 c 1,24,-1
 92 278 l 1,25,26
 95 282 95 282 98 285 c 0,27,28
 113 300 113 300 133 300 c 256,29,30
 154 300 154 300 169 285 c 0,31,32
 173 281 173 281 175 278 c 1,33,-1
 175 278 l 1,34,35
 178 282 178 282 181 285 c 0,36,37
 196 300 196 300 216 300 c 256,38,39
 237 300 237 300 252 285 c 0,40,41
 256 281 256 281 258 278 c 1,42,-1
 258 278 l 1,43,44
 261 282 261 282 265 285 c 0,45,46
 280 300 280 300 300 300 c 256,47,48
 321 300 321 300 335 285 c 0,49,50
 339 281 339 281 342 278 c 1,51,-1
 342 278 l 1,52,53
 345 282 345 282 348 285 c 0,54,55
 363 300 363 300 384 300 c 128,-1,56
 405 300 405 300 419 285 c 0,57,58
 433.0625 270.9375 433.0625 270.9375 433.0625 252.48046875 c 0,59,60
 433.0625 229.066964286 433.0625 229.066964286 419 214 c 0,61,62
 404.9375 199.9375 404.9375 199.9375 386.48046875 199.9375 c 0,63,64
 385.25 199.9375 385.25 199.9375 384 200 c 0,65,66
 363 200 363 200 348 214 c 0,67,68
 344 218 344 218 342 222 c 1,69,70
 339 218 339 218 335 214 c 0,71,72
 320.9375 199.9375 320.9375 199.9375 302.48046875 199.9375 c 0,73,74
 301.25 199.9375 301.25 199.9375 300 200 c 256,75,76
 279 200 279 200 265 214 c 0,77,78
 261 218 261 218 258 222 c 1,79,80
 255 218 255 218 252 214 c 0,81,82
 237.9375 199.9375 237.9375 199.9375 218.6015625 199.9375 c 0,83,84
 217.3125 199.9375 217.3125 199.9375 216 200 c 256,85,86
 195 200 195 200 181 214 c 0,87,88
 177 218 177 218 175 222 c 1,89,90
 172 218 172 218 169 214 c 0,91,92
 154.9375 199.9375 154.9375 199.9375 135.6015625 199.9375 c 0,93,94
 134.3125 199.9375 134.3125 199.9375 133 200 c 256,95,96
 112 200 112 200 98 214 c 0,97,98
 94 218 94 218 92 222 c 1,99,100
 89 218 89 218 85 214 c 0,101,102
 70.9375 199.9375 70.9375 199.9375 52.48046875 199.9375 c 0,103,104
 51.25 199.9375 51.25 199.9375 50 200 c 1,105,-1
 50 200 l 1,12,13
92 422 m 1,106,-1
 92 422 l 1,107,-1
 92 422 l 1,108,-1
 92 422 l 1,109,-1
 92 422 l 1,106,-1
175 422 m 1,110,-1
 175 422 l 1,111,-1
 175 422 l 1,112,-1
 175 422 l 1,113,-1
 175 422 l 1,110,-1
342 422 m 1,114,-1
 342 422 l 1,115,-1
 342 422 l 1,116,-1
 342 422 l 1,117,-1
 342 422 l 1,114,-1
50 400 m 1,118,119
 29 400 29 400 15 414 c 0,120,121
 0 429 0 429 0 450 c 256,122,123
 0 471 0 471 15 485 c 0,124,125
 30 500 30 500 50 500 c 256,126,127
 71 500 71 500 85 485 c 0,128,129
 89 481 89 481 92 478 c 1,130,-1
 92 478 l 1,131,132
 95 482 95 482 98 485 c 0,133,134
 113 500 113 500 133 500 c 256,135,136
 154 500 154 500 169 485 c 0,137,138
 173 481 173 481 175 478 c 1,139,-1
 175 478 l 1,140,141
 178 482 178 482 181 485 c 0,142,143
 196 500 196 500 216 500 c 256,144,145
 237 500 237 500 252 485 c 0,146,147
 256 481 256 481 258 478 c 1,148,-1
 258 478 l 1,149,150
 261 482 261 482 265 485 c 0,151,152
 280 500 280 500 300 500 c 256,153,154
 321 500 321 500 335 485 c 0,155,156
 339 481 339 481 342 478 c 1,157,-1
 342 478 l 1,158,159
 345 482 345 482 348 485 c 0,160,161
 363 500 363 500 384 500 c 128,-1,162
 405 500 405 500 419 485 c 0,163,164
 433.0625 470.9375 433.0625 470.9375 433.0625 452.48046875 c 0,165,166
 433.0625 429.066964286 433.0625 429.066964286 419 414 c 0,167,168
 404.9375 399.9375 404.9375 399.9375 386.48046875 399.9375 c 0,169,170
 385.25 399.9375 385.25 399.9375 384 400 c 0,171,172
 363 400 363 400 348 414 c 0,173,174
 344 418 344 418 342 422 c 1,175,176
 339 418 339 418 335 414 c 0,177,178
 320.9375 399.9375 320.9375 399.9375 302.48046875 399.9375 c 0,179,180
 301.25 399.9375 301.25 399.9375 300 400 c 256,181,182
 279 400 279 400 265 414 c 0,183,184
 261 418 261 418 258 422 c 1,185,-1
 258 422 l 1,186,187
 255 418 255 418 252 414 c 0,188,189
 237.9375 399.9375 237.9375 399.9375 218.6015625 399.9375 c 0,190,191
 217.3125 399.9375 217.3125 399.9375 216 400 c 256,192,193
 195 400 195 400 181 414 c 0,194,195
 177 418 177 418 175 422 c 1,196,-1
 175 422 l 1,197,198
 172 418 172 418 169 414 c 0,199,200
 154.9375 399.9375 154.9375 399.9375 135.6015625 399.9375 c 0,201,202
 134.3125 399.9375 134.3125 399.9375 133 400 c 256,203,204
 112 400 112 400 98 414 c 0,205,206
 94 418 94 418 92 422 c 1,207,-1
 92 422 l 1,208,209
 89 418 89 418 85 414 c 0,210,211
 70.9375 399.9375 70.9375 399.9375 52.48046875 399.9375 c 0,212,213
 51.25 399.9375 51.25 399.9375 50 400 c 1,214,-1
 50 400 l 1,118,119
EndSplineSet
Validated: 5
EndChar

StartChar: greater
Encoding: 62 62 30
Width: 500
VWidth: 699
Flags: W
LayerCount: 2
Fore
SplineSet
133 0 m 1,0,1
 112 0 112 0 98 15 c 0,2,3
 83 30 83 30 83 50 c 256,4,5
 83 71 83 71 98 85 c 256,6,7
 113 100 113 100 133 100 c 256,8,9
 154 100 154 100 169 85 c 0,10,11
 183.0625 70.9375 183.0625 70.9375 183.0625 52.48046875 c 0,12,13
 183.0625 29.0625 183.0625 29.0625 169 15 c 0,14,15
 154 0 154 0 133 0 c 1,16,-1
 133 0 l 1,0,1
216 100 m 1,17,18
 195 100 195 100 181 115 c 0,19,20
 166.9375 129.0625 166.9375 129.0625 166.9375 147.51953125 c 0,21,22
 166.9375 171.9375 166.9375 171.9375 181 186 c 128,-1,23
 195.0625 200.0625 195.0625 200.0625 213.51953125 200.0625 c 0,24,25
 214.75 200.0625 214.75 200.0625 216 200 c 256,26,27
 237 200 237 200 252 186 c 256,28,29
 267 171 267 171 267 150 c 256,30,31
 267 129 267 129 252 115 c 0,32,33
 237 100 237 100 216 100 c 1,34,-1
 216 100 l 1,17,18
300 200 m 1,35,36
 279 200 279 200 265 214 c 0,37,38
 250 229 250 229 250 250 c 256,39,40
 250 271 250 271 265 285 c 256,41,42
 280 300 280 300 300 300 c 256,43,44
 321 300 321 300 335 285 c 0,45,46
 350 270 350 270 350 250 c 256,47,48
 350 229 350 229 335 214 c 0,49,50
 320.9375 199.9375 320.9375 199.9375 302.48046875 199.9375 c 0,51,52
 301.25 199.9375 301.25 199.9375 300 200 c 1,53,-1
 300 200 l 1,35,36
384 300 m 1,54,55
 363 300 363 300 348 314 c 0,56,57
 333 329 333 329 333 350 c 128,-1,58
 333 371 333 371 348 386 c 0,59,60
 362.0625 400.0625 362.0625 400.0625 381.3984375 400.0625 c 0,61,62
 382.6875 400.0625 382.6875 400.0625 384 400 c 0,63,64
 405 400 405 400 419 386 c 128,-1,65
 433.0625 371.9375 433.0625 371.9375 433.0625 352.6015625 c 0,66,67
 433.0625 329.066964286 433.0625 329.066964286 419 314 c 0,68,69
 404.9375 299.9375 404.9375 299.9375 386.48046875 299.9375 c 0,70,71
 385.25 299.9375 385.25 299.9375 384 300 c 1,72,-1
 384 300 l 1,54,55
300 400 m 1,73,74
 279 400 279 400 265 414 c 256,75,76
 250 429 250 429 250 450 c 256,77,78
 250 471 250 471 265 485 c 0,79,80
 280 500 280 500 300 500 c 256,81,82
 321 500 321 500 335 485 c 0,83,84
 350 470 350 470 350 450 c 256,85,86
 350 429 350 429 335 414 c 0,87,88
 320.9375 399.9375 320.9375 399.9375 302.48046875 399.9375 c 0,89,90
 301.25 399.9375 301.25 399.9375 300 400 c 1,91,-1
 300 400 l 1,73,74
216 500 m 1,92,93
 195 500 195 500 181 514 c 128,-1,94
 166.9375 528.0625 166.9375 528.0625 166.9375 547.3984375 c 0,95,96
 166.9375 570.9375 166.9375 570.9375 181 585 c 0,97,98
 196 600 196 600 216 600 c 256,99,100
 237 600 237 600 252 585 c 128,-1,101
 267 570 267 570 267 550 c 256,102,103
 267 528 267 528 252 514 c 256,104,105
 237.9375 499.9375 237.9375 499.9375 218.6015625 499.9375 c 0,106,107
 217.3125 499.9375 217.3125 499.9375 216 500 c 1,108,-1
 216 500 l 1,92,93
133 600 m 1,109,110
 112 600 112 600 98 615 c 256,111,112
 83 630 83 630 83 650 c 256,113,114
 83 671 83 671 98 685 c 256,115,116
 113 700 113 700 133 700 c 256,117,118
 154 700 154 700 169 685 c 0,119,120
 183.0625 670.9375 183.0625 670.9375 183.0625 652.48046875 c 0,121,122
 183.0625 629.0625 183.0625 629.0625 169 615 c 0,123,124
 154 600 154 600 133 600 c 1,125,-1
 133 600 l 1,109,110
EndSplineSet
Validated: 5
EndChar

StartChar: question
Encoding: 63 63 31
Width: 500
VWidth: 699
Flags: W
LayerCount: 2
Fore
SplineSet
216 0 m 1,0,1
 195 0 195 0 181 15 c 0,2,3
 166.9375 29.0625 166.9375 29.0625 166.9375 47.51953125 c 0,4,5
 166.9375 70.9375 166.9375 70.9375 181 85 c 0,6,7
 196 100 196 100 216 100 c 256,8,9
 237 100 237 100 252 85 c 256,10,11
 267 70 267 70 267 50 c 256,12,13
 267 29 267 29 252 15 c 0,14,15
 237 0 237 0 216 0 c 1,16,-1
 216 0 l 1,0,1
216 200 m 1,17,18
 195 200 195 200 181 214 c 128,-1,19
 166.9375 228.0625 166.9375 228.0625 166.9375 247.3984375 c 0,20,21
 166.9375 270.9375 166.9375 270.9375 181 285 c 0,22,23
 196 300 196 300 216 300 c 256,24,25
 237 300 237 300 252 285 c 256,26,27
 267 270 267 270 267 250 c 256,28,29
 267 229 267 229 252 214 c 0,30,31
 237.9375 199.9375 237.9375 199.9375 218.6015625 199.9375 c 0,32,33
 217.3125 199.9375 217.3125 199.9375 216 200 c 1,34,-1
 216 200 l 1,17,18
216 300 m 1,35,36
 195 300 195 300 181 314 c 128,-1,37
 166.9375 328.0625 166.9375 328.0625 166.9375 347.3984375 c 0,38,39
 166.9375 370.933035714 166.9375 370.933035714 181 386 c 0,40,41
 195.0625 400.0625 195.0625 400.0625 213.51953125 400.0625 c 0,42,43
 214.75 400.0625 214.75 400.0625 216 400 c 256,44,45
 237 400 237 400 252 386 c 0,46,47
 267 371 267 371 267 350 c 128,-1,48
 267 329 267 329 252 314 c 0,49,50
 237.9375 299.9375 237.9375 299.9375 218.6015625 299.9375 c 0,51,52
 217.3125 299.9375 217.3125 299.9375 216 300 c 1,53,-1
 216 300 l 1,35,36
300 400 m 1,54,55
 279 400 279 400 265 414 c 256,56,57
 250 429 250 429 250 450 c 256,58,59
 250 471 250 471 265 485 c 0,60,61
 280 500 280 500 300 500 c 256,62,63
 321 500 321 500 335 485 c 0,64,65
 350 470 350 470 350 450 c 256,66,67
 350 429 350 429 335 414 c 0,68,69
 320.9375 399.9375 320.9375 399.9375 302.48046875 399.9375 c 0,70,71
 301.25 399.9375 301.25 399.9375 300 400 c 1,72,-1
 300 400 l 1,54,55
50 500 m 1,73,74
 29 500 29 500 15 514 c 0,75,76
 0 529 0 529 0 550 c 256,77,78
 0 571 0 571 15 585 c 0,79,80
 30 600 30 600 50 600 c 256,81,82
 71 600 71 600 85 585 c 0,83,84
 100 570 100 570 100 550 c 256,85,86
 100 528 100 528 85 514 c 256,87,88
 70.9375 499.9375 70.9375 499.9375 52.48046875 499.9375 c 0,89,90
 51.25 499.9375 51.25 499.9375 50 500 c 1,91,-1
 50 500 l 1,73,74
384 500 m 1,92,93
 363 500 363 500 348 514 c 0,94,95
 333 529 333 529 333 550 c 256,96,97
 333 571 333 571 348 585 c 0,98,99
 363 600 363 600 384 600 c 128,-1,100
 405 600 405 600 419 585 c 0,101,102
 433.0625 570.9375 433.0625 570.9375 433.0625 552.48046875 c 0,103,104
 433.0625 528.0625 433.0625 528.0625 419 514 c 128,-1,105
 404.9375 499.9375 404.9375 499.9375 386.48046875 499.9375 c 0,106,107
 385.25 499.9375 385.25 499.9375 384 500 c 1,108,-1
 384 500 l 1,92,93
175 622 m 1,109,-1
 175 622 l 1,110,-1
 175 622 l 1,111,-1
 175 622 l 1,112,-1
 175 622 l 1,109,-1
133 600 m 1,113,114
 112 600 112 600 98 615 c 256,115,116
 83 630 83 630 83 650 c 256,117,118
 83 671 83 671 98 685 c 256,119,120
 113 700 113 700 133 700 c 256,121,122
 154 700 154 700 169 685 c 0,123,124
 173 681 173 681 175 678 c 1,125,-1
 175 678 l 1,126,127
 178 682 178 682 181 685 c 0,128,129
 196 700 196 700 216 700 c 256,130,131
 237 700 237 700 252 685 c 0,132,133
 256 681 256 681 258 678 c 1,134,-1
 258 678 l 1,135,136
 261 682 261 682 265 685 c 0,137,138
 280 700 280 700 300 700 c 256,139,140
 321 700 321 700 335 685 c 0,141,142
 350 670 350 670 350 650 c 256,143,144
 350 629 350 629 335 615 c 0,145,146
 320 600 320 600 300 600 c 256,147,148
 279 600 279 600 265 615 c 0,149,150
 261 619 261 619 258 622 c 1,151,-1
 258 622 l 1,152,153
 255 618 255 618 252 615 c 0,154,155
 237 600 237 600 216 600 c 256,156,157
 195 600 195 600 181 615 c 0,158,159
 177 619 177 619 175 622 c 1,160,-1
 175 622 l 1,161,162
 172 618 172 618 169 615 c 0,163,164
 154 600 154 600 133 600 c 1,165,-1
 133 600 l 1,113,114
EndSplineSet
Validated: 5
EndChar

StartChar: at
Encoding: 64 64 32
Width: 500
VWidth: 699
Flags: W
LayerCount: 2
Fore
SplineSet
342 22 m 1,0,1
 342 22 l 1,2,-1
 342 22 l 1,3,4
 342 22 l 1,5,-1
 342 22 l 1,0,1
175 22 m 1,6,7
 175 22 l 1,8,-1
 175 22 l 1,9,10
 175 22 l 1,11,-1
 175 22 l 1,6,7
133 0 m 1,12,13
 112 0 112 0 98 15 c 0,14,15
 83 30 83 30 83 50 c 256,16,17
 83 71 83 71 98 85 c 256,18,19
 113 100 113 100 133 100 c 256,20,21
 154 100 154 100 169 85 c 0,22,23
 173 81 173 81 175 78 c 1,24,-1
 175 78 l 1,25,26
 178 82 178 82 181 85 c 0,27,28
 196 100 196 100 216 100 c 256,29,30
 237 100 237 100 252 85 c 0,31,32
 256 81 256 81 258 78 c 1,33,-1
 258 78 l 1,34,35
 261 82 261 82 265 85 c 0,36,37
 280 100 280 100 300 100 c 256,38,39
 321 100 321 100 335 85 c 0,40,41
 339 81 339 81 342 78 c 1,42,-1
 342 78 l 1,43,44
 345 82 345 82 348 85 c 0,45,46
 363 100 363 100 384 100 c 128,-1,47
 405 100 405 100 419 85 c 0,48,49
 433.0625 70.9375 433.0625 70.9375 433.0625 52.48046875 c 0,50,51
 433.0625 29.0625 433.0625 29.0625 419 15 c 0,52,53
 404 0 404 0 384 0 c 0,54,55
 363 0 363 0 348 15 c 0,56,57
 344 19 344 19 342 22 c 1,58,59
 339 18 339 18 335 15 c 0,60,61
 320 0 320 0 300 0 c 256,62,63
 279 0 279 0 265 15 c 0,64,65
 261 19 261 19 258 22 c 1,66,67
 255 18 255 18 252 15 c 0,68,69
 237 0 237 0 216 0 c 256,70,71
 195 0 195 0 181 15 c 0,72,73
 177 19 177 19 175 22 c 1,74,75
 172 18 172 18 169 15 c 0,76,77
 154 0 154 0 133 0 c 1,78,-1
 133 0 l 1,12,13
50 100 m 1,79,80
 29 100 29 100 15 115 c 0,81,82
 0 130 0 130 0 150 c 256,83,84
 0 172 0 172 15 186 c 0,85,86
 29.0625 200.0625 29.0625 200.0625 47.51953125 200.0625 c 0,87,88
 48.75 200.0625 48.75 200.0625 50 200 c 256,89,90
 71 200 71 200 85 186 c 256,91,92
 100 171 100 171 100 150 c 256,93,94
 100 129 100 129 85 115 c 0,95,96
 70 100 70 100 50 100 c 1,97,-1
 50 100 l 1,79,80
258 222 m 1,98,-1
 258 222 l 1,99,-1
 258 222 l 1,100,101
 258 222 l 1,102,-1
 258 222 l 1,98,-1
50 200 m 1,103,104
 29 200 29 200 15 214 c 0,105,106
 0 229 0 229 0 250 c 256,107,108
 0 271 0 271 15 285 c 0,109,110
 30 300 30 300 50 300 c 256,111,112
 71 300 71 300 85 285 c 256,113,114
 100 270 100 270 100 250 c 256,115,116
 100 229 100 229 85 214 c 0,117,118
 70.9375 199.9375 70.9375 199.9375 52.48046875 199.9375 c 0,119,120
 51.25 199.9375 51.25 199.9375 50 200 c 1,121,-1
 50 200 l 1,103,104
216 200 m 1,122,123
 195 200 195 200 181 214 c 128,-1,124
 166.9375 228.0625 166.9375 228.0625 166.9375 247.3984375 c 0,125,126
 166.9375 270.9375 166.9375 270.9375 181 285 c 0,127,128
 196 300 196 300 216 300 c 256,129,130
 237 300 237 300 252 285 c 0,131,132
 256 281 256 281 258 278 c 1,133,-1
 258 278 l 1,134,135
 261 282 261 282 265 285 c 0,136,137
 280 300 280 300 300 300 c 256,138,139
 321 300 321 300 335 285 c 0,140,141
 350 270 350 270 350 250 c 256,142,143
 350 229 350 229 335 214 c 0,144,145
 320.9375 199.9375 320.9375 199.9375 302.48046875 199.9375 c 0,146,147
 301.25 199.9375 301.25 199.9375 300 200 c 256,148,149
 279 200 279 200 265 214 c 0,150,151
 261 218 261 218 258 222 c 1,152,-1
 258 222 l 1,153,154
 255 218 255 218 252 214 c 0,155,156
 237.9375 199.9375 237.9375 199.9375 218.6015625 199.9375 c 0,157,158
 217.3125 199.9375 217.3125 199.9375 216 200 c 1,159,-1
 216 200 l 1,122,123
342 322 m 1,160,-1
 342 322 l 1,161,-1
 342 322 l 1,162,-1
 342 322 l 1,163,-1
 342 322 l 1,160,-1
258 322 m 1,164,-1
 258 322 l 1,165,-1
 258 322 l 1,166,-1
 258 322 l 1,167,-1
 258 322 l 1,164,-1
50 300 m 1,168,169
 29 300 29 300 15 314 c 0,170,171
 0 329 0 329 0 350 c 128,-1,172
 0 371 0 371 15 386 c 0,173,174
 29.0625 400.0625 29.0625 400.0625 47.51953125 400.0625 c 0,175,176
 48.75 400.0625 48.75 400.0625 50 400 c 256,177,178
 71 400 71 400 85 386 c 0,179,180
 100 371 100 371 100 350 c 128,-1,181
 100 329 100 329 85 314 c 0,182,183
 70.9375 299.9375 70.9375 299.9375 52.48046875 299.9375 c 0,184,185
 51.25 299.9375 51.25 299.9375 50 300 c 1,186,-1
 50 300 l 1,168,169
216 300 m 1,187,188
 195 300 195 300 181 314 c 128,-1,189
 166.9375 328.0625 166.9375 328.0625 166.9375 347.3984375 c 0,190,191
 166.9375 370.933035714 166.9375 370.933035714 181 386 c 0,192,193
 195.0625 400.0625 195.0625 400.0625 213.51953125 400.0625 c 0,194,195
 214.75 400.0625 214.75 400.0625 216 400 c 256,196,197
 237 400 237 400 252 386 c 0,198,199
 256 382 256 382 258 378 c 1,200,-1
 258 378 l 1,201,202
 261 382 261 382 265 386 c 0,203,204
 279.0625 400.0625 279.0625 400.0625 297.51953125 400.0625 c 0,205,206
 298.75 400.0625 298.75 400.0625 300 400 c 256,207,208
 321 400 321 400 335 386 c 0,209,210
 339 382 339 382 342 378 c 1,211,-1
 342 378 l 1,212,213
 345 382 345 382 348 386 c 0,214,215
 362.0625 400.0625 362.0625 400.0625 381.3984375 400.0625 c 0,216,217
 382.6875 400.0625 382.6875 400.0625 384 400 c 0,218,219
 405 400 405 400 419 386 c 128,-1,220
 433.0625 371.9375 433.0625 371.9375 433.0625 352.6015625 c 0,221,222
 433.0625 329.066964286 433.0625 329.066964286 419 314 c 0,223,224
 404.9375 299.9375 404.9375 299.9375 386.48046875 299.9375 c 0,225,226
 385.25 299.9375 385.25 299.9375 384 300 c 0,227,228
 363 300 363 300 348 314 c 0,229,230
 344 318 344 318 342 322 c 1,231,232
 339 318 339 318 335 314 c 0,233,234
 320.9375 299.9375 320.9375 299.9375 302.48046875 299.9375 c 0,235,236
 301.25 299.9375 301.25 299.9375 300 300 c 256,237,238
 279 300 279 300 265 314 c 0,239,240
 261 318 261 318 258 322 c 1,241,-1
 258 322 l 1,242,243
 255 318 255 318 252 314 c 0,244,245
 237.9375 299.9375 237.9375 299.9375 218.6015625 299.9375 c 0,246,247
 217.3125 299.9375 217.3125 299.9375 216 300 c 1,248,-1
 216 300 l 1,187,188
50 400 m 1,249,250
 29 400 29 400 15 414 c 0,251,252
 0 429 0 429 0 450 c 256,253,254
 0 471 0 471 15 485 c 0,255,256
 30 500 30 500 50 500 c 256,257,258
 71 500 71 500 85 485 c 0,259,260
 100 470 100 470 100 450 c 256,261,262
 100 429 100 429 85 414 c 256,263,264
 70.9375 399.9375 70.9375 399.9375 52.48046875 399.9375 c 0,265,266
 51.25 399.9375 51.25 399.9375 50 400 c 1,267,-1
 50 400 l 1,249,250
216 400 m 1,268,269
 195 400 195 400 181 414 c 128,-1,270
 166.9375 428.0625 166.9375 428.0625 166.9375 447.3984375 c 0,271,272
 166.9375 470.9375 166.9375 470.9375 181 485 c 0,273,274
 196 500 196 500 216 500 c 256,275,276
 237 500 237 500 252 485 c 128,-1,277
 267 470 267 470 267 450 c 256,278,279
 267 429 267 429 252 414 c 256,280,281
 237.9375 399.9375 237.9375 399.9375 218.6015625 399.9375 c 0,282,283
 217.3125 399.9375 217.3125 399.9375 216 400 c 1,284,-1
 216 400 l 1,268,269
384 400 m 1,285,286
 363 400 363 400 348 414 c 0,287,288
 333 429 333 429 333 450 c 256,289,290
 333 471 333 471 348 485 c 0,291,292
 363 500 363 500 384 500 c 128,-1,293
 405 500 405 500 419 485 c 0,294,295
 433.0625 470.9375 433.0625 470.9375 433.0625 452.48046875 c 0,296,297
 433.0625 429.066964286 433.0625 429.066964286 419 414 c 0,298,299
 404.9375 399.9375 404.9375 399.9375 386.48046875 399.9375 c 0,300,301
 385.25 399.9375 385.25 399.9375 384 400 c 1,302,-1
 384 400 l 1,285,286
50 500 m 1,303,304
 29 500 29 500 15 514 c 0,305,306
 0 529 0 529 0 550 c 256,307,308
 0 571 0 571 15 585 c 0,309,310
 30 600 30 600 50 600 c 256,311,312
 71 600 71 600 85 585 c 0,313,314
 100 570 100 570 100 550 c 256,315,316
 100 528 100 528 85 514 c 256,317,318
 70.9375 499.9375 70.9375 499.9375 52.48046875 499.9375 c 0,319,320
 51.25 499.9375 51.25 499.9375 50 500 c 1,321,-1
 50 500 l 1,303,304
384 500 m 1,322,323
 363 500 363 500 348 514 c 0,324,325
 333 529 333 529 333 550 c 256,326,327
 333 571 333 571 348 585 c 0,328,329
 363 600 363 600 384 600 c 128,-1,330
 405 600 405 600 419 585 c 0,331,332
 433.0625 570.9375 433.0625 570.9375 433.0625 552.48046875 c 0,333,334
 433.0625 528.0625 433.0625 528.0625 419 514 c 128,-1,335
 404.9375 499.9375 404.9375 499.9375 386.48046875 499.9375 c 0,336,337
 385.25 499.9375 385.25 499.9375 384 500 c 1,338,-1
 384 500 l 1,322,323
175 622 m 1,339,-1
 175 622 l 1,340,-1
 175 622 l 1,341,-1
 175 622 l 1,342,-1
 175 622 l 1,339,-1
258 622 m 1,343,-1
 258 622 l 1,344,-1
 258 622 l 1,345,-1
 258 622 l 1,346,-1
 258 622 l 1,343,-1
133 600 m 1,347,348
 112 600 112 600 98 615 c 256,349,350
 83 630 83 630 83 650 c 256,351,352
 83 671 83 671 98 685 c 256,353,354
 113 700 113 700 133 700 c 256,355,356
 154 700 154 700 169 685 c 0,357,358
 173 681 173 681 175 678 c 1,359,-1
 175 678 l 1,360,361
 178 682 178 682 181 685 c 0,362,363
 196 700 196 700 216 700 c 256,364,365
 237 700 237 700 252 685 c 0,366,367
 256 681 256 681 258 678 c 1,368,-1
 258 678 l 1,369,370
 261 682 261 682 265 685 c 0,371,372
 280 700 280 700 300 700 c 256,373,374
 321 700 321 700 335 685 c 0,375,376
 350 670 350 670 350 650 c 256,377,378
 350 629 350 629 335 615 c 0,379,380
 320 600 320 600 300 600 c 256,381,382
 279 600 279 600 265 615 c 0,383,384
 261 619 261 619 258 622 c 1,385,-1
 258 622 l 1,386,387
 255 618 255 618 252 615 c 0,388,389
 237 600 237 600 216 600 c 256,390,391
 195 600 195 600 181 615 c 0,392,393
 177 619 177 619 175 622 c 1,394,-1
 175 622 l 1,395,396
 172 618 172 618 169 615 c 0,397,398
 154 600 154 600 133 600 c 1,399,-1
 133 600 l 1,347,348
EndSplineSet
Validated: 5
EndChar

StartChar: A
Encoding: 65 65 33
Width: 500
VWidth: 699
Flags: W
LayerCount: 2
Fore
SplineSet
50 0 m 1,0,1
 29 0 29 0 15 15 c 0,2,3
 0 30 0 30 0 50 c 256,4,5
 0 71 0 71 15 85 c 0,6,7
 30 100 30 100 50 100 c 256,8,9
 71 100 71 100 85 85 c 256,10,11
 100 70 100 70 100 50 c 256,12,13
 100 29 100 29 85 15 c 0,14,15
 70 0 70 0 50 0 c 1,16,-1
 50 0 l 1,0,1
384 0 m 1,17,18
 363 0 363 0 348 15 c 128,-1,19
 333 30 333 30 333 50 c 256,20,21
 333 71 333 71 348 85 c 0,22,23
 363 100 363 100 384 100 c 128,-1,24
 405 100 405 100 419 85 c 0,25,26
 433.0625 70.9375 433.0625 70.9375 433.0625 52.48046875 c 0,27,28
 433.0625 29.0625 433.0625 29.0625 419 15 c 0,29,30
 404 0 404 0 384 0 c 1,31,-1
 384 0 l 1,17,18
50 100 m 1,32,33
 29 100 29 100 15 115 c 0,34,35
 0 130 0 130 0 150 c 256,36,37
 0 172 0 172 15 186 c 0,38,39
 29.0625 200.0625 29.0625 200.0625 47.51953125 200.0625 c 0,40,41
 48.75 200.0625 48.75 200.0625 50 200 c 256,42,43
 71 200 71 200 85 186 c 256,44,45
 100 171 100 171 100 150 c 256,46,47
 100 129 100 129 85 115 c 0,48,49
 70 100 70 100 50 100 c 1,50,-1
 50 100 l 1,32,33
384 100 m 1,51,52
 363 100 363 100 348 115 c 128,-1,53
 333 130 333 130 333 150 c 256,54,55
 333 172 333 172 348 186 c 0,56,57
 362.0625 200.0625 362.0625 200.0625 381.3984375 200.0625 c 0,58,59
 382.6875 200.0625 382.6875 200.0625 384 200 c 0,60,61
 405 200 405 200 419 186 c 128,-1,62
 433.0625 171.9375 433.0625 171.9375 433.0625 152.6015625 c 0,63,64
 433.0625 129.0625 433.0625 129.0625 419 115 c 0,65,66
 404 100 404 100 384 100 c 1,67,-1
 384 100 l 1,51,52
92 222 m 1,68,69
 92 222 l 1,70,-1
 92 222 l 1,71,72
 92 222 l 1,73,-1
 92 222 l 1,68,69
258 222 m 1,74,75
 258 222 l 1,76,-1
 258 222 l 1,77,78
 258 222 l 1,79,-1
 258 222 l 1,74,75
50 200 m 1,80,81
 29 200 29 200 15 214 c 0,82,83
 0 229 0 229 0 250 c 256,84,85
 0 271 0 271 15 285 c 0,86,87
 30 300 30 300 50 300 c 256,88,89
 71 300 71 300 85 285 c 0,90,91
 89 281 89 281 92 278 c 1,92,-1
 92 278 l 1,93,94
 95 282 95 282 98 285 c 0,95,96
 113 300 113 300 133 300 c 256,97,98
 154 300 154 300 169 285 c 0,99,100
 173 281 173 281 175 278 c 1,101,-1
 175 278 l 1,102,103
 178 282 178 282 181 285 c 0,104,105
 196 300 196 300 216 300 c 256,106,107
 237 300 237 300 252 285 c 0,108,109
 256 281 256 281 258 278 c 1,110,-1
 258 278 l 1,111,112
 261 282 261 282 265 285 c 0,113,114
 280 300 280 300 300 300 c 256,115,116
 321 300 321 300 335 285 c 0,117,118
 339 281 339 281 342 278 c 1,119,-1
 342 278 l 1,120,121
 345 282 345 282 348 285 c 0,122,123
 363 300 363 300 384 300 c 128,-1,124
 405 300 405 300 419 285 c 0,125,126
 433.0625 270.9375 433.0625 270.9375 433.0625 252.48046875 c 0,127,128
 433.0625 229.066964286 433.0625 229.066964286 419 214 c 0,129,130
 404.9375 199.9375 404.9375 199.9375 386.48046875 199.9375 c 0,131,132
 385.25 199.9375 385.25 199.9375 384 200 c 0,133,134
 363 200 363 200 348 214 c 0,135,136
 344 218 344 218 342 222 c 1,137,138
 339 218 339 218 335 214 c 0,139,140
 320.9375 199.9375 320.9375 199.9375 302.48046875 199.9375 c 0,141,142
 301.25 199.9375 301.25 199.9375 300 200 c 256,143,144
 279 200 279 200 265 214 c 0,145,146
 261 218 261 218 258 222 c 1,147,148
 255 218 255 218 252 214 c 0,149,150
 237.9375 199.9375 237.9375 199.9375 218.6015625 199.9375 c 0,151,152
 217.3125 199.9375 217.3125 199.9375 216 200 c 256,153,154
 195 200 195 200 181 214 c 0,155,156
 177 218 177 218 175 222 c 1,157,158
 172 218 172 218 169 214 c 0,159,160
 154.9375 199.9375 154.9375 199.9375 135.6015625 199.9375 c 0,161,162
 134.3125 199.9375 134.3125 199.9375 133 200 c 256,163,164
 112 200 112 200 98 214 c 0,165,166
 94 218 94 218 92 222 c 1,167,168
 89 218 89 218 85 214 c 0,169,170
 70.9375 199.9375 70.9375 199.9375 52.48046875 199.9375 c 0,171,172
 51.25 199.9375 51.25 199.9375 50 200 c 1,173,-1
 50 200 l 1,80,81
50 300 m 1,174,175
 29 300 29 300 15 314 c 0,176,177
 0 329 0 329 0 350 c 128,-1,178
 0 371 0 371 15 386 c 0,179,180
 29.0625 400.0625 29.0625 400.0625 47.51953125 400.0625 c 0,181,182
 48.75 400.0625 48.75 400.0625 50 400 c 256,183,184
 71 400 71 400 85 386 c 0,185,186
 100 371 100 371 100 350 c 128,-1,187
 100 329 100 329 85 314 c 0,188,189
 70.9375 299.9375 70.9375 299.9375 52.48046875 299.9375 c 0,190,191
 51.25 299.9375 51.25 299.9375 50 300 c 1,192,-1
 50 300 l 1,174,175
384 300 m 1,193,194
 363 300 363 300 348 314 c 0,195,196
 333 329 333 329 333 350 c 128,-1,197
 333 371 333 371 348 386 c 0,198,199
 362.0625 400.0625 362.0625 400.0625 381.3984375 400.0625 c 0,200,201
 382.6875 400.0625 382.6875 400.0625 384 400 c 0,202,203
 405 400 405 400 419 386 c 128,-1,204
 433.0625 371.9375 433.0625 371.9375 433.0625 352.6015625 c 0,205,206
 433.0625 329.066964286 433.0625 329.066964286 419 314 c 0,207,208
 404.9375 299.9375 404.9375 299.9375 386.48046875 299.9375 c 0,209,210
 385.25 299.9375 385.25 299.9375 384 300 c 1,211,-1
 384 300 l 1,193,194
50 400 m 1,212,213
 29 400 29 400 15 414 c 0,214,215
 0 429 0 429 0 450 c 256,216,217
 0 471 0 471 15 485 c 0,218,219
 30 500 30 500 50 500 c 256,220,221
 71 500 71 500 85 485 c 0,222,223
 100 470 100 470 100 450 c 256,224,225
 100 429 100 429 85 414 c 256,226,227
 70.9375 399.9375 70.9375 399.9375 52.48046875 399.9375 c 0,228,229
 51.25 399.9375 51.25 399.9375 50 400 c 1,230,-1
 50 400 l 1,212,213
384 400 m 1,231,232
 363 400 363 400 348 414 c 0,233,234
 333 429 333 429 333 450 c 256,235,236
 333 471 333 471 348 485 c 0,237,238
 363 500 363 500 384 500 c 128,-1,239
 405 500 405 500 419 485 c 0,240,241
 433.0625 470.9375 433.0625 470.9375 433.0625 452.48046875 c 0,242,243
 433.0625 429.066964286 433.0625 429.066964286 419 414 c 0,244,245
 404.9375 399.9375 404.9375 399.9375 386.48046875 399.9375 c 0,246,247
 385.25 399.9375 385.25 399.9375 384 400 c 1,248,-1
 384 400 l 1,231,232
133 500 m 1,249,250
 112 500 112 500 98 514 c 256,251,252
 83 529 83 529 83 550 c 256,253,254
 83 571 83 571 98 585 c 0,255,256
 113 600 113 600 133 600 c 256,257,258
 154 600 154 600 169 585 c 0,259,260
 183.0625 570.9375 183.0625 570.9375 183.0625 552.48046875 c 0,261,262
 183.0625 528.0625 183.0625 528.0625 169 514 c 128,-1,263
 154.9375 499.9375 154.9375 499.9375 135.6015625 499.9375 c 0,264,265
 134.3125 499.9375 134.3125 499.9375 133 500 c 1,266,-1
 133 500 l 1,249,250
300 500 m 1,267,268
 279 500 279 500 265 514 c 256,269,270
 250 529 250 529 250 550 c 256,271,272
 250 571 250 571 265 585 c 0,273,274
 280 600 280 600 300 600 c 256,275,276
 321 600 321 600 335 585 c 0,277,278
 350 570 350 570 350 550 c 256,279,280
 350 528 350 528 335 514 c 0,281,282
 320.9375 499.9375 320.9375 499.9375 302.48046875 499.9375 c 0,283,284
 301.25 499.9375 301.25 499.9375 300 500 c 1,285,-1
 300 500 l 1,267,268
216 600 m 1,286,287
 195 600 195 600 181 615 c 0,288,289
 166.9375 629.0625 166.9375 629.0625 166.9375 647.51953125 c 0,290,291
 166.9375 670.9375 166.9375 670.9375 181 685 c 0,292,293
 196 700 196 700 216 700 c 256,294,295
 237 700 237 700 252 685 c 256,296,297
 267 670 267 670 267 650 c 256,298,299
 267 629 267 629 252 615 c 256,300,301
 237 600 237 600 216 600 c 1,302,-1
 216 600 l 1,286,287
EndSplineSet
Validated: 5
EndChar

StartChar: B
Encoding: 66 66 34
Width: 500
VWidth: 699
Flags: W
LayerCount: 2
Fore
SplineSet
92 22 m 1,0,1
 92 22 l 1,2,-1
 92 22 l 1,3,4
 92 22 l 1,5,-1
 92 22 l 1,0,1
258 22 m 1,6,7
 258 22 l 1,8,-1
 258 22 l 1,9,10
 258 22 l 1,11,-1
 258 22 l 1,6,7
50 0 m 1,12,13
 29 0 29 0 15 15 c 0,14,15
 0 30 0 30 0 50 c 256,16,17
 0 71 0 71 15 85 c 0,18,19
 30 100 30 100 50 100 c 256,20,21
 71 100 71 100 85 85 c 0,22,23
 89 81 89 81 92 78 c 1,24,-1
 92 78 l 1,25,26
 95 82 95 82 98 85 c 0,27,28
 113 100 113 100 133 100 c 256,29,30
 154 100 154 100 169 85 c 0,31,32
 173 81 173 81 175 78 c 1,33,-1
 175 78 l 1,34,35
 178 82 178 82 181 85 c 0,36,37
 196 100 196 100 216 100 c 256,38,39
 237 100 237 100 252 85 c 0,40,41
 256 81 256 81 258 78 c 1,42,-1
 258 78 l 1,43,44
 261 82 261 82 265 85 c 0,45,46
 280 100 280 100 300 100 c 256,47,48
 321 100 321 100 335 85 c 0,49,50
 350 70 350 70 350 50 c 256,51,52
 350 29 350 29 335 15 c 0,53,54
 320 0 320 0 300 0 c 256,55,56
 279 0 279 0 265 15 c 0,57,58
 261 19 261 19 258 22 c 1,59,60
 255 18 255 18 252 15 c 0,61,62
 237 0 237 0 216 0 c 256,63,64
 195 0 195 0 181 15 c 0,65,66
 177 19 177 19 175 22 c 1,67,-1
 175 22 l 1,68,69
 172 18 172 18 169 15 c 0,70,71
 154 0 154 0 133 0 c 256,72,73
 112 0 112 0 98 15 c 0,74,75
 94 19 94 19 92 22 c 1,76,77
 89 18 89 18 85 15 c 0,78,79
 70 0 70 0 50 0 c 1,80,-1
 50 0 l 1,12,13
50 100 m 1,81,82
 29 100 29 100 15 115 c 0,83,84
 0 130 0 130 0 150 c 256,85,86
 0 172 0 172 15 186 c 0,87,88
 29.0625 200.0625 29.0625 200.0625 47.51953125 200.0625 c 0,89,90
 48.75 200.0625 48.75 200.0625 50 200 c 256,91,92
 71 200 71 200 85 186 c 256,93,94
 100 171 100 171 100 150 c 256,95,96
 100 129 100 129 85 115 c 0,97,98
 70 100 70 100 50 100 c 1,99,-1
 50 100 l 1,81,82
384 100 m 1,100,101
 363 100 363 100 348 115 c 128,-1,102
 333 130 333 130 333 150 c 256,103,104
 333 172 333 172 348 186 c 0,105,106
 362.0625 200.0625 362.0625 200.0625 381.3984375 200.0625 c 0,107,108
 382.6875 200.0625 382.6875 200.0625 384 200 c 0,109,110
 405 200 405 200 419 186 c 128,-1,111
 433.0625 171.9375 433.0625 171.9375 433.0625 152.6015625 c 0,112,113
 433.0625 129.0625 433.0625 129.0625 419 115 c 0,114,115
 404 100 404 100 384 100 c 1,116,-1
 384 100 l 1,100,101
50 200 m 1,117,118
 29 200 29 200 15 214 c 0,119,120
 0 229 0 229 0 250 c 256,121,122
 0 271 0 271 15 285 c 0,123,124
 30 300 30 300 50 300 c 256,125,126
 71 300 71 300 85 285 c 256,127,128
 100 270 100 270 100 250 c 256,129,130
 100 229 100 229 85 214 c 0,131,132
 70.9375 199.9375 70.9375 199.9375 52.48046875 199.9375 c 0,133,134
 51.25 199.9375 51.25 199.9375 50 200 c 1,135,-1
 50 200 l 1,117,118
384 200 m 1,136,137
 363 200 363 200 348 214 c 0,138,139
 333 229 333 229 333 250 c 256,140,141
 333 271 333 271 348 285 c 0,142,143
 363 300 363 300 384 300 c 128,-1,144
 405 300 405 300 419 285 c 0,145,146
 433.0625 270.9375 433.0625 270.9375 433.0625 252.48046875 c 0,147,148
 433.0625 229.066964286 433.0625 229.066964286 419 214 c 0,149,150
 404.9375 199.9375 404.9375 199.9375 386.48046875 199.9375 c 0,151,152
 385.25 199.9375 385.25 199.9375 384 200 c 1,153,-1
 384 200 l 1,136,137
92 322 m 1,154,-1
 92 322 l 1,155,-1
 92 322 l 1,156,-1
 92 322 l 1,157,-1
 92 322 l 1,154,-1
258 322 m 1,158,-1
 258 322 l 1,159,-1
 258 322 l 1,160,-1
 258 322 l 1,161,-1
 258 322 l 1,158,-1
50 300 m 1,162,163
 29 300 29 300 15 314 c 0,164,165
 0 329 0 329 0 350 c 128,-1,166
 0 371 0 371 15 386 c 0,167,168
 29.0625 400.0625 29.0625 400.0625 47.51953125 400.0625 c 0,169,170
 48.75 400.0625 48.75 400.0625 50 400 c 256,171,172
 71 400 71 400 85 386 c 0,173,174
 89 382 89 382 92 378 c 1,175,-1
 92 378 l 1,176,177
 95 382 95 382 98 386 c 0,178,179
 112.0625 400.0625 112.0625 400.0625 130.51953125 400.0625 c 0,180,181
 131.75 400.0625 131.75 400.0625 133 400 c 256,182,183
 154 400 154 400 169 386 c 0,184,185
 173 382 173 382 175 378 c 1,186,-1
 175 378 l 1,187,188
 178 382 178 382 181 386 c 0,189,190
 195.0625 400.0625 195.0625 400.0625 213.51953125 400.0625 c 0,191,192
 214.75 400.0625 214.75 400.0625 216 400 c 256,193,194
 237 400 237 400 252 386 c 0,195,196
 256 382 256 382 258 378 c 1,197,-1
 258 378 l 1,198,199
 261 382 261 382 265 386 c 0,200,201
 279.0625 400.0625 279.0625 400.0625 297.51953125 400.0625 c 0,202,203
 298.75 400.0625 298.75 400.0625 300 400 c 256,204,205
 321 400 321 400 335 386 c 0,206,207
 350 371 350 371 350 350 c 128,-1,208
 350 329 350 329 335 314 c 0,209,210
 320.9375 299.9375 320.9375 299.9375 302.48046875 299.9375 c 0,211,212
 301.25 299.9375 301.25 299.9375 300 300 c 256,213,214
 279 300 279 300 265 314 c 0,215,216
 261 318 261 318 258 322 c 1,217,218
 255 318 255 318 252 314 c 0,219,220
 237.9375 299.9375 237.9375 299.9375 218.6015625 299.9375 c 0,221,222
 217.3125 299.9375 217.3125 299.9375 216 300 c 256,223,224
 195 300 195 300 181 314 c 0,225,226
 177 318 177 318 175 322 c 1,227,228
 172 318 172 318 169 314 c 0,229,230
 154.9375 299.9375 154.9375 299.9375 135.6015625 299.9375 c 0,231,232
 134.3125 299.9375 134.3125 299.9375 133 300 c 256,233,234
 112 300 112 300 98 314 c 0,235,236
 94 318 94 318 92 322 c 1,237,238
 89 318 89 318 85 314 c 0,239,240
 70.9375 299.9375 70.9375 299.9375 52.48046875 299.9375 c 0,241,242
 51.25 299.9375 51.25 299.9375 50 300 c 1,243,-1
 50 300 l 1,162,163
50 400 m 1,244,245
 29 400 29 400 15 414 c 0,246,247
 0 429 0 429 0 450 c 256,248,249
 0 471 0 471 15 485 c 0,250,251
 30 500 30 500 50 500 c 256,252,253
 71 500 71 500 85 485 c 0,254,255
 100 470 100 470 100 450 c 256,256,257
 100 429 100 429 85 414 c 256,258,259
 70.9375 399.9375 70.9375 399.9375 52.48046875 399.9375 c 0,260,261
 51.25 399.9375 51.25 399.9375 50 400 c 1,262,-1
 50 400 l 1,244,245
384 400 m 1,263,264
 363 400 363 400 348 414 c 0,265,266
 333 429 333 429 333 450 c 256,267,268
 333 471 333 471 348 485 c 0,269,270
 363 500 363 500 384 500 c 128,-1,271
 405 500 405 500 419 485 c 0,272,273
 433.0625 470.9375 433.0625 470.9375 433.0625 452.48046875 c 0,274,275
 433.0625 429.066964286 433.0625 429.066964286 419 414 c 0,276,277
 404.9375 399.9375 404.9375 399.9375 386.48046875 399.9375 c 0,278,279
 385.25 399.9375 385.25 399.9375 384 400 c 1,280,-1
 384 400 l 1,263,264
50 500 m 1,281,282
 29 500 29 500 15 514 c 0,283,284
 0 529 0 529 0 550 c 256,285,286
 0 571 0 571 15 585 c 0,287,288
 30 600 30 600 50 600 c 256,289,290
 71 600 71 600 85 585 c 0,291,292
 100 570 100 570 100 550 c 256,293,294
 100 528 100 528 85 514 c 256,295,296
 70.9375 499.9375 70.9375 499.9375 52.48046875 499.9375 c 0,297,298
 51.25 499.9375 51.25 499.9375 50 500 c 1,299,-1
 50 500 l 1,281,282
384 500 m 1,300,301
 363 500 363 500 348 514 c 0,302,303
 333 529 333 529 333 550 c 256,304,305
 333 571 333 571 348 585 c 0,306,307
 363 600 363 600 384 600 c 128,-1,308
 405 600 405 600 419 585 c 0,309,310
 433.0625 570.9375 433.0625 570.9375 433.0625 552.48046875 c 0,311,312
 433.0625 528.0625 433.0625 528.0625 419 514 c 128,-1,313
 404.9375 499.9375 404.9375 499.9375 386.48046875 499.9375 c 0,314,315
 385.25 499.9375 385.25 499.9375 384 500 c 1,316,-1
 384 500 l 1,300,301
92 622 m 1,317,-1
 92 622 l 1,318,-1
 92 622 l 1,319,-1
 92 622 l 1,320,-1
 92 622 l 1,317,-1
258 622 m 1,321,-1
 258 622 l 1,322,-1
 258 622 l 1,323,-1
 258 622 l 1,324,-1
 258 622 l 1,321,-1
50 600 m 1,325,326
 29 600 29 600 15 615 c 0,327,328
 0 630 0 630 0 650 c 256,329,330
 0 671 0 671 15 685 c 0,331,332
 30 700 30 700 50 700 c 256,333,334
 71 700 71 700 85 685 c 0,335,336
 89 681 89 681 92 678 c 1,337,-1
 92 678 l 1,338,339
 95 682 95 682 98 685 c 0,340,341
 113 700 113 700 133 700 c 256,342,343
 154 700 154 700 169 685 c 0,344,345
 173 681 173 681 175 678 c 1,346,-1
 175 678 l 1,347,348
 178 682 178 682 181 685 c 0,349,350
 196 700 196 700 216 700 c 256,351,352
 237 700 237 700 252 685 c 0,353,354
 256 681 256 681 258 678 c 1,355,-1
 258 678 l 1,356,357
 261 682 261 682 265 685 c 0,358,359
 280 700 280 700 300 700 c 256,360,361
 321 700 321 700 335 685 c 0,362,363
 350 670 350 670 350 650 c 256,364,365
 350 629 350 629 335 615 c 0,366,367
 320 600 320 600 300 600 c 256,368,369
 279 600 279 600 265 615 c 0,370,371
 261 619 261 619 258 622 c 1,372,-1
 258 622 l 1,373,374
 255 618 255 618 252 615 c 0,375,376
 237 600 237 600 216 600 c 256,377,378
 195 600 195 600 181 615 c 0,379,380
 177 619 177 619 175 622 c 1,381,382
 172 618 172 618 169 615 c 0,383,384
 154 600 154 600 133 600 c 256,385,386
 112 600 112 600 98 615 c 0,387,388
 94 619 94 619 92 622 c 1,389,390
 89 618 89 618 85 615 c 0,391,392
 70 600 70 600 50 600 c 1,393,-1
 50 600 l 1,325,326
EndSplineSet
Validated: 5
EndChar

StartChar: C
Encoding: 67 67 35
Width: 500
VWidth: 699
Flags: W
LayerCount: 2
Fore
SplineSet
175 22 m 1,0,1
 175 22 l 1,2,-1
 175 22 l 1,3,4
 175 22 l 1,5,-1
 175 22 l 1,0,1
133 0 m 1,6,7
 112 0 112 0 98 15 c 0,8,9
 83 30 83 30 83 50 c 256,10,11
 83 71 83 71 98 85 c 256,12,13
 113 100 113 100 133 100 c 256,14,15
 154 100 154 100 169 85 c 0,16,17
 173 81 173 81 175 78 c 1,18,-1
 175 78 l 1,19,20
 178 82 178 82 181 85 c 0,21,22
 196 100 196 100 216 100 c 256,23,24
 237 100 237 100 252 85 c 0,25,26
 256 81 256 81 258 78 c 1,27,-1
 258 78 l 1,28,29
 261 82 261 82 265 85 c 0,30,31
 280 100 280 100 300 100 c 256,32,33
 321 100 321 100 335 85 c 0,34,35
 350 70 350 70 350 50 c 256,36,37
 350 29 350 29 335 15 c 0,38,39
 320 0 320 0 300 0 c 256,40,41
 279 0 279 0 265 15 c 0,42,43
 261 19 261 19 258 22 c 1,44,45
 255 18 255 18 252 15 c 0,46,47
 237 0 237 0 216 0 c 256,48,49
 195 0 195 0 181 15 c 0,50,51
 177 19 177 19 175 22 c 1,52,53
 172 18 172 18 169 15 c 0,54,55
 154 0 154 0 133 0 c 1,56,-1
 133 0 l 1,6,7
50 100 m 1,57,58
 29 100 29 100 15 115 c 0,59,60
 0 130 0 130 0 150 c 256,61,62
 0 172 0 172 15 186 c 0,63,64
 29.0625 200.0625 29.0625 200.0625 47.51953125 200.0625 c 0,65,66
 48.75 200.0625 48.75 200.0625 50 200 c 256,67,68
 71 200 71 200 85 186 c 256,69,70
 100 171 100 171 100 150 c 256,71,72
 100 129 100 129 85 115 c 0,73,74
 70 100 70 100 50 100 c 1,75,-1
 50 100 l 1,57,58
384 100 m 1,76,77
 363 100 363 100 348 115 c 128,-1,78
 333 130 333 130 333 150 c 256,79,80
 333 172 333 172 348 186 c 0,81,82
 362.0625 200.0625 362.0625 200.0625 381.3984375 200.0625 c 0,83,84
 382.6875 200.0625 382.6875 200.0625 384 200 c 0,85,86
 405 200 405 200 419 186 c 128,-1,87
 433.0625 171.9375 433.0625 171.9375 433.0625 152.6015625 c 0,88,89
 433.0625 129.0625 433.0625 129.0625 419 115 c 0,90,91
 404 100 404 100 384 100 c 1,92,-1
 384 100 l 1,76,77
50 200 m 1,93,94
 29 200 29 200 15 214 c 0,95,96
 0 229 0 229 0 250 c 256,97,98
 0 271 0 271 15 285 c 0,99,100
 30 300 30 300 50 300 c 256,101,102
 71 300 71 300 85 285 c 256,103,104
 100 270 100 270 100 250 c 256,105,106
 100 229 100 229 85 214 c 0,107,108
 70.9375 199.9375 70.9375 199.9375 52.48046875 199.9375 c 0,109,110
 51.25 199.9375 51.25 199.9375 50 200 c 1,111,-1
 50 200 l 1,93,94
50 300 m 1,112,113
 29 300 29 300 15 314 c 0,114,115
 0 329 0 329 0 350 c 128,-1,116
 0 371 0 371 15 386 c 0,117,118
 29.0625 400.0625 29.0625 400.0625 47.51953125 400.0625 c 0,119,120
 48.75 400.0625 48.75 400.0625 50 400 c 256,121,122
 71 400 71 400 85 386 c 0,123,124
 100 371 100 371 100 350 c 128,-1,125
 100 329 100 329 85 314 c 0,126,127
 70.9375 299.9375 70.9375 299.9375 52.48046875 299.9375 c 0,128,129
 51.25 299.9375 51.25 299.9375 50 300 c 1,130,-1
 50 300 l 1,112,113
50 400 m 1,131,132
 29 400 29 400 15 414 c 0,133,134
 0 429 0 429 0 450 c 256,135,136
 0 471 0 471 15 485 c 0,137,138
 30 500 30 500 50 500 c 256,139,140
 71 500 71 500 85 485 c 0,141,142
 100 470 100 470 100 450 c 256,143,144
 100 429 100 429 85 414 c 256,145,146
 70.9375 399.9375 70.9375 399.9375 52.48046875 399.9375 c 0,147,148
 51.25 399.9375 51.25 399.9375 50 400 c 1,149,-1
 50 400 l 1,131,132
50 500 m 1,150,151
 29 500 29 500 15 514 c 0,152,153
 0 529 0 529 0 550 c 256,154,155
 0 571 0 571 15 585 c 0,156,157
 30 600 30 600 50 600 c 256,158,159
 71 600 71 600 85 585 c 0,160,161
 100 570 100 570 100 550 c 256,162,163
 100 528 100 528 85 514 c 256,164,165
 70.9375 499.9375 70.9375 499.9375 52.48046875 499.9375 c 0,166,167
 51.25 499.9375 51.25 499.9375 50 500 c 1,168,-1
 50 500 l 1,150,151
384 500 m 1,169,170
 363 500 363 500 348 514 c 0,171,172
 333 529 333 529 333 550 c 256,173,174
 333 571 333 571 348 585 c 0,175,176
 363 600 363 600 384 600 c 128,-1,177
 405 600 405 600 419 585 c 0,178,179
 433.0625 570.9375 433.0625 570.9375 433.0625 552.48046875 c 0,180,181
 433.0625 528.0625 433.0625 528.0625 419 514 c 128,-1,182
 404.9375 499.9375 404.9375 499.9375 386.48046875 499.9375 c 0,183,184
 385.25 499.9375 385.25 499.9375 384 500 c 1,185,-1
 384 500 l 1,169,170
175 622 m 1,186,-1
 175 622 l 1,187,-1
 175 622 l 1,188,-1
 175 622 l 1,189,-1
 175 622 l 1,186,-1
133 600 m 1,190,191
 112 600 112 600 98 615 c 256,192,193
 83 630 83 630 83 650 c 256,194,195
 83 671 83 671 98 685 c 256,196,197
 113 700 113 700 133 700 c 256,198,199
 154 700 154 700 169 685 c 0,200,201
 173 681 173 681 175 678 c 1,202,-1
 175 678 l 1,203,204
 178 682 178 682 181 685 c 0,205,206
 196 700 196 700 216 700 c 256,207,208
 237 700 237 700 252 685 c 0,209,210
 256 681 256 681 258 678 c 1,211,-1
 258 678 l 1,212,213
 261 682 261 682 265 685 c 0,214,215
 280 700 280 700 300 700 c 256,216,217
 321 700 321 700 335 685 c 0,218,219
 350 670 350 670 350 650 c 256,220,221
 350 629 350 629 335 615 c 0,222,223
 320 600 320 600 300 600 c 256,224,225
 279 600 279 600 265 615 c 0,226,227
 261 619 261 619 258 622 c 1,228,-1
 258 622 l 1,229,230
 255 618 255 618 252 615 c 0,231,232
 237 600 237 600 216 600 c 256,233,234
 195 600 195 600 181 615 c 0,235,236
 177 619 177 619 175 622 c 1,237,-1
 175 622 l 1,238,239
 172 618 172 618 169 615 c 0,240,241
 154 600 154 600 133 600 c 1,242,-1
 133 600 l 1,190,191
EndSplineSet
Validated: 5
EndChar

StartChar: D
Encoding: 68 68 36
Width: 500
VWidth: 699
Flags: W
LayerCount: 2
Fore
SplineSet
92 22 m 1,0,1
 92 22 l 1,2,-1
 92 22 l 1,3,4
 92 22 l 1,5,-1
 92 22 l 1,0,1
258 22 m 1,6,7
 258 22 l 1,8,-1
 258 22 l 1,9,10
 258 22 l 1,11,-1
 258 22 l 1,6,7
50 0 m 1,12,13
 29 0 29 0 15 15 c 0,14,15
 0 30 0 30 0 50 c 256,16,17
 0 71 0 71 15 85 c 0,18,19
 30 100 30 100 50 100 c 256,20,21
 71 100 71 100 85 85 c 0,22,23
 89 81 89 81 92 78 c 1,24,-1
 92 78 l 1,25,26
 95 82 95 82 98 85 c 0,27,28
 113 100 113 100 133 100 c 256,29,30
 154 100 154 100 169 85 c 0,31,32
 173 81 173 81 175 78 c 1,33,-1
 175 78 l 1,34,35
 178 82 178 82 181 85 c 0,36,37
 196 100 196 100 216 100 c 256,38,39
 237 100 237 100 252 85 c 0,40,41
 256 81 256 81 258 78 c 1,42,-1
 258 78 l 1,43,44
 261 82 261 82 265 85 c 0,45,46
 280 100 280 100 300 100 c 256,47,48
 321 100 321 100 335 85 c 0,49,50
 350 70 350 70 350 50 c 256,51,52
 350 29 350 29 335 15 c 0,53,54
 320 0 320 0 300 0 c 256,55,56
 279 0 279 0 265 15 c 0,57,58
 261 19 261 19 258 22 c 1,59,60
 255 18 255 18 252 15 c 0,61,62
 237 0 237 0 216 0 c 256,63,64
 195 0 195 0 181 15 c 0,65,66
 177 19 177 19 175 22 c 1,67,-1
 175 22 l 1,68,69
 172 18 172 18 169 15 c 0,70,71
 154 0 154 0 133 0 c 256,72,73
 112 0 112 0 98 15 c 0,74,75
 94 19 94 19 92 22 c 1,76,77
 89 18 89 18 85 15 c 0,78,79
 70 0 70 0 50 0 c 1,80,-1
 50 0 l 1,12,13
50 100 m 1,81,82
 29 100 29 100 15 115 c 0,83,84
 0 130 0 130 0 150 c 256,85,86
 0 172 0 172 15 186 c 0,87,88
 29.0625 200.0625 29.0625 200.0625 47.51953125 200.0625 c 0,89,90
 48.75 200.0625 48.75 200.0625 50 200 c 256,91,92
 71 200 71 200 85 186 c 256,93,94
 100 171 100 171 100 150 c 256,95,96
 100 129 100 129 85 115 c 0,97,98
 70 100 70 100 50 100 c 1,99,-1
 50 100 l 1,81,82
384 100 m 1,100,101
 363 100 363 100 348 115 c 128,-1,102
 333 130 333 130 333 150 c 256,103,104
 333 172 333 172 348 186 c 0,105,106
 362.0625 200.0625 362.0625 200.0625 381.3984375 200.0625 c 0,107,108
 382.6875 200.0625 382.6875 200.0625 384 200 c 0,109,110
 405 200 405 200 419 186 c 128,-1,111
 433.0625 171.9375 433.0625 171.9375 433.0625 152.6015625 c 0,112,113
 433.0625 129.0625 433.0625 129.0625 419 115 c 0,114,115
 404 100 404 100 384 100 c 1,116,-1
 384 100 l 1,100,101
50 200 m 1,117,118
 29 200 29 200 15 214 c 0,119,120
 0 229 0 229 0 250 c 256,121,122
 0 271 0 271 15 285 c 0,123,124
 30 300 30 300 50 300 c 256,125,126
 71 300 71 300 85 285 c 256,127,128
 100 270 100 270 100 250 c 256,129,130
 100 229 100 229 85 214 c 0,131,132
 70.9375 199.9375 70.9375 199.9375 52.48046875 199.9375 c 0,133,134
 51.25 199.9375 51.25 199.9375 50 200 c 1,135,-1
 50 200 l 1,117,118
384 200 m 1,136,137
 363 200 363 200 348 214 c 0,138,139
 333 229 333 229 333 250 c 256,140,141
 333 271 333 271 348 285 c 0,142,143
 363 300 363 300 384 300 c 128,-1,144
 405 300 405 300 419 285 c 0,145,146
 433.0625 270.9375 433.0625 270.9375 433.0625 252.48046875 c 0,147,148
 433.0625 229.066964286 433.0625 229.066964286 419 214 c 0,149,150
 404.9375 199.9375 404.9375 199.9375 386.48046875 199.9375 c 0,151,152
 385.25 199.9375 385.25 199.9375 384 200 c 1,153,-1
 384 200 l 1,136,137
50 300 m 1,154,155
 29 300 29 300 15 314 c 0,156,157
 0 329 0 329 0 350 c 128,-1,158
 0 371 0 371 15 386 c 0,159,160
 29.0625 400.0625 29.0625 400.0625 47.51953125 400.0625 c 0,161,162
 48.75 400.0625 48.75 400.0625 50 400 c 256,163,164
 71 400 71 400 85 386 c 0,165,166
 100 371 100 371 100 350 c 128,-1,167
 100 329 100 329 85 314 c 0,168,169
 70.9375 299.9375 70.9375 299.9375 52.48046875 299.9375 c 0,170,171
 51.25 299.9375 51.25 299.9375 50 300 c 1,172,-1
 50 300 l 1,154,155
384 300 m 1,173,174
 363 300 363 300 348 314 c 0,175,176
 333 329 333 329 333 350 c 128,-1,177
 333 371 333 371 348 386 c 0,178,179
 362.0625 400.0625 362.0625 400.0625 381.3984375 400.0625 c 0,180,181
 382.6875 400.0625 382.6875 400.0625 384 400 c 0,182,183
 405 400 405 400 419 386 c 128,-1,184
 433.0625 371.9375 433.0625 371.9375 433.0625 352.6015625 c 0,185,186
 433.0625 329.066964286 433.0625 329.066964286 419 314 c 0,187,188
 404.9375 299.9375 404.9375 299.9375 386.48046875 299.9375 c 0,189,190
 385.25 299.9375 385.25 299.9375 384 300 c 1,191,-1
 384 300 l 1,173,174
50 400 m 1,192,193
 29 400 29 400 15 414 c 0,194,195
 0 429 0 429 0 450 c 256,196,197
 0 471 0 471 15 485 c 0,198,199
 30 500 30 500 50 500 c 256,200,201
 71 500 71 500 85 485 c 0,202,203
 100 470 100 470 100 450 c 256,204,205
 100 429 100 429 85 414 c 256,206,207
 70.9375 399.9375 70.9375 399.9375 52.48046875 399.9375 c 0,208,209
 51.25 399.9375 51.25 399.9375 50 400 c 1,210,-1
 50 400 l 1,192,193
384 400 m 1,211,212
 363 400 363 400 348 414 c 0,213,214
 333 429 333 429 333 450 c 256,215,216
 333 471 333 471 348 485 c 0,217,218
 363 500 363 500 384 500 c 128,-1,219
 405 500 405 500 419 485 c 0,220,221
 433.0625 470.9375 433.0625 470.9375 433.0625 452.48046875 c 0,222,223
 433.0625 429.066964286 433.0625 429.066964286 419 414 c 0,224,225
 404.9375 399.9375 404.9375 399.9375 386.48046875 399.9375 c 0,226,227
 385.25 399.9375 385.25 399.9375 384 400 c 1,228,-1
 384 400 l 1,211,212
50 500 m 1,229,230
 29 500 29 500 15 514 c 0,231,232
 0 529 0 529 0 550 c 256,233,234
 0 571 0 571 15 585 c 0,235,236
 30 600 30 600 50 600 c 256,237,238
 71 600 71 600 85 585 c 0,239,240
 100 570 100 570 100 550 c 256,241,242
 100 528 100 528 85 514 c 256,243,244
 70.9375 499.9375 70.9375 499.9375 52.48046875 499.9375 c 0,245,246
 51.25 499.9375 51.25 499.9375 50 500 c 1,247,-1
 50 500 l 1,229,230
384 500 m 1,248,249
 363 500 363 500 348 514 c 0,250,251
 333 529 333 529 333 550 c 256,252,253
 333 571 333 571 348 585 c 0,254,255
 363 600 363 600 384 600 c 128,-1,256
 405 600 405 600 419 585 c 0,257,258
 433.0625 570.9375 433.0625 570.9375 433.0625 552.48046875 c 0,259,260
 433.0625 528.0625 433.0625 528.0625 419 514 c 128,-1,261
 404.9375 499.9375 404.9375 499.9375 386.48046875 499.9375 c 0,262,263
 385.25 499.9375 385.25 499.9375 384 500 c 1,264,-1
 384 500 l 1,248,249
92 622 m 1,265,-1
 92 622 l 1,266,-1
 92 622 l 1,267,-1
 92 622 l 1,268,-1
 92 622 l 1,265,-1
258 622 m 1,269,-1
 258 622 l 1,270,-1
 258 622 l 1,271,-1
 258 622 l 1,272,-1
 258 622 l 1,269,-1
50 600 m 1,273,274
 29 600 29 600 15 615 c 0,275,276
 0 630 0 630 0 650 c 256,277,278
 0 671 0 671 15 685 c 0,279,280
 30 700 30 700 50 700 c 256,281,282
 71 700 71 700 85 685 c 0,283,284
 89 681 89 681 92 678 c 1,285,-1
 92 678 l 1,286,287
 95 682 95 682 98 685 c 0,288,289
 113 700 113 700 133 700 c 256,290,291
 154 700 154 700 169 685 c 0,292,293
 173 681 173 681 175 678 c 1,294,-1
 175 678 l 1,295,296
 178 682 178 682 181 685 c 0,297,298
 196 700 196 700 216 700 c 256,299,300
 237 700 237 700 252 685 c 0,301,302
 256 681 256 681 258 678 c 1,303,-1
 258 678 l 1,304,305
 261 682 261 682 265 685 c 0,306,307
 280 700 280 700 300 700 c 256,308,309
 321 700 321 700 335 685 c 0,310,311
 350 670 350 670 350 650 c 256,312,313
 350 629 350 629 335 615 c 0,314,315
 320 600 320 600 300 600 c 256,316,317
 279 600 279 600 265 615 c 0,318,319
 261 619 261 619 258 622 c 1,320,-1
 258 622 l 1,321,322
 255 618 255 618 252 615 c 0,323,324
 237 600 237 600 216 600 c 256,325,326
 195 600 195 600 181 615 c 0,327,328
 177 619 177 619 175 622 c 1,329,-1
 175 622 l 1,330,331
 172 618 172 618 169 615 c 0,332,333
 154 600 154 600 133 600 c 256,334,335
 112 600 112 600 98 615 c 0,336,337
 94 619 94 619 92 622 c 1,338,339
 89 618 89 618 85 615 c 0,340,341
 70 600 70 600 50 600 c 1,342,-1
 50 600 l 1,273,274
EndSplineSet
Validated: 5
EndChar

StartChar: E
Encoding: 69 69 37
Width: 500
VWidth: 699
Flags: W
LayerCount: 2
Fore
SplineSet
92 22 m 1,0,1
 92 22 l 1,2,-1
 92 22 l 1,3,4
 92 22 l 1,5,-1
 92 22 l 1,0,1
258 22 m 1,6,7
 258 22 l 1,8,-1
 258 22 l 1,9,10
 258 22 l 1,11,-1
 258 22 l 1,6,7
50 0 m 1,12,13
 29 0 29 0 15 15 c 0,14,15
 0 30 0 30 0 50 c 256,16,17
 0 71 0 71 15 85 c 0,18,19
 30 100 30 100 50 100 c 256,20,21
 71 100 71 100 85 85 c 0,22,23
 89 81 89 81 92 78 c 1,24,-1
 92 78 l 1,25,26
 95 82 95 82 98 85 c 0,27,28
 113 100 113 100 133 100 c 256,29,30
 154 100 154 100 169 85 c 0,31,32
 173 81 173 81 175 78 c 1,33,-1
 175 78 l 1,34,35
 178 82 178 82 181 85 c 0,36,37
 196 100 196 100 216 100 c 256,38,39
 237 100 237 100 252 85 c 0,40,41
 256 81 256 81 258 78 c 1,42,-1
 258 78 l 1,43,44
 261 82 261 82 265 85 c 0,45,46
 280 100 280 100 300 100 c 256,47,48
 321 100 321 100 335 85 c 0,49,50
 339 81 339 81 342 78 c 1,51,-1
 342 78 l 1,52,53
 345 82 345 82 348 85 c 0,54,55
 363 100 363 100 384 100 c 128,-1,56
 405 100 405 100 419 85 c 0,57,58
 433.0625 70.9375 433.0625 70.9375 433.0625 52.48046875 c 0,59,60
 433.0625 29.0625 433.0625 29.0625 419 15 c 0,61,62
 404 0 404 0 384 0 c 0,63,64
 363 0 363 0 348 15 c 0,65,66
 344 19 344 19 342 22 c 1,67,-1
 342 22 l 1,68,69
 339 18 339 18 335 15 c 0,70,71
 320 0 320 0 300 0 c 256,72,73
 279 0 279 0 265 15 c 0,74,75
 261 19 261 19 258 22 c 1,76,77
 255 18 255 18 252 15 c 0,78,79
 237 0 237 0 216 0 c 256,80,81
 195 0 195 0 181 15 c 0,82,83
 177 19 177 19 175 22 c 1,84,-1
 175 22 l 1,85,86
 172 18 172 18 169 15 c 0,87,88
 154 0 154 0 133 0 c 256,89,90
 112 0 112 0 98 15 c 0,91,92
 94 19 94 19 92 22 c 1,93,94
 89 18 89 18 85 15 c 0,95,96
 70 0 70 0 50 0 c 1,97,-1
 50 0 l 1,12,13
50 100 m 1,98,99
 29 100 29 100 15 115 c 0,100,101
 0 130 0 130 0 150 c 256,102,103
 0 172 0 172 15 186 c 0,104,105
 29.0625 200.0625 29.0625 200.0625 47.51953125 200.0625 c 0,106,107
 48.75 200.0625 48.75 200.0625 50 200 c 256,108,109
 71 200 71 200 85 186 c 256,110,111
 100 171 100 171 100 150 c 256,112,113
 100 129 100 129 85 115 c 0,114,115
 70 100 70 100 50 100 c 1,116,-1
 50 100 l 1,98,99
50 200 m 1,117,118
 29 200 29 200 15 214 c 0,119,120
 0 229 0 229 0 250 c 256,121,122
 0 271 0 271 15 285 c 0,123,124
 30 300 30 300 50 300 c 256,125,126
 71 300 71 300 85 285 c 256,127,128
 100 270 100 270 100 250 c 256,129,130
 100 229 100 229 85 214 c 0,131,132
 70.9375 199.9375 70.9375 199.9375 52.48046875 199.9375 c 0,133,134
 51.25 199.9375 51.25 199.9375 50 200 c 1,135,-1
 50 200 l 1,117,118
175 322 m 1,136,-1
 175 322 l 1,137,-1
 175 322 l 1,138,-1
 175 322 l 1,139,-1
 175 322 l 1,136,-1
50 300 m 1,140,141
 29 300 29 300 15 314 c 0,142,143
 0 329 0 329 0 350 c 128,-1,144
 0 371 0 371 15 386 c 0,145,146
 29.0625 400.0625 29.0625 400.0625 47.51953125 400.0625 c 0,147,148
 48.75 400.0625 48.75 400.0625 50 400 c 256,149,150
 71 400 71 400 85 386 c 0,151,152
 89 382 89 382 92 378 c 1,153,-1
 92 378 l 1,154,155
 95 382 95 382 98 386 c 0,156,157
 112.0625 400.0625 112.0625 400.0625 130.51953125 400.0625 c 0,158,159
 131.75 400.0625 131.75 400.0625 133 400 c 256,160,161
 154 400 154 400 169 386 c 0,162,163
 173 382 173 382 175 378 c 1,164,-1
 175 378 l 1,165,166
 178 382 178 382 181 386 c 0,167,168
 195.0625 400.0625 195.0625 400.0625 213.51953125 400.0625 c 0,169,170
 214.75 400.0625 214.75 400.0625 216 400 c 256,171,172
 237 400 237 400 252 386 c 0,173,174
 256 382 256 382 258 378 c 1,175,-1
 258 378 l 1,176,177
 261 382 261 382 265 386 c 0,178,179
 279.0625 400.0625 279.0625 400.0625 297.51953125 400.0625 c 0,180,181
 298.75 400.0625 298.75 400.0625 300 400 c 256,182,183
 321 400 321 400 335 386 c 0,184,185
 350 371 350 371 350 350 c 128,-1,186
 350 329 350 329 335 314 c 0,187,188
 320.9375 299.9375 320.9375 299.9375 302.48046875 299.9375 c 0,189,190
 301.25 299.9375 301.25 299.9375 300 300 c 256,191,192
 279 300 279 300 265 314 c 0,193,194
 261 318 261 318 258 322 c 1,195,-1
 258 322 l 1,196,197
 255 318 255 318 252 314 c 0,198,199
 237.9375 299.9375 237.9375 299.9375 218.6015625 299.9375 c 0,200,201
 217.3125 299.9375 217.3125 299.9375 216 300 c 256,202,203
 195 300 195 300 181 314 c 0,204,205
 177 318 177 318 175 322 c 1,206,-1
 175 322 l 1,207,208
 172 318 172 318 169 314 c 0,209,210
 154.9375 299.9375 154.9375 299.9375 135.6015625 299.9375 c 0,211,212
 134.3125 299.9375 134.3125 299.9375 133 300 c 256,213,214
 112 300 112 300 98 314 c 0,215,216
 94 318 94 318 92 322 c 1,217,-1
 92 322 l 1,218,219
 89 318 89 318 85 314 c 0,220,221
 70.9375 299.9375 70.9375 299.9375 52.48046875 299.9375 c 0,222,223
 51.25 299.9375 51.25 299.9375 50 300 c 1,224,-1
 50 300 l 1,140,141
50 400 m 1,225,226
 29 400 29 400 15 414 c 0,227,228
 0 429 0 429 0 450 c 256,229,230
 0 471 0 471 15 485 c 0,231,232
 30 500 30 500 50 500 c 256,233,234
 71 500 71 500 85 485 c 0,235,236
 100 470 100 470 100 450 c 256,237,238
 100 429 100 429 85 414 c 256,239,240
 70.9375 399.9375 70.9375 399.9375 52.48046875 399.9375 c 0,241,242
 51.25 399.9375 51.25 399.9375 50 400 c 1,243,-1
 50 400 l 1,225,226
50 500 m 1,244,245
 29 500 29 500 15 514 c 0,246,247
 0 529 0 529 0 550 c 256,248,249
 0 571 0 571 15 585 c 0,250,251
 30 600 30 600 50 600 c 256,252,253
 71 600 71 600 85 585 c 0,254,255
 100 570 100 570 100 550 c 256,256,257
 100 528 100 528 85 514 c 256,258,259
 70.9375 499.9375 70.9375 499.9375 52.48046875 499.9375 c 0,260,261
 51.25 499.9375 51.25 499.9375 50 500 c 1,262,-1
 50 500 l 1,244,245
92 622 m 1,263,-1
 92 622 l 1,264,-1
 92 622 l 1,265,-1
 92 622 l 1,266,-1
 92 622 l 1,263,-1
175 622 m 1,267,-1
 175 622 l 1,268,-1
 175 622 l 1,269,-1
 175 622 l 1,270,-1
 175 622 l 1,267,-1
342 622 m 1,271,-1
 342 622 l 1,272,-1
 342 622 l 1,273,-1
 342 622 l 1,274,-1
 342 622 l 1,271,-1
50 600 m 1,275,276
 29 600 29 600 15 615 c 0,277,278
 0 630 0 630 0 650 c 256,279,280
 0 671 0 671 15 685 c 0,281,282
 30 700 30 700 50 700 c 256,283,284
 71 700 71 700 85 685 c 0,285,286
 89 681 89 681 92 678 c 1,287,-1
 92 678 l 1,288,289
 95 682 95 682 98 685 c 0,290,291
 113 700 113 700 133 700 c 256,292,293
 154 700 154 700 169 685 c 0,294,295
 173 681 173 681 175 678 c 1,296,-1
 175 678 l 1,297,298
 178 682 178 682 181 685 c 0,299,300
 196 700 196 700 216 700 c 256,301,302
 237 700 237 700 252 685 c 0,303,304
 256 681 256 681 258 678 c 1,305,-1
 258 678 l 1,306,307
 261 682 261 682 265 685 c 0,308,309
 280 700 280 700 300 700 c 256,310,311
 321 700 321 700 335 685 c 0,312,313
 339 681 339 681 342 678 c 1,314,-1
 342 678 l 1,315,316
 345 682 345 682 348 685 c 0,317,318
 363 700 363 700 384 700 c 128,-1,319
 405 700 405 700 419 685 c 0,320,321
 433.0625 670.9375 433.0625 670.9375 433.0625 652.48046875 c 0,322,323
 433.0625 629.0625 433.0625 629.0625 419 615 c 0,324,325
 404 600 404 600 384 600 c 0,326,327
 363 600 363 600 348 615 c 0,328,329
 344 619 344 619 342 622 c 1,330,331
 339 618 339 618 335 615 c 0,332,333
 320 600 320 600 300 600 c 256,334,335
 279 600 279 600 265 615 c 0,336,337
 261 619 261 619 258 622 c 1,338,-1
 258 622 l 1,339,340
 255 618 255 618 252 615 c 0,341,342
 237 600 237 600 216 600 c 256,343,344
 195 600 195 600 181 615 c 0,345,346
 177 619 177 619 175 622 c 1,347,-1
 175 622 l 1,348,349
 172 618 172 618 169 615 c 0,350,351
 154 600 154 600 133 600 c 256,352,353
 112 600 112 600 98 615 c 0,354,355
 94 619 94 619 92 622 c 1,356,-1
 92 622 l 1,357,358
 89 618 89 618 85 615 c 0,359,360
 70 600 70 600 50 600 c 1,361,-1
 50 600 l 1,275,276
EndSplineSet
Validated: 5
EndChar

StartChar: F
Encoding: 70 70 38
Width: 500
VWidth: 699
Flags: W
LayerCount: 2
Fore
SplineSet
50 0 m 1,0,1
 29 0 29 0 15 15 c 0,2,3
 0 30 0 30 0 50 c 256,4,5
 0 71 0 71 15 85 c 0,6,7
 30 100 30 100 50 100 c 256,8,9
 71 100 71 100 85 85 c 256,10,11
 100 70 100 70 100 50 c 256,12,13
 100 29 100 29 85 15 c 0,14,15
 70 0 70 0 50 0 c 1,16,-1
 50 0 l 1,0,1
50 100 m 1,17,18
 29 100 29 100 15 115 c 0,19,20
 0 130 0 130 0 150 c 256,21,22
 0 172 0 172 15 186 c 0,23,24
 29.0625 200.0625 29.0625 200.0625 47.51953125 200.0625 c 0,25,26
 48.75 200.0625 48.75 200.0625 50 200 c 256,27,28
 71 200 71 200 85 186 c 256,29,30
 100 171 100 171 100 150 c 256,31,32
 100 129 100 129 85 115 c 0,33,34
 70 100 70 100 50 100 c 1,35,-1
 50 100 l 1,17,18
50 200 m 1,36,37
 29 200 29 200 15 214 c 0,38,39
 0 229 0 229 0 250 c 256,40,41
 0 271 0 271 15 285 c 0,42,43
 30 300 30 300 50 300 c 256,44,45
 71 300 71 300 85 285 c 256,46,47
 100 270 100 270 100 250 c 256,48,49
 100 229 100 229 85 214 c 0,50,51
 70.9375 199.9375 70.9375 199.9375 52.48046875 199.9375 c 0,52,53
 51.25 199.9375 51.25 199.9375 50 200 c 1,54,-1
 50 200 l 1,36,37
175 322 m 1,55,-1
 175 322 l 1,56,-1
 175 322 l 1,57,-1
 175 322 l 1,58,-1
 175 322 l 1,55,-1
50 300 m 1,59,60
 29 300 29 300 15 314 c 0,61,62
 0 329 0 329 0 350 c 128,-1,63
 0 371 0 371 15 386 c 0,64,65
 29.0625 400.0625 29.0625 400.0625 47.51953125 400.0625 c 0,66,67
 48.75 400.0625 48.75 400.0625 50 400 c 256,68,69
 71 400 71 400 85 386 c 0,70,71
 89 382 89 382 92 378 c 1,72,-1
 92 378 l 1,73,74
 95 382 95 382 98 386 c 0,75,76
 112.0625 400.0625 112.0625 400.0625 130.51953125 400.0625 c 0,77,78
 131.75 400.0625 131.75 400.0625 133 400 c 256,79,80
 154 400 154 400 169 386 c 0,81,82
 173 382 173 382 175 378 c 1,83,-1
 175 378 l 1,84,85
 178 382 178 382 181 386 c 0,86,87
 195.0625 400.0625 195.0625 400.0625 213.51953125 400.0625 c 0,88,89
 214.75 400.0625 214.75 400.0625 216 400 c 256,90,91
 237 400 237 400 252 386 c 0,92,93
 256 382 256 382 258 378 c 1,94,-1
 258 378 l 1,95,96
 261 382 261 382 265 386 c 0,97,98
 279.0625 400.0625 279.0625 400.0625 297.51953125 400.0625 c 0,99,100
 298.75 400.0625 298.75 400.0625 300 400 c 256,101,102
 321 400 321 400 335 386 c 0,103,104
 350 371 350 371 350 350 c 128,-1,105
 350 329 350 329 335 314 c 0,106,107
 320.9375 299.9375 320.9375 299.9375 302.48046875 299.9375 c 0,108,109
 301.25 299.9375 301.25 299.9375 300 300 c 256,110,111
 279 300 279 300 265 314 c 0,112,113
 261 318 261 318 258 322 c 1,114,115
 255 318 255 318 252 314 c 0,116,117
 237.9375 299.9375 237.9375 299.9375 218.6015625 299.9375 c 0,118,119
 217.3125 299.9375 217.3125 299.9375 216 300 c 256,120,121
 195 300 195 300 181 314 c 0,122,123
 177 318 177 318 175 322 c 1,124,125
 172 318 172 318 169 314 c 0,126,127
 154.9375 299.9375 154.9375 299.9375 135.6015625 299.9375 c 0,128,129
 134.3125 299.9375 134.3125 299.9375 133 300 c 256,130,131
 112 300 112 300 98 314 c 0,132,133
 94 318 94 318 92 322 c 1,134,-1
 92 322 l 1,135,136
 89 318 89 318 85 314 c 0,137,138
 70.9375 299.9375 70.9375 299.9375 52.48046875 299.9375 c 0,139,140
 51.25 299.9375 51.25 299.9375 50 300 c 1,141,-1
 50 300 l 1,59,60
50 400 m 1,142,143
 29 400 29 400 15 414 c 0,144,145
 0 429 0 429 0 450 c 256,146,147
 0 471 0 471 15 485 c 0,148,149
 30 500 30 500 50 500 c 256,150,151
 71 500 71 500 85 485 c 0,152,153
 100 470 100 470 100 450 c 256,154,155
 100 429 100 429 85 414 c 256,156,157
 70.9375 399.9375 70.9375 399.9375 52.48046875 399.9375 c 0,158,159
 51.25 399.9375 51.25 399.9375 50 400 c 1,160,-1
 50 400 l 1,142,143
50 500 m 1,161,162
 29 500 29 500 15 514 c 0,163,164
 0 529 0 529 0 550 c 256,165,166
 0 571 0 571 15 585 c 0,167,168
 30 600 30 600 50 600 c 256,169,170
 71 600 71 600 85 585 c 0,171,172
 100 570 100 570 100 550 c 256,173,174
 100 528 100 528 85 514 c 256,175,176
 70.9375 499.9375 70.9375 499.9375 52.48046875 499.9375 c 0,177,178
 51.25 499.9375 51.25 499.9375 50 500 c 1,179,-1
 50 500 l 1,161,162
92 622 m 1,180,-1
 92 622 l 1,181,-1
 92 622 l 1,182,-1
 92 622 l 1,183,-1
 92 622 l 1,180,-1
175 622 m 1,184,-1
 175 622 l 1,185,-1
 175 622 l 1,186,-1
 175 622 l 1,187,-1
 175 622 l 1,184,-1
342 622 m 1,188,-1
 342 622 l 1,189,-1
 342 622 l 1,190,-1
 342 622 l 1,191,-1
 342 622 l 1,188,-1
50 600 m 1,192,193
 29 600 29 600 15 615 c 0,194,195
 0 630 0 630 0 650 c 256,196,197
 0 671 0 671 15 685 c 0,198,199
 30 700 30 700 50 700 c 256,200,201
 71 700 71 700 85 685 c 0,202,203
 89 681 89 681 92 678 c 1,204,-1
 92 678 l 1,205,206
 95 682 95 682 98 685 c 0,207,208
 113 700 113 700 133 700 c 256,209,210
 154 700 154 700 169 685 c 0,211,212
 173 681 173 681 175 678 c 1,213,-1
 175 678 l 1,214,215
 178 682 178 682 181 685 c 0,216,217
 196 700 196 700 216 700 c 256,218,219
 237 700 237 700 252 685 c 0,220,221
 256 681 256 681 258 678 c 1,222,-1
 258 678 l 1,223,224
 261 682 261 682 265 685 c 0,225,226
 280 700 280 700 300 700 c 256,227,228
 321 700 321 700 335 685 c 0,229,230
 339 681 339 681 342 678 c 1,231,-1
 342 678 l 1,232,233
 345 682 345 682 348 685 c 0,234,235
 363 700 363 700 384 700 c 128,-1,236
 405 700 405 700 419 685 c 0,237,238
 433.0625 670.9375 433.0625 670.9375 433.0625 652.48046875 c 0,239,240
 433.0625 629.0625 433.0625 629.0625 419 615 c 0,241,242
 404 600 404 600 384 600 c 0,243,244
 363 600 363 600 348 615 c 0,245,246
 344 619 344 619 342 622 c 1,247,248
 339 618 339 618 335 615 c 0,249,250
 320 600 320 600 300 600 c 256,251,252
 279 600 279 600 265 615 c 0,253,254
 261 619 261 619 258 622 c 1,255,-1
 258 622 l 1,256,257
 255 618 255 618 252 615 c 0,258,259
 237 600 237 600 216 600 c 256,260,261
 195 600 195 600 181 615 c 0,262,263
 177 619 177 619 175 622 c 1,264,-1
 175 622 l 1,265,266
 172 618 172 618 169 615 c 0,267,268
 154 600 154 600 133 600 c 256,269,270
 112 600 112 600 98 615 c 0,271,272
 94 619 94 619 92 622 c 1,273,-1
 92 622 l 1,274,275
 89 618 89 618 85 615 c 0,276,277
 70 600 70 600 50 600 c 1,278,-1
 50 600 l 1,192,193
EndSplineSet
Validated: 5
EndChar

